<svg width="1363" height="163" viewBox="0 0 1363 163" fill="none" xmlns="http://www.w3.org/2000/svg">
<path d="M0 15C0 6.71573 6.71573 0 15 0H37V163H15C6.71573 163 0 156.284 0 148V15Z" fill="#424242"/>
<rect width="1097" height="163" transform="translate(37)" fill="#F0F0F0"/>
<path d="M101.906 53.9219L94.3945 51.2383V48.0859L104.602 52.375V54.6367L101.906 53.9219ZM94.3945 56.1719L101.918 53.4297L104.602 52.7852V55.0352L94.3945 59.3242V56.1719ZM122.789 55.3398H126.293C126.223 56.4883 125.906 57.5078 125.344 58.3984C124.789 59.2891 124.012 59.9844 123.012 60.4844C122.02 60.9844 120.824 61.2344 119.426 61.2344C118.332 61.2344 117.352 61.0469 116.484 60.6719C115.617 60.2891 114.875 59.7422 114.258 59.0312C113.648 58.3203 113.184 57.4609 112.863 56.4531C112.543 55.4453 112.383 54.3164 112.383 53.0664V51.8828C112.383 50.6328 112.547 49.5039 112.875 48.4961C113.211 47.4805 113.688 46.6172 114.305 45.9062C114.93 45.1953 115.676 44.6484 116.543 44.2656C117.41 43.8828 118.379 43.6914 119.449 43.6914C120.871 43.6914 122.07 43.9492 123.047 44.4648C124.031 44.9805 124.793 45.6914 125.332 46.5977C125.879 47.5039 126.207 48.5352 126.316 49.6914H122.801C122.762 49.0039 122.625 48.4219 122.391 47.9453C122.156 47.4609 121.801 47.0977 121.324 46.8555C120.855 46.6055 120.23 46.4805 119.449 46.4805C118.863 46.4805 118.352 46.5898 117.914 46.8086C117.477 47.0273 117.109 47.3594 116.812 47.8047C116.516 48.25 116.293 48.8125 116.145 49.4922C116.004 50.1641 115.934 50.9531 115.934 51.8594V53.0664C115.934 53.9492 116 54.7266 116.133 55.3984C116.266 56.0625 116.469 56.625 116.742 57.0859C117.023 57.5391 117.383 57.8828 117.82 58.1172C118.266 58.3438 118.801 58.457 119.426 58.457C120.16 58.457 120.766 58.3398 121.242 58.1055C121.719 57.8711 122.082 57.5234 122.332 57.0625C122.59 56.6016 122.742 56.0273 122.789 55.3398ZM135.234 58.1406V52.4922C135.234 52.0859 135.168 51.7383 135.035 51.4492C134.902 51.1523 134.695 50.9219 134.414 50.7578C134.141 50.5938 133.785 50.5117 133.348 50.5117C132.973 50.5117 132.648 50.5781 132.375 50.7109C132.102 50.8359 131.891 51.0195 131.742 51.2617C131.594 51.4961 131.52 51.7734 131.52 52.0938H128.145C128.145 51.5547 128.27 51.043 128.52 50.5586C128.77 50.0742 129.133 49.6484 129.609 49.2812C130.086 48.9062 130.652 48.6133 131.309 48.4023C131.973 48.1914 132.715 48.0859 133.535 48.0859C134.52 48.0859 135.395 48.25 136.16 48.5781C136.926 48.9062 137.527 49.3984 137.965 50.0547C138.41 50.7109 138.633 51.5312 138.633 52.5156V57.9414C138.633 58.6367 138.676 59.207 138.762 59.6523C138.848 60.0898 138.973 60.4727 139.137 60.8008V61H135.727C135.562 60.6562 135.438 60.2266 135.352 59.7109C135.273 59.1875 135.234 58.6641 135.234 58.1406ZM135.68 53.2773L135.703 55.1875H133.816C133.371 55.1875 132.984 55.2383 132.656 55.3398C132.328 55.4414 132.059 55.5859 131.848 55.7734C131.637 55.9531 131.48 56.1641 131.379 56.4062C131.285 56.6484 131.238 56.9141 131.238 57.2031C131.238 57.4922 131.305 57.7539 131.438 57.9883C131.57 58.2148 131.762 58.3945 132.012 58.5273C132.262 58.6523 132.555 58.7148 132.891 58.7148C133.398 58.7148 133.84 58.6133 134.215 58.4102C134.59 58.207 134.879 57.957 135.082 57.6602C135.293 57.3633 135.402 57.082 135.41 56.8164L136.301 58.2461C136.176 58.5664 136.004 58.8984 135.785 59.2422C135.574 59.5859 135.305 59.9102 134.977 60.2148C134.648 60.5117 134.254 60.7578 133.793 60.9531C133.332 61.1406 132.785 61.2344 132.152 61.2344C131.348 61.2344 130.617 61.0742 129.961 60.7539C129.312 60.4258 128.797 59.9766 128.414 59.4062C128.039 58.8281 127.852 58.1719 127.852 57.4375C127.852 56.7734 127.977 56.1836 128.227 55.668C128.477 55.1523 128.844 54.7188 129.328 54.3672C129.82 54.0078 130.434 53.7383 131.168 53.5586C131.902 53.3711 132.754 53.2773 133.723 53.2773H135.68ZM144.609 51.0859V61H141.234V48.3203H144.41L144.609 51.0859ZM148.43 48.2383L148.371 51.3672C148.207 51.3438 148.008 51.3242 147.773 51.3086C147.547 51.2852 147.34 51.2734 147.152 51.2734C146.676 51.2734 146.262 51.3359 145.91 51.4609C145.566 51.5781 145.277 51.7539 145.043 51.9883C144.816 52.2227 144.645 52.5078 144.527 52.8438C144.418 53.1797 144.355 53.5625 144.34 53.9922L143.66 53.7812C143.66 52.9609 143.742 52.207 143.906 51.5195C144.07 50.8242 144.309 50.2188 144.621 49.7031C144.941 49.1875 145.332 48.7891 145.793 48.5078C146.254 48.2266 146.781 48.0859 147.375 48.0859C147.562 48.0859 147.754 48.1016 147.949 48.1328C148.145 48.1562 148.305 48.1914 148.43 48.2383ZM155.625 61.2344C154.641 61.2344 153.758 61.0781 152.977 60.7656C152.195 60.4453 151.531 60.0039 150.984 59.4414C150.445 58.8789 150.031 58.2266 149.742 57.4844C149.453 56.7344 149.309 55.9375 149.309 55.0938V54.625C149.309 53.6641 149.445 52.7852 149.719 51.9883C149.992 51.1914 150.383 50.5 150.891 49.9141C151.406 49.3281 152.031 48.8789 152.766 48.5664C153.5 48.2461 154.328 48.0859 155.25 48.0859C156.148 48.0859 156.945 48.2344 157.641 48.5312C158.336 48.8281 158.918 49.25 159.387 49.7969C159.863 50.3438 160.223 51 160.465 51.7656C160.707 52.5234 160.828 53.3672 160.828 54.2969V55.7031H150.75V53.4531H157.512V53.1953C157.512 52.7266 157.426 52.3086 157.254 51.9414C157.09 51.5664 156.84 51.2695 156.504 51.0508C156.168 50.832 155.738 50.7227 155.215 50.7227C154.77 50.7227 154.387 50.8203 154.066 51.0156C153.746 51.2109 153.484 51.4844 153.281 51.8359C153.086 52.1875 152.938 52.6016 152.836 53.0781C152.742 53.5469 152.695 54.0625 152.695 54.625V55.0938C152.695 55.6016 152.766 56.0703 152.906 56.5C153.055 56.9297 153.262 57.3008 153.527 57.6133C153.801 57.9258 154.129 58.168 154.512 58.3398C154.902 58.5117 155.344 58.5977 155.836 58.5977C156.445 58.5977 157.012 58.4805 157.535 58.2461C158.066 58.0039 158.523 57.6406 158.906 57.1562L160.547 58.9375C160.281 59.3203 159.918 59.6875 159.457 60.0391C159.004 60.3906 158.457 60.6797 157.816 60.9062C157.176 61.125 156.445 61.2344 155.625 61.2344ZM168.586 61.2344C167.602 61.2344 166.719 61.0781 165.938 60.7656C165.156 60.4453 164.492 60.0039 163.945 59.4414C163.406 58.8789 162.992 58.2266 162.703 57.4844C162.414 56.7344 162.27 55.9375 162.27 55.0938V54.625C162.27 53.6641 162.406 52.7852 162.68 51.9883C162.953 51.1914 163.344 50.5 163.852 49.9141C164.367 49.3281 164.992 48.8789 165.727 48.5664C166.461 48.2461 167.289 48.0859 168.211 48.0859C169.109 48.0859 169.906 48.2344 170.602 48.5312C171.297 48.8281 171.879 49.25 172.348 49.7969C172.824 50.3438 173.184 51 173.426 51.7656C173.668 52.5234 173.789 53.3672 173.789 54.2969V55.7031H163.711V53.4531H170.473V53.1953C170.473 52.7266 170.387 52.3086 170.215 51.9414C170.051 51.5664 169.801 51.2695 169.465 51.0508C169.129 50.832 168.699 50.7227 168.176 50.7227C167.73 50.7227 167.348 50.8203 167.027 51.0156C166.707 51.2109 166.445 51.4844 166.242 51.8359C166.047 52.1875 165.898 52.6016 165.797 53.0781C165.703 53.5469 165.656 54.0625 165.656 54.625V55.0938C165.656 55.6016 165.727 56.0703 165.867 56.5C166.016 56.9297 166.223 57.3008 166.488 57.6133C166.762 57.9258 167.09 58.168 167.473 58.3398C167.863 58.5117 168.305 58.5977 168.797 58.5977C169.406 58.5977 169.973 58.4805 170.496 58.2461C171.027 58.0039 171.484 57.6406 171.867 57.1562L173.508 58.9375C173.242 59.3203 172.879 59.6875 172.418 60.0391C171.965 60.3906 171.418 60.6797 170.777 60.9062C170.137 61.125 169.406 61.2344 168.586 61.2344ZM179.086 51.0859V61H175.711V48.3203H178.887L179.086 51.0859ZM182.906 48.2383L182.848 51.3672C182.684 51.3438 182.484 51.3242 182.25 51.3086C182.023 51.2852 181.816 51.2734 181.629 51.2734C181.152 51.2734 180.738 51.3359 180.387 51.4609C180.043 51.5781 179.754 51.7539 179.52 51.9883C179.293 52.2227 179.121 52.5078 179.004 52.8438C178.895 53.1797 178.832 53.5625 178.816 53.9922L178.137 53.7812C178.137 52.9609 178.219 52.207 178.383 51.5195C178.547 50.8242 178.785 50.2188 179.098 49.7031C179.418 49.1875 179.809 48.7891 180.27 48.5078C180.73 48.2266 181.258 48.0859 181.852 48.0859C182.039 48.0859 182.23 48.1016 182.426 48.1328C182.621 48.1562 182.781 48.1914 182.906 48.2383ZM188.227 43.9375V61H184.711V43.9375H188.227ZM195.023 51.2266V53.9688H187.266V51.2266H195.023ZM195.844 43.9375V46.6914H187.266V43.9375H195.844ZM196.875 54.7891V54.543C196.875 53.6133 197.008 52.7578 197.273 51.9766C197.539 51.1875 197.926 50.5039 198.434 49.9258C198.941 49.3477 199.566 48.8984 200.309 48.5781C201.051 48.25 201.902 48.0859 202.863 48.0859C203.824 48.0859 204.68 48.25 205.43 48.5781C206.18 48.8984 206.809 49.3477 207.316 49.9258C207.832 50.5039 208.223 51.1875 208.488 51.9766C208.754 52.7578 208.887 53.6133 208.887 54.543V54.7891C208.887 55.7109 208.754 56.5664 208.488 57.3555C208.223 58.1367 207.832 58.8203 207.316 59.4062C206.809 59.9844 206.184 60.4336 205.441 60.7539C204.699 61.0742 203.848 61.2344 202.887 61.2344C201.926 61.2344 201.07 61.0742 200.32 60.7539C199.578 60.4336 198.949 59.9844 198.434 59.4062C197.926 58.8203 197.539 58.1367 197.273 57.3555C197.008 56.5664 196.875 55.7109 196.875 54.7891ZM200.25 54.543V54.7891C200.25 55.3203 200.297 55.8164 200.391 56.2773C200.484 56.7383 200.633 57.1445 200.836 57.4961C201.047 57.8398 201.32 58.1094 201.656 58.3047C201.992 58.5 202.402 58.5977 202.887 58.5977C203.355 58.5977 203.758 58.5 204.094 58.3047C204.43 58.1094 204.699 57.8398 204.902 57.4961C205.105 57.1445 205.254 56.7383 205.348 56.2773C205.449 55.8164 205.5 55.3203 205.5 54.7891V54.543C205.5 54.0273 205.449 53.543 205.348 53.0898C205.254 52.6289 205.102 52.2227 204.891 51.8711C204.688 51.5117 204.418 51.2305 204.082 51.0273C203.746 50.8242 203.34 50.7227 202.863 50.7227C202.387 50.7227 201.98 50.8242 201.645 51.0273C201.316 51.2305 201.047 51.5117 200.836 51.8711C200.633 52.2227 200.484 52.6289 200.391 53.0898C200.297 53.543 200.25 54.0273 200.25 54.543ZM214.336 51.0859V61H210.961V48.3203H214.137L214.336 51.0859ZM218.156 48.2383L218.098 51.3672C217.934 51.3438 217.734 51.3242 217.5 51.3086C217.273 51.2852 217.066 51.2734 216.879 51.2734C216.402 51.2734 215.988 51.3359 215.637 51.4609C215.293 51.5781 215.004 51.7539 214.77 51.9883C214.543 52.2227 214.371 52.5078 214.254 52.8438C214.145 53.1797 214.082 53.5625 214.066 53.9922L213.387 53.7812C213.387 52.9609 213.469 52.207 213.633 51.5195C213.797 50.8242 214.035 50.2188 214.348 49.7031C214.668 49.1875 215.059 48.7891 215.52 48.5078C215.98 48.2266 216.508 48.0859 217.102 48.0859C217.289 48.0859 217.48 48.1016 217.676 48.1328C217.871 48.1562 218.031 48.1914 218.156 48.2383ZM227.543 48.3203H230.602V60.5781C230.602 61.7344 230.344 62.7148 229.828 63.5195C229.32 64.332 228.609 64.9453 227.695 65.3594C226.781 65.7812 225.719 65.9922 224.508 65.9922C223.977 65.9922 223.414 65.9219 222.82 65.7812C222.234 65.6406 221.672 65.4219 221.133 65.125C220.602 64.8281 220.156 64.4531 219.797 64L221.285 62.0078C221.676 62.4609 222.129 62.8125 222.645 63.0625C223.16 63.3203 223.73 63.4492 224.355 63.4492C224.965 63.4492 225.48 63.3359 225.902 63.1094C226.324 62.8906 226.648 62.5664 226.875 62.1367C227.102 61.7148 227.215 61.2031 227.215 60.6016V51.25L227.543 48.3203ZM219.012 54.8125V54.5664C219.012 53.5977 219.129 52.7188 219.363 51.9297C219.605 51.1328 219.945 50.4492 220.383 49.8789C220.828 49.3086 221.367 48.8672 222 48.5547C222.633 48.2422 223.348 48.0859 224.145 48.0859C224.988 48.0859 225.695 48.2422 226.266 48.5547C226.836 48.8672 227.305 49.3125 227.672 49.8906C228.039 50.4609 228.324 51.1367 228.527 51.918C228.738 52.6914 228.902 53.5391 229.02 54.4609V55C228.902 55.8828 228.727 56.7031 228.492 57.4609C228.258 58.2188 227.949 58.8828 227.566 59.4531C227.184 60.0156 226.707 60.4531 226.137 60.7656C225.574 61.0781 224.902 61.2344 224.121 61.2344C223.34 61.2344 222.633 61.0742 222 60.7539C221.375 60.4336 220.84 59.9844 220.395 59.4062C219.949 58.8281 219.605 58.1484 219.363 57.3672C219.129 56.5859 219.012 55.7344 219.012 54.8125ZM222.387 54.5664V54.8125C222.387 55.3359 222.438 55.8242 222.539 56.2773C222.641 56.7305 222.797 57.1328 223.008 57.4844C223.227 57.8281 223.496 58.0977 223.816 58.293C224.145 58.4805 224.531 58.5742 224.977 58.5742C225.594 58.5742 226.098 58.4453 226.488 58.1875C226.879 57.9219 227.172 57.5586 227.367 57.0977C227.562 56.6367 227.676 56.1055 227.707 55.5039V53.9688C227.691 53.4766 227.625 53.0352 227.508 52.6445C227.391 52.2461 227.227 51.9062 227.016 51.625C226.805 51.3438 226.531 51.125 226.195 50.9688C225.859 50.8125 225.461 50.7344 225 50.7344C224.555 50.7344 224.168 50.8359 223.84 51.0391C223.52 51.2344 223.25 51.5039 223.031 51.8477C222.82 52.1914 222.66 52.5977 222.551 53.0664C222.441 53.5273 222.387 54.0273 222.387 54.5664ZM239.062 61.2344C238.078 61.2344 237.195 61.0781 236.414 60.7656C235.633 60.4453 234.969 60.0039 234.422 59.4414C233.883 58.8789 233.469 58.2266 233.18 57.4844C232.891 56.7344 232.746 55.9375 232.746 55.0938V54.625C232.746 53.6641 232.883 52.7852 233.156 51.9883C233.43 51.1914 233.82 50.5 234.328 49.9141C234.844 49.3281 235.469 48.8789 236.203 48.5664C236.938 48.2461 237.766 48.0859 238.688 48.0859C239.586 48.0859 240.383 48.2344 241.078 48.5312C241.773 48.8281 242.355 49.25 242.824 49.7969C243.301 50.3438 243.66 51 243.902 51.7656C244.145 52.5234 244.266 53.3672 244.266 54.2969V55.7031H234.188V53.4531H240.949V53.1953C240.949 52.7266 240.863 52.3086 240.691 51.9414C240.527 51.5664 240.277 51.2695 239.941 51.0508C239.605 50.832 239.176 50.7227 238.652 50.7227C238.207 50.7227 237.824 50.8203 237.504 51.0156C237.184 51.2109 236.922 51.4844 236.719 51.8359C236.523 52.1875 236.375 52.6016 236.273 53.0781C236.18 53.5469 236.133 54.0625 236.133 54.625V55.0938C236.133 55.6016 236.203 56.0703 236.344 56.5C236.492 56.9297 236.699 57.3008 236.965 57.6133C237.238 57.9258 237.566 58.168 237.949 58.3398C238.34 58.5117 238.781 58.5977 239.273 58.5977C239.883 58.5977 240.449 58.4805 240.973 58.2461C241.504 58.0039 241.961 57.6406 242.344 57.1562L243.984 58.9375C243.719 59.3203 243.355 59.6875 242.895 60.0391C242.441 60.3906 241.895 60.6797 241.254 60.9062C240.613 61.125 239.883 61.2344 239.062 61.2344ZM253.336 46.8555L248.695 61H244.957L251.297 43.9375H253.676L253.336 46.8555ZM257.191 61L252.539 46.8555L252.164 43.9375H254.566L260.941 61H257.191ZM256.98 54.6484V57.4023H247.969V54.6484H256.98ZM266.262 43.9375V61H262.758V43.9375H266.262Z" fill="#888888"/>
<path d="M114.117 84.875H122.344V107.164C122.344 109.82 121.789 112.07 120.68 113.914C119.57 115.742 118.016 117.125 116.016 118.062C114.016 119 111.664 119.469 108.961 119.469C106.289 119.469 103.938 119 101.906 118.062C99.8906 117.125 98.3125 115.742 97.1719 113.914C96.0469 112.07 95.4844 109.82 95.4844 107.164V84.875H103.734V107.164C103.734 108.57 103.938 109.719 104.344 110.609C104.75 111.484 105.344 112.125 106.125 112.531C106.906 112.938 107.852 113.141 108.961 113.141C110.086 113.141 111.031 112.938 111.797 112.531C112.562 112.125 113.141 111.484 113.531 110.609C113.922 109.719 114.117 108.57 114.117 107.164V84.875ZM134.906 99.0547V119H127.008V93.6406H134.414L134.906 99.0547ZM133.969 105.453L132.117 105.5C132.117 103.562 132.352 101.836 132.82 100.32C133.289 98.7891 133.953 97.4922 134.812 96.4297C135.672 95.3672 136.695 94.5625 137.883 94.0156C139.086 93.4531 140.422 93.1719 141.891 93.1719C143.062 93.1719 144.133 93.3438 145.102 93.6875C146.086 94.0312 146.93 94.5859 147.633 95.3516C148.352 96.1172 148.898 97.1328 149.273 98.3984C149.664 99.6484 149.859 101.195 149.859 103.039V119H141.914V103.016C141.914 102 141.773 101.227 141.492 100.695C141.211 100.148 140.805 99.7734 140.273 99.5703C139.742 99.3672 139.094 99.2656 138.328 99.2656C137.516 99.2656 136.828 99.4219 136.266 99.7344C135.703 100.047 135.25 100.484 134.906 101.047C134.578 101.594 134.336 102.242 134.18 102.992C134.039 103.742 133.969 104.562 133.969 105.453ZM162.586 93.6406V119H154.664V93.6406H162.586ZM154.195 87.1016C154.195 85.9766 154.602 85.0547 155.414 84.3359C156.227 83.6172 157.281 83.2578 158.578 83.2578C159.875 83.2578 160.93 83.6172 161.742 84.3359C162.555 85.0547 162.961 85.9766 162.961 87.1016C162.961 88.2266 162.555 89.1484 161.742 89.8672C160.93 90.5859 159.875 90.9453 158.578 90.9453C157.281 90.9453 156.227 90.5859 155.414 89.8672C154.602 89.1484 154.195 88.2266 154.195 87.1016ZM180.82 93.6406V99.125H165.539V93.6406H180.82ZM168.75 87.3359H176.648V110.727C176.648 111.398 176.727 111.922 176.883 112.297C177.039 112.656 177.305 112.914 177.68 113.07C178.07 113.211 178.586 113.281 179.227 113.281C179.68 113.281 180.055 113.273 180.352 113.258C180.648 113.227 180.93 113.188 181.195 113.141V118.789C180.523 119.008 179.82 119.172 179.086 119.281C178.352 119.406 177.57 119.469 176.742 119.469C175.055 119.469 173.609 119.203 172.406 118.672C171.219 118.141 170.312 117.305 169.688 116.164C169.062 115.023 168.75 113.539 168.75 111.711V87.3359ZM211.406 84.875V119H203.18V84.875H211.406ZM221.672 84.875V91.2266H193.148V84.875H221.672ZM234.961 119.469C232.898 119.469 231.055 119.148 229.43 118.508C227.805 117.852 226.43 116.953 225.305 115.812C224.195 114.672 223.344 113.359 222.75 111.875C222.172 110.391 221.883 108.82 221.883 107.164V106.273C221.883 104.414 222.141 102.695 222.656 101.117C223.172 99.5234 223.938 98.1328 224.953 96.9453C225.969 95.7578 227.242 94.8359 228.773 94.1797C230.305 93.5078 232.086 93.1719 234.117 93.1719C235.914 93.1719 237.523 93.4609 238.945 94.0391C240.367 94.6172 241.57 95.4453 242.555 96.5234C243.555 97.6016 244.312 98.9062 244.828 100.438C245.359 101.969 245.625 103.688 245.625 105.594V108.805H224.906V103.859H237.914V103.25C237.93 102.406 237.781 101.688 237.469 101.094C237.172 100.5 236.734 100.047 236.156 99.7344C235.578 99.4219 234.875 99.2656 234.047 99.2656C233.188 99.2656 232.477 99.4531 231.914 99.8281C231.367 100.203 230.938 100.719 230.625 101.375C230.328 102.016 230.117 102.758 229.992 103.602C229.867 104.445 229.805 105.336 229.805 106.273V107.164C229.805 108.102 229.93 108.953 230.18 109.719C230.445 110.484 230.82 111.141 231.305 111.688C231.805 112.219 232.398 112.633 233.086 112.93C233.789 113.227 234.586 113.375 235.477 113.375C236.555 113.375 237.617 113.172 238.664 112.766C239.711 112.359 240.609 111.688 241.359 110.75L244.945 115.016C244.43 115.75 243.695 116.461 242.742 117.148C241.805 117.836 240.68 118.398 239.367 118.836C238.055 119.258 236.586 119.469 234.961 119.469ZM262.125 111.875C262.125 111.438 261.977 111.062 261.68 110.75C261.398 110.422 260.898 110.125 260.18 109.859C259.461 109.578 258.453 109.297 257.156 109.016C255.922 108.75 254.758 108.398 253.664 107.961C252.586 107.523 251.641 106.992 250.828 106.367C250.016 105.742 249.375 105 248.906 104.141C248.453 103.281 248.227 102.297 248.227 101.188C248.227 100.109 248.453 99.0938 248.906 98.1406C249.375 97.1719 250.055 96.3203 250.945 95.5859C251.852 94.8359 252.953 94.25 254.25 93.8281C255.547 93.3906 257.023 93.1719 258.68 93.1719C260.961 93.1719 262.93 93.5234 264.586 94.2266C266.242 94.9141 267.516 95.8828 268.406 97.1328C269.312 98.3672 269.766 99.7969 269.766 101.422H261.867C261.867 100.781 261.758 100.234 261.539 99.7812C261.336 99.3281 261 98.9844 260.531 98.75C260.062 98.5 259.438 98.375 258.656 98.375C258.109 98.375 257.609 98.4766 257.156 98.6797C256.719 98.8828 256.367 99.1641 256.102 99.5234C255.836 99.8828 255.703 100.305 255.703 100.789C255.703 101.133 255.781 101.445 255.938 101.727C256.109 101.992 256.367 102.242 256.711 102.477C257.055 102.695 257.492 102.898 258.023 103.086C258.555 103.258 259.195 103.414 259.945 103.555C261.648 103.867 263.242 104.312 264.727 104.891C266.211 105.469 267.414 106.289 268.336 107.352C269.273 108.414 269.742 109.844 269.742 111.641C269.742 112.766 269.484 113.805 268.969 114.758C268.453 115.695 267.711 116.523 266.742 117.242C265.773 117.945 264.609 118.492 263.25 118.883C261.891 119.273 260.359 119.469 258.656 119.469C256.234 119.469 254.188 119.039 252.516 118.18C250.844 117.305 249.578 116.211 248.719 114.898C247.875 113.57 247.453 112.227 247.453 110.867H254.812C254.844 111.648 255.031 112.289 255.375 112.789C255.734 113.289 256.211 113.656 256.805 113.891C257.398 114.125 258.086 114.242 258.867 114.242C259.586 114.242 260.18 114.141 260.648 113.938C261.133 113.734 261.5 113.461 261.75 113.117C262 112.758 262.125 112.344 262.125 111.875ZM286.805 93.6406V99.125H271.523V93.6406H286.805ZM274.734 87.3359H282.633V110.727C282.633 111.398 282.711 111.922 282.867 112.297C283.023 112.656 283.289 112.914 283.664 113.07C284.055 113.211 284.57 113.281 285.211 113.281C285.664 113.281 286.039 113.273 286.336 113.258C286.633 113.227 286.914 113.188 287.18 113.141V118.789C286.508 119.008 285.805 119.172 285.07 119.281C284.336 119.406 283.555 119.469 282.727 119.469C281.039 119.469 279.594 119.203 278.391 118.672C277.203 118.141 276.297 117.305 275.672 116.164C275.047 115.023 274.734 113.539 274.734 111.711V87.3359ZM298.289 93.6406V119H290.367V93.6406H298.289ZM289.898 87.1016C289.898 85.9766 290.305 85.0547 291.117 84.3359C291.93 83.6172 292.984 83.2578 294.281 83.2578C295.578 83.2578 296.633 83.6172 297.445 84.3359C298.258 85.0547 298.664 85.9766 298.664 87.1016C298.664 88.2266 298.258 89.1484 297.445 89.8672C296.633 90.5859 295.578 90.9453 294.281 90.9453C292.984 90.9453 291.93 90.5859 291.117 89.8672C290.305 89.1484 289.898 88.2266 289.898 87.1016ZM310.922 99.0547V119H303.023V93.6406H310.43L310.922 99.0547ZM309.984 105.453L308.133 105.5C308.133 103.562 308.367 101.836 308.836 100.32C309.305 98.7891 309.969 97.4922 310.828 96.4297C311.688 95.3672 312.711 94.5625 313.898 94.0156C315.102 93.4531 316.438 93.1719 317.906 93.1719C319.078 93.1719 320.148 93.3438 321.117 93.6875C322.102 94.0312 322.945 94.5859 323.648 95.3516C324.367 96.1172 324.914 97.1328 325.289 98.3984C325.68 99.6484 325.875 101.195 325.875 103.039V119H317.93V103.016C317.93 102 317.789 101.227 317.508 100.695C317.227 100.148 316.82 99.7734 316.289 99.5703C315.758 99.3672 315.109 99.2656 314.344 99.2656C313.531 99.2656 312.844 99.4219 312.281 99.7344C311.719 100.047 311.266 100.484 310.922 101.047C310.594 101.594 310.352 102.242 310.195 102.992C310.055 103.742 309.984 104.562 309.984 105.453ZM346.195 93.6406H353.367V118.016C353.367 120.359 352.828 122.344 351.75 123.969C350.672 125.609 349.164 126.852 347.227 127.695C345.305 128.555 343.055 128.984 340.477 128.984C339.336 128.984 338.172 128.836 336.984 128.539C335.797 128.258 334.688 127.836 333.656 127.273C332.625 126.711 331.758 126.016 331.055 125.188L334.359 120.547C335 121.266 335.805 121.875 336.773 122.375C337.742 122.891 338.883 123.148 340.195 123.148C341.336 123.148 342.289 122.945 343.055 122.539C343.836 122.133 344.43 121.539 344.836 120.758C345.242 119.992 345.445 119.062 345.445 117.969V99.6406L346.195 93.6406ZM329.344 106.625V106.133C329.344 104.211 329.578 102.461 330.047 100.883C330.531 99.2891 331.219 97.9219 332.109 96.7812C333.016 95.625 334.109 94.7344 335.391 94.1094C336.672 93.4844 338.117 93.1719 339.727 93.1719C341.461 93.1719 342.883 93.5078 343.992 94.1797C345.117 94.8359 346.016 95.7578 346.688 96.9453C347.375 98.1328 347.906 99.5234 348.281 101.117C348.672 102.695 349 104.398 349.266 106.227V106.812C349 108.531 348.633 110.156 348.164 111.688C347.711 113.203 347.117 114.547 346.383 115.719C345.648 116.891 344.727 117.812 343.617 118.484C342.523 119.141 341.211 119.469 339.68 119.469C338.086 119.469 336.648 119.148 335.367 118.508C334.102 117.867 333.016 116.969 332.109 115.812C331.219 114.656 330.531 113.297 330.047 111.734C329.578 110.172 329.344 108.469 329.344 106.625ZM337.242 106.133V106.625C337.242 107.578 337.328 108.461 337.5 109.273C337.688 110.086 337.969 110.805 338.344 111.43C338.719 112.039 339.18 112.516 339.727 112.859C340.289 113.203 340.945 113.375 341.695 113.375C342.836 113.375 343.758 113.133 344.461 112.648C345.164 112.164 345.672 111.477 345.984 110.586C346.297 109.695 346.43 108.648 346.383 107.445V105.594C346.414 104.562 346.344 103.656 346.172 102.875C346 102.078 345.727 101.414 345.352 100.883C344.992 100.352 344.508 99.9531 343.898 99.6875C343.305 99.4062 342.586 99.2656 341.742 99.2656C341.008 99.2656 340.359 99.4375 339.797 99.7812C339.234 100.125 338.766 100.609 338.391 101.234C338.016 101.844 337.727 102.57 337.523 103.414C337.336 104.242 337.242 105.148 337.242 106.133Z" fill="black"/>
<path d="M1134 0H1348C1356.28 0 1363 6.71573 1363 15V148C1363 156.284 1356.28 163 1348 163H1134V0Z" fill="#2C3E50"/>
<path d="M1210.62 43.625H1286.38V119.375H1210.62V43.625Z" fill="white" fill-opacity="0.01"/>
<path d="M1276.91 72.0312V105.172C1276.91 107.787 1274.79 109.906 1272.17 109.906H1224.83C1222.21 109.906 1220.09 107.787 1220.09 105.172V57.8281C1220.09 55.2134 1222.21 53.0938 1224.83 53.0938H1261.12" stroke="white" stroke-width="7.24" stroke-linecap="round" stroke-linejoin="round"/>
<path d="M1232.72 75.1875L1248.5 87.8125L1276.91 53.0938" stroke="white" stroke-width="7.24" stroke-linecap="round" stroke-linejoin="round"/>
</svg>
