<svg width="1363" height="163" viewBox="0 0 1363 163" fill="none" xmlns="http://www.w3.org/2000/svg">
<path d="M0 15C0 6.71573 6.71573 0 15 0H37V163H15C6.71573 163 0 156.284 0 148V15Z" fill="#424242"/>
<rect width="1097" height="163" transform="translate(37)" fill="#F0F0F0"/>
<path d="M101.906 53.9219L94.3945 51.2383V48.0859L104.602 52.375V54.6367L101.906 53.9219ZM94.3945 56.1719L101.918 53.4297L104.602 52.7852V55.0352L94.3945 59.3242V56.1719ZM122.789 55.3398H126.293C126.223 56.4883 125.906 57.5078 125.344 58.3984C124.789 59.2891 124.012 59.9844 123.012 60.4844C122.02 60.9844 120.824 61.2344 119.426 61.2344C118.332 61.2344 117.352 61.0469 116.484 60.6719C115.617 60.2891 114.875 59.7422 114.258 59.0312C113.648 58.3203 113.184 57.4609 112.863 56.4531C112.543 55.4453 112.383 54.3164 112.383 53.0664V51.8828C112.383 50.6328 112.547 49.5039 112.875 48.4961C113.211 47.4805 113.688 46.6172 114.305 45.9062C114.93 45.1953 115.676 44.6484 116.543 44.2656C117.41 43.8828 118.379 43.6914 119.449 43.6914C120.871 43.6914 122.07 43.9492 123.047 44.4648C124.031 44.9805 124.793 45.6914 125.332 46.5977C125.879 47.5039 126.207 48.5352 126.316 49.6914H122.801C122.762 49.0039 122.625 48.4219 122.391 47.9453C122.156 47.4609 121.801 47.0977 121.324 46.8555C120.855 46.6055 120.23 46.4805 119.449 46.4805C118.863 46.4805 118.352 46.5898 117.914 46.8086C117.477 47.0273 117.109 47.3594 116.812 47.8047C116.516 48.25 116.293 48.8125 116.145 49.4922C116.004 50.1641 115.934 50.9531 115.934 51.8594V53.0664C115.934 53.9492 116 54.7266 116.133 55.3984C116.266 56.0625 116.469 56.625 116.742 57.0859C117.023 57.5391 117.383 57.8828 117.82 58.1172C118.266 58.3438 118.801 58.457 119.426 58.457C120.16 58.457 120.766 58.3398 121.242 58.1055C121.719 57.8711 122.082 57.5234 122.332 57.0625C122.59 56.6016 122.742 56.0273 122.789 55.3398ZM135.234 58.1406V52.4922C135.234 52.0859 135.168 51.7383 135.035 51.4492C134.902 51.1523 134.695 50.9219 134.414 50.7578C134.141 50.5938 133.785 50.5117 133.348 50.5117C132.973 50.5117 132.648 50.5781 132.375 50.7109C132.102 50.8359 131.891 51.0195 131.742 51.2617C131.594 51.4961 131.52 51.7734 131.52 52.0938H128.145C128.145 51.5547 128.27 51.043 128.52 50.5586C128.77 50.0742 129.133 49.6484 129.609 49.2812C130.086 48.9062 130.652 48.6133 131.309 48.4023C131.973 48.1914 132.715 48.0859 133.535 48.0859C134.52 48.0859 135.395 48.25 136.16 48.5781C136.926 48.9062 137.527 49.3984 137.965 50.0547C138.41 50.7109 138.633 51.5312 138.633 52.5156V57.9414C138.633 58.6367 138.676 59.207 138.762 59.6523C138.848 60.0898 138.973 60.4727 139.137 60.8008V61H135.727C135.562 60.6562 135.438 60.2266 135.352 59.7109C135.273 59.1875 135.234 58.6641 135.234 58.1406ZM135.68 53.2773L135.703 55.1875H133.816C133.371 55.1875 132.984 55.2383 132.656 55.3398C132.328 55.4414 132.059 55.5859 131.848 55.7734C131.637 55.9531 131.48 56.1641 131.379 56.4062C131.285 56.6484 131.238 56.9141 131.238 57.2031C131.238 57.4922 131.305 57.7539 131.438 57.9883C131.57 58.2148 131.762 58.3945 132.012 58.5273C132.262 58.6523 132.555 58.7148 132.891 58.7148C133.398 58.7148 133.84 58.6133 134.215 58.4102C134.59 58.207 134.879 57.957 135.082 57.6602C135.293 57.3633 135.402 57.082 135.41 56.8164L136.301 58.2461C136.176 58.5664 136.004 58.8984 135.785 59.2422C135.574 59.5859 135.305 59.9102 134.977 60.2148C134.648 60.5117 134.254 60.7578 133.793 60.9531C133.332 61.1406 132.785 61.2344 132.152 61.2344C131.348 61.2344 130.617 61.0742 129.961 60.7539C129.312 60.4258 128.797 59.9766 128.414 59.4062C128.039 58.8281 127.852 58.1719 127.852 57.4375C127.852 56.7734 127.977 56.1836 128.227 55.668C128.477 55.1523 128.844 54.7188 129.328 54.3672C129.82 54.0078 130.434 53.7383 131.168 53.5586C131.902 53.3711 132.754 53.2773 133.723 53.2773H135.68ZM144.609 51.0859V61H141.234V48.3203H144.41L144.609 51.0859ZM148.43 48.2383L148.371 51.3672C148.207 51.3438 148.008 51.3242 147.773 51.3086C147.547 51.2852 147.34 51.2734 147.152 51.2734C146.676 51.2734 146.262 51.3359 145.91 51.4609C145.566 51.5781 145.277 51.7539 145.043 51.9883C144.816 52.2227 144.645 52.5078 144.527 52.8438C144.418 53.1797 144.355 53.5625 144.34 53.9922L143.66 53.7812C143.66 52.9609 143.742 52.207 143.906 51.5195C144.07 50.8242 144.309 50.2188 144.621 49.7031C144.941 49.1875 145.332 48.7891 145.793 48.5078C146.254 48.2266 146.781 48.0859 147.375 48.0859C147.562 48.0859 147.754 48.1016 147.949 48.1328C148.145 48.1562 148.305 48.1914 148.43 48.2383ZM155.625 61.2344C154.641 61.2344 153.758 61.0781 152.977 60.7656C152.195 60.4453 151.531 60.0039 150.984 59.4414C150.445 58.8789 150.031 58.2266 149.742 57.4844C149.453 56.7344 149.309 55.9375 149.309 55.0938V54.625C149.309 53.6641 149.445 52.7852 149.719 51.9883C149.992 51.1914 150.383 50.5 150.891 49.9141C151.406 49.3281 152.031 48.8789 152.766 48.5664C153.5 48.2461 154.328 48.0859 155.25 48.0859C156.148 48.0859 156.945 48.2344 157.641 48.5312C158.336 48.8281 158.918 49.25 159.387 49.7969C159.863 50.3438 160.223 51 160.465 51.7656C160.707 52.5234 160.828 53.3672 160.828 54.2969V55.7031H150.75V53.4531H157.512V53.1953C157.512 52.7266 157.426 52.3086 157.254 51.9414C157.09 51.5664 156.84 51.2695 156.504 51.0508C156.168 50.832 155.738 50.7227 155.215 50.7227C154.77 50.7227 154.387 50.8203 154.066 51.0156C153.746 51.2109 153.484 51.4844 153.281 51.8359C153.086 52.1875 152.938 52.6016 152.836 53.0781C152.742 53.5469 152.695 54.0625 152.695 54.625V55.0938C152.695 55.6016 152.766 56.0703 152.906 56.5C153.055 56.9297 153.262 57.3008 153.527 57.6133C153.801 57.9258 154.129 58.168 154.512 58.3398C154.902 58.5117 155.344 58.5977 155.836 58.5977C156.445 58.5977 157.012 58.4805 157.535 58.2461C158.066 58.0039 158.523 57.6406 158.906 57.1562L160.547 58.9375C160.281 59.3203 159.918 59.6875 159.457 60.0391C159.004 60.3906 158.457 60.6797 157.816 60.9062C157.176 61.125 156.445 61.2344 155.625 61.2344ZM168.586 61.2344C167.602 61.2344 166.719 61.0781 165.938 60.7656C165.156 60.4453 164.492 60.0039 163.945 59.4414C163.406 58.8789 162.992 58.2266 162.703 57.4844C162.414 56.7344 162.27 55.9375 162.27 55.0938V54.625C162.27 53.6641 162.406 52.7852 162.68 51.9883C162.953 51.1914 163.344 50.5 163.852 49.9141C164.367 49.3281 164.992 48.8789 165.727 48.5664C166.461 48.2461 167.289 48.0859 168.211 48.0859C169.109 48.0859 169.906 48.2344 170.602 48.5312C171.297 48.8281 171.879 49.25 172.348 49.7969C172.824 50.3438 173.184 51 173.426 51.7656C173.668 52.5234 173.789 53.3672 173.789 54.2969V55.7031H163.711V53.4531H170.473V53.1953C170.473 52.7266 170.387 52.3086 170.215 51.9414C170.051 51.5664 169.801 51.2695 169.465 51.0508C169.129 50.832 168.699 50.7227 168.176 50.7227C167.73 50.7227 167.348 50.8203 167.027 51.0156C166.707 51.2109 166.445 51.4844 166.242 51.8359C166.047 52.1875 165.898 52.6016 165.797 53.0781C165.703 53.5469 165.656 54.0625 165.656 54.625V55.0938C165.656 55.6016 165.727 56.0703 165.867 56.5C166.016 56.9297 166.223 57.3008 166.488 57.6133C166.762 57.9258 167.09 58.168 167.473 58.3398C167.863 58.5117 168.305 58.5977 168.797 58.5977C169.406 58.5977 169.973 58.4805 170.496 58.2461C171.027 58.0039 171.484 57.6406 171.867 57.1562L173.508 58.9375C173.242 59.3203 172.879 59.6875 172.418 60.0391C171.965 60.3906 171.418 60.6797 170.777 60.9062C170.137 61.125 169.406 61.2344 168.586 61.2344ZM179.086 51.0859V61H175.711V48.3203H178.887L179.086 51.0859ZM182.906 48.2383L182.848 51.3672C182.684 51.3438 182.484 51.3242 182.25 51.3086C182.023 51.2852 181.816 51.2734 181.629 51.2734C181.152 51.2734 180.738 51.3359 180.387 51.4609C180.043 51.5781 179.754 51.7539 179.52 51.9883C179.293 52.2227 179.121 52.5078 179.004 52.8438C178.895 53.1797 178.832 53.5625 178.816 53.9922L178.137 53.7812C178.137 52.9609 178.219 52.207 178.383 51.5195C178.547 50.8242 178.785 50.2188 179.098 49.7031C179.418 49.1875 179.809 48.7891 180.27 48.5078C180.73 48.2266 181.258 48.0859 181.852 48.0859C182.039 48.0859 182.23 48.1016 182.426 48.1328C182.621 48.1562 182.781 48.1914 182.906 48.2383ZM188.227 43.9375V61H184.711V43.9375H188.227ZM195.023 51.2266V53.9688H187.266V51.2266H195.023ZM195.844 43.9375V46.6914H187.266V43.9375H195.844ZM196.875 54.7891V54.543C196.875 53.6133 197.008 52.7578 197.273 51.9766C197.539 51.1875 197.926 50.5039 198.434 49.9258C198.941 49.3477 199.566 48.8984 200.309 48.5781C201.051 48.25 201.902 48.0859 202.863 48.0859C203.824 48.0859 204.68 48.25 205.43 48.5781C206.18 48.8984 206.809 49.3477 207.316 49.9258C207.832 50.5039 208.223 51.1875 208.488 51.9766C208.754 52.7578 208.887 53.6133 208.887 54.543V54.7891C208.887 55.7109 208.754 56.5664 208.488 57.3555C208.223 58.1367 207.832 58.8203 207.316 59.4062C206.809 59.9844 206.184 60.4336 205.441 60.7539C204.699 61.0742 203.848 61.2344 202.887 61.2344C201.926 61.2344 201.07 61.0742 200.32 60.7539C199.578 60.4336 198.949 59.9844 198.434 59.4062C197.926 58.8203 197.539 58.1367 197.273 57.3555C197.008 56.5664 196.875 55.7109 196.875 54.7891ZM200.25 54.543V54.7891C200.25 55.3203 200.297 55.8164 200.391 56.2773C200.484 56.7383 200.633 57.1445 200.836 57.4961C201.047 57.8398 201.32 58.1094 201.656 58.3047C201.992 58.5 202.402 58.5977 202.887 58.5977C203.355 58.5977 203.758 58.5 204.094 58.3047C204.43 58.1094 204.699 57.8398 204.902 57.4961C205.105 57.1445 205.254 56.7383 205.348 56.2773C205.449 55.8164 205.5 55.3203 205.5 54.7891V54.543C205.5 54.0273 205.449 53.543 205.348 53.0898C205.254 52.6289 205.102 52.2227 204.891 51.8711C204.688 51.5117 204.418 51.2305 204.082 51.0273C203.746 50.8242 203.34 50.7227 202.863 50.7227C202.387 50.7227 201.98 50.8242 201.645 51.0273C201.316 51.2305 201.047 51.5117 200.836 51.8711C200.633 52.2227 200.484 52.6289 200.391 53.0898C200.297 53.543 200.25 54.0273 200.25 54.543ZM214.336 51.0859V61H210.961V48.3203H214.137L214.336 51.0859ZM218.156 48.2383L218.098 51.3672C217.934 51.3438 217.734 51.3242 217.5 51.3086C217.273 51.2852 217.066 51.2734 216.879 51.2734C216.402 51.2734 215.988 51.3359 215.637 51.4609C215.293 51.5781 215.004 51.7539 214.77 51.9883C214.543 52.2227 214.371 52.5078 214.254 52.8438C214.145 53.1797 214.082 53.5625 214.066 53.9922L213.387 53.7812C213.387 52.9609 213.469 52.207 213.633 51.5195C213.797 50.8242 214.035 50.2188 214.348 49.7031C214.668 49.1875 215.059 48.7891 215.52 48.5078C215.98 48.2266 216.508 48.0859 217.102 48.0859C217.289 48.0859 217.48 48.1016 217.676 48.1328C217.871 48.1562 218.031 48.1914 218.156 48.2383ZM227.543 48.3203H230.602V60.5781C230.602 61.7344 230.344 62.7148 229.828 63.5195C229.32 64.332 228.609 64.9453 227.695 65.3594C226.781 65.7812 225.719 65.9922 224.508 65.9922C223.977 65.9922 223.414 65.9219 222.82 65.7812C222.234 65.6406 221.672 65.4219 221.133 65.125C220.602 64.8281 220.156 64.4531 219.797 64L221.285 62.0078C221.676 62.4609 222.129 62.8125 222.645 63.0625C223.16 63.3203 223.73 63.4492 224.355 63.4492C224.965 63.4492 225.48 63.3359 225.902 63.1094C226.324 62.8906 226.648 62.5664 226.875 62.1367C227.102 61.7148 227.215 61.2031 227.215 60.6016V51.25L227.543 48.3203ZM219.012 54.8125V54.5664C219.012 53.5977 219.129 52.7188 219.363 51.9297C219.605 51.1328 219.945 50.4492 220.383 49.8789C220.828 49.3086 221.367 48.8672 222 48.5547C222.633 48.2422 223.348 48.0859 224.145 48.0859C224.988 48.0859 225.695 48.2422 226.266 48.5547C226.836 48.8672 227.305 49.3125 227.672 49.8906C228.039 50.4609 228.324 51.1367 228.527 51.918C228.738 52.6914 228.902 53.5391 229.02 54.4609V55C228.902 55.8828 228.727 56.7031 228.492 57.4609C228.258 58.2188 227.949 58.8828 227.566 59.4531C227.184 60.0156 226.707 60.4531 226.137 60.7656C225.574 61.0781 224.902 61.2344 224.121 61.2344C223.34 61.2344 222.633 61.0742 222 60.7539C221.375 60.4336 220.84 59.9844 220.395 59.4062C219.949 58.8281 219.605 58.1484 219.363 57.3672C219.129 56.5859 219.012 55.7344 219.012 54.8125ZM222.387 54.5664V54.8125C222.387 55.3359 222.438 55.8242 222.539 56.2773C222.641 56.7305 222.797 57.1328 223.008 57.4844C223.227 57.8281 223.496 58.0977 223.816 58.293C224.145 58.4805 224.531 58.5742 224.977 58.5742C225.594 58.5742 226.098 58.4453 226.488 58.1875C226.879 57.9219 227.172 57.5586 227.367 57.0977C227.562 56.6367 227.676 56.1055 227.707 55.5039V53.9688C227.691 53.4766 227.625 53.0352 227.508 52.6445C227.391 52.2461 227.227 51.9062 227.016 51.625C226.805 51.3438 226.531 51.125 226.195 50.9688C225.859 50.8125 225.461 50.7344 225 50.7344C224.555 50.7344 224.168 50.8359 223.84 51.0391C223.52 51.2344 223.25 51.5039 223.031 51.8477C222.82 52.1914 222.66 52.5977 222.551 53.0664C222.441 53.5273 222.387 54.0273 222.387 54.5664ZM239.062 61.2344C238.078 61.2344 237.195 61.0781 236.414 60.7656C235.633 60.4453 234.969 60.0039 234.422 59.4414C233.883 58.8789 233.469 58.2266 233.18 57.4844C232.891 56.7344 232.746 55.9375 232.746 55.0938V54.625C232.746 53.6641 232.883 52.7852 233.156 51.9883C233.43 51.1914 233.82 50.5 234.328 49.9141C234.844 49.3281 235.469 48.8789 236.203 48.5664C236.938 48.2461 237.766 48.0859 238.688 48.0859C239.586 48.0859 240.383 48.2344 241.078 48.5312C241.773 48.8281 242.355 49.25 242.824 49.7969C243.301 50.3438 243.66 51 243.902 51.7656C244.145 52.5234 244.266 53.3672 244.266 54.2969V55.7031H234.188V53.4531H240.949V53.1953C240.949 52.7266 240.863 52.3086 240.691 51.9414C240.527 51.5664 240.277 51.2695 239.941 51.0508C239.605 50.832 239.176 50.7227 238.652 50.7227C238.207 50.7227 237.824 50.8203 237.504 51.0156C237.184 51.2109 236.922 51.4844 236.719 51.8359C236.523 52.1875 236.375 52.6016 236.273 53.0781C236.18 53.5469 236.133 54.0625 236.133 54.625V55.0938C236.133 55.6016 236.203 56.0703 236.344 56.5C236.492 56.9297 236.699 57.3008 236.965 57.6133C237.238 57.9258 237.566 58.168 237.949 58.3398C238.34 58.5117 238.781 58.5977 239.273 58.5977C239.883 58.5977 240.449 58.4805 240.973 58.2461C241.504 58.0039 241.961 57.6406 242.344 57.1562L243.984 58.9375C243.719 59.3203 243.355 59.6875 242.895 60.0391C242.441 60.3906 241.895 60.6797 241.254 60.9062C240.613 61.125 239.883 61.2344 239.062 61.2344ZM253.336 46.8555L248.695 61H244.957L251.297 43.9375H253.676L253.336 46.8555ZM257.191 61L252.539 46.8555L252.164 43.9375H254.566L260.941 61H257.191ZM256.98 54.6484V57.4023H247.969V54.6484H256.98ZM266.262 43.9375V61H262.758V43.9375H266.262Z" fill="#888888"/>
<path d="M110.062 92.0469L101.742 119H92.9062L105.445 84.875H111.047L110.062 92.0469ZM116.953 119L108.609 92.0469L107.531 84.875H113.203L125.812 119H116.953ZM116.625 106.273V112.625H99.1172V106.273H116.625ZM135.258 115.906L142.055 84.875H146.109L148.312 87.5234L141.07 119H136.594L135.258 115.906ZM133.453 84.875L139.195 116.141L137.719 119H132.539L125.297 84.875H133.453ZM152.039 115.977L157.734 84.875H165.867L158.625 119H153.469L152.039 115.977ZM149.039 84.875L156 116.094L154.594 119H150.117L142.711 87.4766L145.008 84.875H149.039ZM186.68 109.93C186.68 109.398 186.602 108.922 186.445 108.5C186.289 108.062 186 107.656 185.578 107.281C185.156 106.906 184.547 106.531 183.75 106.156C182.969 105.766 181.938 105.359 180.656 104.938C179.156 104.438 177.711 103.875 176.32 103.25C174.93 102.609 173.688 101.867 172.594 101.023C171.5 100.164 170.633 99.1641 169.992 98.0234C169.352 96.8672 169.031 95.5234 169.031 93.9922C169.031 92.5234 169.359 91.2031 170.016 90.0312C170.672 88.8438 171.586 87.8359 172.758 87.0078C173.945 86.1641 175.336 85.5234 176.93 85.0859C178.523 84.6328 180.266 84.4062 182.156 84.4062C184.656 84.4062 186.859 84.8438 188.766 85.7188C190.688 86.5781 192.188 87.8047 193.266 89.3984C194.359 90.9766 194.906 92.8438 194.906 95H186.727C186.727 94.1406 186.547 93.3828 186.188 92.7266C185.844 92.0703 185.32 91.5547 184.617 91.1797C183.914 90.8047 183.031 90.6172 181.969 90.6172C180.938 90.6172 180.07 90.7734 179.367 91.0859C178.664 91.3984 178.133 91.8203 177.773 92.3516C177.414 92.8672 177.234 93.4375 177.234 94.0625C177.234 94.5781 177.375 95.0469 177.656 95.4688C177.953 95.875 178.367 96.2578 178.898 96.6172C179.445 96.9766 180.102 97.3203 180.867 97.6484C181.648 97.9766 182.523 98.2969 183.492 98.6094C185.305 99.1875 186.914 99.8359 188.32 100.555C189.742 101.258 190.938 102.062 191.906 102.969C192.891 103.859 193.633 104.875 194.133 106.016C194.648 107.156 194.906 108.445 194.906 109.883C194.906 111.414 194.609 112.773 194.016 113.961C193.422 115.148 192.57 116.156 191.461 116.984C190.352 117.797 189.023 118.414 187.477 118.836C185.93 119.258 184.203 119.469 182.297 119.469C180.547 119.469 178.82 119.25 177.117 118.812C175.43 118.359 173.898 117.672 172.523 116.75C171.148 115.812 170.047 114.617 169.219 113.164C168.406 111.695 168 109.953 168 107.938H176.25C176.25 108.938 176.383 109.781 176.648 110.469C176.914 111.156 177.305 111.711 177.82 112.133C178.336 112.539 178.969 112.836 179.719 113.023C180.469 113.195 181.328 113.281 182.297 113.281C183.344 113.281 184.188 113.133 184.828 112.836C185.469 112.523 185.938 112.117 186.234 111.617C186.531 111.102 186.68 110.539 186.68 109.93ZM222.188 119H214.617L214.664 112.672H222.188C223.75 112.672 225.07 112.297 226.148 111.547C227.242 110.797 228.07 109.68 228.633 108.195C229.211 106.695 229.5 104.852 229.5 102.664V101.188C229.5 99.5469 229.336 98.1094 229.008 96.875C228.695 95.625 228.227 94.5859 227.602 93.7578C226.977 92.9141 226.195 92.2812 225.258 91.8594C224.336 91.4375 223.273 91.2266 222.07 91.2266H214.477V84.875H222.07C224.383 84.875 226.5 85.2734 228.422 86.0703C230.359 86.8516 232.031 87.9766 233.438 89.4453C234.859 90.8984 235.953 92.625 236.719 94.625C237.5 96.6094 237.891 98.8125 237.891 101.234V102.664C237.891 105.07 237.5 107.273 236.719 109.273C235.953 111.273 234.867 113 233.461 114.453C232.055 115.906 230.391 117.031 228.469 117.828C226.562 118.609 224.469 119 222.188 119ZM219.328 84.875V119H211.102V84.875H219.328ZM254.086 119.469C252.023 119.469 250.18 119.148 248.555 118.508C246.93 117.852 245.555 116.953 244.43 115.812C243.32 114.672 242.469 113.359 241.875 111.875C241.297 110.391 241.008 108.82 241.008 107.164V106.273C241.008 104.414 241.266 102.695 241.781 101.117C242.297 99.5234 243.062 98.1328 244.078 96.9453C245.094 95.7578 246.367 94.8359 247.898 94.1797C249.43 93.5078 251.211 93.1719 253.242 93.1719C255.039 93.1719 256.648 93.4609 258.07 94.0391C259.492 94.6172 260.695 95.4453 261.68 96.5234C262.68 97.6016 263.438 98.9062 263.953 100.438C264.484 101.969 264.75 103.688 264.75 105.594V108.805H244.031V103.859H257.039V103.25C257.055 102.406 256.906 101.688 256.594 101.094C256.297 100.5 255.859 100.047 255.281 99.7344C254.703 99.4219 254 99.2656 253.172 99.2656C252.312 99.2656 251.602 99.4531 251.039 99.8281C250.492 100.203 250.062 100.719 249.75 101.375C249.453 102.016 249.242 102.758 249.117 103.602C248.992 104.445 248.93 105.336 248.93 106.273V107.164C248.93 108.102 249.055 108.953 249.305 109.719C249.57 110.484 249.945 111.141 250.43 111.688C250.93 112.219 251.523 112.633 252.211 112.93C252.914 113.227 253.711 113.375 254.602 113.375C255.68 113.375 256.742 113.172 257.789 112.766C258.836 112.359 259.734 111.688 260.484 110.75L264.07 115.016C263.555 115.75 262.82 116.461 261.867 117.148C260.93 117.836 259.805 118.398 258.492 118.836C257.18 119.258 255.711 119.469 254.086 119.469ZM275.93 98.5156V128.75H268.031V93.6406H275.391L275.93 98.5156ZM291.492 106.016V106.508C291.492 108.352 291.281 110.062 290.859 111.641C290.438 113.219 289.812 114.594 288.984 115.766C288.156 116.938 287.125 117.852 285.891 118.508C284.672 119.148 283.258 119.469 281.648 119.469C280.133 119.469 278.828 119.133 277.734 118.461C276.641 117.789 275.727 116.859 274.992 115.672C274.258 114.484 273.664 113.125 273.211 111.594C272.758 110.062 272.398 108.445 272.133 106.742V106.109C272.398 104.281 272.758 102.586 273.211 101.023C273.664 99.4453 274.258 98.0703 274.992 96.8984C275.727 95.7266 276.633 94.8125 277.711 94.1562C278.805 93.5 280.109 93.1719 281.625 93.1719C283.234 93.1719 284.648 93.4766 285.867 94.0859C287.102 94.6953 288.133 95.5703 288.961 96.7109C289.805 97.8359 290.438 99.1875 290.859 100.766C291.281 102.344 291.492 104.094 291.492 106.016ZM283.594 106.508V106.016C283.594 105.031 283.523 104.133 283.383 103.32C283.242 102.492 283.016 101.773 282.703 101.164C282.406 100.555 282.008 100.086 281.508 99.7578C281.008 99.4297 280.391 99.2656 279.656 99.2656C278.812 99.2656 278.102 99.3984 277.523 99.6641C276.961 99.9141 276.508 100.305 276.164 100.836C275.836 101.352 275.602 102 275.461 102.781C275.336 103.547 275.281 104.445 275.297 105.477V107.398C275.266 108.586 275.383 109.633 275.648 110.539C275.914 111.43 276.375 112.125 277.031 112.625C277.688 113.125 278.578 113.375 279.703 113.375C280.453 113.375 281.078 113.203 281.578 112.859C282.078 112.5 282.477 112.008 282.773 111.383C283.07 110.742 283.281 110.008 283.406 109.18C283.531 108.352 283.594 107.461 283.594 106.508ZM303.352 83V119H295.43V83H303.352ZM307.242 106.578V106.086C307.242 104.227 307.508 102.516 308.039 100.953C308.57 99.375 309.352 98.0078 310.383 96.8516C311.414 95.6953 312.688 94.7969 314.203 94.1562C315.719 93.5 317.469 93.1719 319.453 93.1719C321.453 93.1719 323.211 93.5 324.727 94.1562C326.258 94.7969 327.539 95.6953 328.57 96.8516C329.602 98.0078 330.383 99.375 330.914 100.953C331.445 102.516 331.711 104.227 331.711 106.086V106.578C331.711 108.422 331.445 110.133 330.914 111.711C330.383 113.273 329.602 114.641 328.57 115.812C327.539 116.969 326.266 117.867 324.75 118.508C323.234 119.148 321.484 119.469 319.5 119.469C317.516 119.469 315.758 119.148 314.227 118.508C312.695 117.867 311.414 116.969 310.383 115.812C309.352 114.641 308.57 113.273 308.039 111.711C307.508 110.133 307.242 108.422 307.242 106.578ZM315.141 106.086V106.578C315.141 107.531 315.211 108.422 315.352 109.25C315.492 110.078 315.727 110.805 316.055 111.43C316.383 112.039 316.828 112.516 317.391 112.859C317.953 113.203 318.656 113.375 319.5 113.375C320.328 113.375 321.016 113.203 321.562 112.859C322.125 112.516 322.57 112.039 322.898 111.43C323.227 110.805 323.461 110.078 323.602 109.25C323.742 108.422 323.812 107.531 323.812 106.578V106.086C323.812 105.164 323.742 104.297 323.602 103.484C323.461 102.656 323.227 101.93 322.898 101.305C322.57 100.664 322.125 100.164 321.562 99.8047C321 99.4453 320.297 99.2656 319.453 99.2656C318.625 99.2656 317.93 99.4453 317.367 99.8047C316.82 100.164 316.383 100.664 316.055 101.305C315.727 101.93 315.492 102.656 315.352 103.484C315.211 104.297 315.141 105.164 315.141 106.086ZM342.633 116.023L349.195 93.6406H357.68L347.484 122.773C347.266 123.414 346.977 124.102 346.617 124.836C346.258 125.586 345.766 126.297 345.141 126.969C344.516 127.641 343.711 128.188 342.727 128.609C341.758 129.031 340.555 129.242 339.117 129.242C338.352 129.242 337.789 129.203 337.43 129.125C337.086 129.062 336.555 128.945 335.836 128.773V123.125C336.039 123.125 336.211 123.125 336.352 123.125C336.508 123.125 336.68 123.125 336.867 123.125C337.711 123.125 338.383 123.039 338.883 122.867C339.398 122.695 339.789 122.445 340.055 122.117C340.336 121.789 340.555 121.391 340.711 120.922L342.633 116.023ZM340.969 93.6406L345.961 111.383L346.828 119.75H341.531L332.508 93.6406H340.969ZM367.711 99.0078V119H359.812V93.6406H367.219L367.711 99.0078ZM366.75 105.453L364.945 105.5C364.945 103.719 365.156 102.078 365.578 100.578C366 99.0781 366.625 97.7734 367.453 96.6641C368.281 95.5547 369.297 94.6953 370.5 94.0859C371.719 93.4766 373.125 93.1719 374.719 93.1719C375.828 93.1719 376.836 93.3438 377.742 93.6875C378.648 94.0156 379.43 94.5391 380.086 95.2578C380.742 95.9609 381.242 96.8828 381.586 98.0234C381.945 99.1484 382.125 100.5 382.125 102.078V119H374.227V103.086C374.227 102.008 374.102 101.195 373.852 100.648C373.617 100.102 373.273 99.7344 372.82 99.5469C372.367 99.3594 371.812 99.2656 371.156 99.2656C370.469 99.2656 369.852 99.4219 369.305 99.7344C368.758 100.047 368.289 100.484 367.898 101.047C367.523 101.594 367.234 102.242 367.031 102.992C366.844 103.742 366.75 104.562 366.75 105.453ZM381.234 105.453L379.031 105.5C379.031 103.719 379.227 102.078 379.617 100.578C380.023 99.0781 380.625 97.7734 381.422 96.6641C382.234 95.5547 383.242 94.6953 384.445 94.0859C385.648 93.4766 387.047 93.1719 388.641 93.1719C389.797 93.1719 390.859 93.3438 391.828 93.6875C392.797 94.0312 393.633 94.5859 394.336 95.3516C395.039 96.1172 395.586 97.1328 395.977 98.3984C396.367 99.6484 396.562 101.195 396.562 103.039V119H388.641V103.039C388.641 101.992 388.516 101.203 388.266 100.672C388.031 100.125 387.688 99.7578 387.234 99.5703C386.781 99.3672 386.242 99.2656 385.617 99.2656C384.867 99.2656 384.219 99.4219 383.672 99.7344C383.125 100.047 382.664 100.484 382.289 101.047C381.93 101.594 381.664 102.242 381.492 102.992C381.32 103.742 381.234 104.562 381.234 105.453ZM413.367 119.469C411.305 119.469 409.461 119.148 407.836 118.508C406.211 117.852 404.836 116.953 403.711 115.812C402.602 114.672 401.75 113.359 401.156 111.875C400.578 110.391 400.289 108.82 400.289 107.164V106.273C400.289 104.414 400.547 102.695 401.062 101.117C401.578 99.5234 402.344 98.1328 403.359 96.9453C404.375 95.7578 405.648 94.8359 407.18 94.1797C408.711 93.5078 410.492 93.1719 412.523 93.1719C414.32 93.1719 415.93 93.4609 417.352 94.0391C418.773 94.6172 419.977 95.4453 420.961 96.5234C421.961 97.6016 422.719 98.9062 423.234 100.438C423.766 101.969 424.031 103.688 424.031 105.594V108.805H403.312V103.859H416.32V103.25C416.336 102.406 416.188 101.688 415.875 101.094C415.578 100.5 415.141 100.047 414.562 99.7344C413.984 99.4219 413.281 99.2656 412.453 99.2656C411.594 99.2656 410.883 99.4531 410.32 99.8281C409.773 100.203 409.344 100.719 409.031 101.375C408.734 102.016 408.523 102.758 408.398 103.602C408.273 104.445 408.211 105.336 408.211 106.273V107.164C408.211 108.102 408.336 108.953 408.586 109.719C408.852 110.484 409.227 111.141 409.711 111.688C410.211 112.219 410.805 112.633 411.492 112.93C412.195 113.227 412.992 113.375 413.883 113.375C414.961 113.375 416.023 113.172 417.07 112.766C418.117 112.359 419.016 111.688 419.766 110.75L423.352 115.016C422.836 115.75 422.102 116.461 421.148 117.148C420.211 117.836 419.086 118.398 417.773 118.836C416.461 119.258 414.992 119.469 413.367 119.469ZM435 99.0547V119H427.102V93.6406H434.508L435 99.0547ZM434.062 105.453L432.211 105.5C432.211 103.562 432.445 101.836 432.914 100.32C433.383 98.7891 434.047 97.4922 434.906 96.4297C435.766 95.3672 436.789 94.5625 437.977 94.0156C439.18 93.4531 440.516 93.1719 441.984 93.1719C443.156 93.1719 444.227 93.3438 445.195 93.6875C446.18 94.0312 447.023 94.5859 447.727 95.3516C448.445 96.1172 448.992 97.1328 449.367 98.3984C449.758 99.6484 449.953 101.195 449.953 103.039V119H442.008V103.016C442.008 102 441.867 101.227 441.586 100.695C441.305 100.148 440.898 99.7734 440.367 99.5703C439.836 99.3672 439.188 99.2656 438.422 99.2656C437.609 99.2656 436.922 99.4219 436.359 99.7344C435.797 100.047 435.344 100.484 435 101.047C434.672 101.594 434.43 102.242 434.273 102.992C434.133 103.742 434.062 104.562 434.062 105.453ZM467.695 93.6406V99.125H452.414V93.6406H467.695ZM455.625 87.3359H463.523V110.727C463.523 111.398 463.602 111.922 463.758 112.297C463.914 112.656 464.18 112.914 464.555 113.07C464.945 113.211 465.461 113.281 466.102 113.281C466.555 113.281 466.93 113.273 467.227 113.258C467.523 113.227 467.805 113.188 468.07 113.141V118.789C467.398 119.008 466.695 119.172 465.961 119.281C465.227 119.406 464.445 119.469 463.617 119.469C461.93 119.469 460.484 119.203 459.281 118.672C458.094 118.141 457.188 117.305 456.562 116.164C455.938 115.023 455.625 113.539 455.625 111.711V87.3359Z" fill="black"/>
<path d="M1134 0H1348C1356.28 0 1363 6.71573 1363 15V148C1363 156.284 1356.28 163 1348 163H1134V0Z" fill="#2C3E50"/>
<path d="M1212.5 117.5L1212.5 45.5L1284.5 45.5L1284.5 117.5L1212.5 117.5Z" fill="white" fill-opacity="0.01"/>
<path d="M1221.5 81.5125L1221.5 108.5L1275.5 108.5L1275.5 81.5" stroke="white" stroke-width="7.24" stroke-linecap="round" stroke-linejoin="round"/>
<path d="M1262 68L1248.5 54.5L1235 68" stroke="white" stroke-width="7.24" stroke-linecap="round" stroke-linejoin="round"/>
<path d="M1248.49 93.5L1248.49 54.5" stroke="white" stroke-width="7.24" stroke-linecap="round" stroke-linejoin="round"/>
</svg>
