<svg width="1363" height="163" viewBox="0 0 1363 163" fill="none" xmlns="http://www.w3.org/2000/svg">
<path d="M0 15C0 6.71573 6.71573 0 15 0H37V163H15C6.71573 163 0 156.284 0 148V15Z" fill="#424242"/>
<rect width="1097" height="163" transform="translate(37)" fill="#F0F0F0"/>
<path d="M101.906 53.9219L94.3945 51.2383V48.0859L104.602 52.375V54.6367L101.906 53.9219ZM94.3945 56.1719L101.918 53.4297L104.602 52.7852V55.0352L94.3945 59.3242V56.1719ZM122.789 55.3398H126.293C126.223 56.4883 125.906 57.5078 125.344 58.3984C124.789 59.2891 124.012 59.9844 123.012 60.4844C122.02 60.9844 120.824 61.2344 119.426 61.2344C118.332 61.2344 117.352 61.0469 116.484 60.6719C115.617 60.2891 114.875 59.7422 114.258 59.0312C113.648 58.3203 113.184 57.4609 112.863 56.4531C112.543 55.4453 112.383 54.3164 112.383 53.0664V51.8828C112.383 50.6328 112.547 49.5039 112.875 48.4961C113.211 47.4805 113.688 46.6172 114.305 45.9062C114.93 45.1953 115.676 44.6484 116.543 44.2656C117.41 43.8828 118.379 43.6914 119.449 43.6914C120.871 43.6914 122.07 43.9492 123.047 44.4648C124.031 44.9805 124.793 45.6914 125.332 46.5977C125.879 47.5039 126.207 48.5352 126.316 49.6914H122.801C122.762 49.0039 122.625 48.4219 122.391 47.9453C122.156 47.4609 121.801 47.0977 121.324 46.8555C120.855 46.6055 120.23 46.4805 119.449 46.4805C118.863 46.4805 118.352 46.5898 117.914 46.8086C117.477 47.0273 117.109 47.3594 116.812 47.8047C116.516 48.25 116.293 48.8125 116.145 49.4922C116.004 50.1641 115.934 50.9531 115.934 51.8594V53.0664C115.934 53.9492 116 54.7266 116.133 55.3984C116.266 56.0625 116.469 56.625 116.742 57.0859C117.023 57.5391 117.383 57.8828 117.82 58.1172C118.266 58.3438 118.801 58.457 119.426 58.457C120.16 58.457 120.766 58.3398 121.242 58.1055C121.719 57.8711 122.082 57.5234 122.332 57.0625C122.59 56.6016 122.742 56.0273 122.789 55.3398ZM135.234 58.1406V52.4922C135.234 52.0859 135.168 51.7383 135.035 51.4492C134.902 51.1523 134.695 50.9219 134.414 50.7578C134.141 50.5938 133.785 50.5117 133.348 50.5117C132.973 50.5117 132.648 50.5781 132.375 50.7109C132.102 50.8359 131.891 51.0195 131.742 51.2617C131.594 51.4961 131.52 51.7734 131.52 52.0938H128.145C128.145 51.5547 128.27 51.043 128.52 50.5586C128.77 50.0742 129.133 49.6484 129.609 49.2812C130.086 48.9062 130.652 48.6133 131.309 48.4023C131.973 48.1914 132.715 48.0859 133.535 48.0859C134.52 48.0859 135.395 48.25 136.16 48.5781C136.926 48.9062 137.527 49.3984 137.965 50.0547C138.41 50.7109 138.633 51.5312 138.633 52.5156V57.9414C138.633 58.6367 138.676 59.207 138.762 59.6523C138.848 60.0898 138.973 60.4727 139.137 60.8008V61H135.727C135.562 60.6562 135.438 60.2266 135.352 59.7109C135.273 59.1875 135.234 58.6641 135.234 58.1406ZM135.68 53.2773L135.703 55.1875H133.816C133.371 55.1875 132.984 55.2383 132.656 55.3398C132.328 55.4414 132.059 55.5859 131.848 55.7734C131.637 55.9531 131.48 56.1641 131.379 56.4062C131.285 56.6484 131.238 56.9141 131.238 57.2031C131.238 57.4922 131.305 57.7539 131.438 57.9883C131.57 58.2148 131.762 58.3945 132.012 58.5273C132.262 58.6523 132.555 58.7148 132.891 58.7148C133.398 58.7148 133.84 58.6133 134.215 58.4102C134.59 58.207 134.879 57.957 135.082 57.6602C135.293 57.3633 135.402 57.082 135.41 56.8164L136.301 58.2461C136.176 58.5664 136.004 58.8984 135.785 59.2422C135.574 59.5859 135.305 59.9102 134.977 60.2148C134.648 60.5117 134.254 60.7578 133.793 60.9531C133.332 61.1406 132.785 61.2344 132.152 61.2344C131.348 61.2344 130.617 61.0742 129.961 60.7539C129.312 60.4258 128.797 59.9766 128.414 59.4062C128.039 58.8281 127.852 58.1719 127.852 57.4375C127.852 56.7734 127.977 56.1836 128.227 55.668C128.477 55.1523 128.844 54.7188 129.328 54.3672C129.82 54.0078 130.434 53.7383 131.168 53.5586C131.902 53.3711 132.754 53.2773 133.723 53.2773H135.68ZM144.609 51.0859V61H141.234V48.3203H144.41L144.609 51.0859ZM148.43 48.2383L148.371 51.3672C148.207 51.3438 148.008 51.3242 147.773 51.3086C147.547 51.2852 147.34 51.2734 147.152 51.2734C146.676 51.2734 146.262 51.3359 145.91 51.4609C145.566 51.5781 145.277 51.7539 145.043 51.9883C144.816 52.2227 144.645 52.5078 144.527 52.8438C144.418 53.1797 144.355 53.5625 144.34 53.9922L143.66 53.7812C143.66 52.9609 143.742 52.207 143.906 51.5195C144.07 50.8242 144.309 50.2188 144.621 49.7031C144.941 49.1875 145.332 48.7891 145.793 48.5078C146.254 48.2266 146.781 48.0859 147.375 48.0859C147.562 48.0859 147.754 48.1016 147.949 48.1328C148.145 48.1562 148.305 48.1914 148.43 48.2383ZM155.625 61.2344C154.641 61.2344 153.758 61.0781 152.977 60.7656C152.195 60.4453 151.531 60.0039 150.984 59.4414C150.445 58.8789 150.031 58.2266 149.742 57.4844C149.453 56.7344 149.309 55.9375 149.309 55.0938V54.625C149.309 53.6641 149.445 52.7852 149.719 51.9883C149.992 51.1914 150.383 50.5 150.891 49.9141C151.406 49.3281 152.031 48.8789 152.766 48.5664C153.5 48.2461 154.328 48.0859 155.25 48.0859C156.148 48.0859 156.945 48.2344 157.641 48.5312C158.336 48.8281 158.918 49.25 159.387 49.7969C159.863 50.3438 160.223 51 160.465 51.7656C160.707 52.5234 160.828 53.3672 160.828 54.2969V55.7031H150.75V53.4531H157.512V53.1953C157.512 52.7266 157.426 52.3086 157.254 51.9414C157.09 51.5664 156.84 51.2695 156.504 51.0508C156.168 50.832 155.738 50.7227 155.215 50.7227C154.77 50.7227 154.387 50.8203 154.066 51.0156C153.746 51.2109 153.484 51.4844 153.281 51.8359C153.086 52.1875 152.938 52.6016 152.836 53.0781C152.742 53.5469 152.695 54.0625 152.695 54.625V55.0938C152.695 55.6016 152.766 56.0703 152.906 56.5C153.055 56.9297 153.262 57.3008 153.527 57.6133C153.801 57.9258 154.129 58.168 154.512 58.3398C154.902 58.5117 155.344 58.5977 155.836 58.5977C156.445 58.5977 157.012 58.4805 157.535 58.2461C158.066 58.0039 158.523 57.6406 158.906 57.1562L160.547 58.9375C160.281 59.3203 159.918 59.6875 159.457 60.0391C159.004 60.3906 158.457 60.6797 157.816 60.9062C157.176 61.125 156.445 61.2344 155.625 61.2344ZM168.586 61.2344C167.602 61.2344 166.719 61.0781 165.938 60.7656C165.156 60.4453 164.492 60.0039 163.945 59.4414C163.406 58.8789 162.992 58.2266 162.703 57.4844C162.414 56.7344 162.27 55.9375 162.27 55.0938V54.625C162.27 53.6641 162.406 52.7852 162.68 51.9883C162.953 51.1914 163.344 50.5 163.852 49.9141C164.367 49.3281 164.992 48.8789 165.727 48.5664C166.461 48.2461 167.289 48.0859 168.211 48.0859C169.109 48.0859 169.906 48.2344 170.602 48.5312C171.297 48.8281 171.879 49.25 172.348 49.7969C172.824 50.3438 173.184 51 173.426 51.7656C173.668 52.5234 173.789 53.3672 173.789 54.2969V55.7031H163.711V53.4531H170.473V53.1953C170.473 52.7266 170.387 52.3086 170.215 51.9414C170.051 51.5664 169.801 51.2695 169.465 51.0508C169.129 50.832 168.699 50.7227 168.176 50.7227C167.73 50.7227 167.348 50.8203 167.027 51.0156C166.707 51.2109 166.445 51.4844 166.242 51.8359C166.047 52.1875 165.898 52.6016 165.797 53.0781C165.703 53.5469 165.656 54.0625 165.656 54.625V55.0938C165.656 55.6016 165.727 56.0703 165.867 56.5C166.016 56.9297 166.223 57.3008 166.488 57.6133C166.762 57.9258 167.09 58.168 167.473 58.3398C167.863 58.5117 168.305 58.5977 168.797 58.5977C169.406 58.5977 169.973 58.4805 170.496 58.2461C171.027 58.0039 171.484 57.6406 171.867 57.1562L173.508 58.9375C173.242 59.3203 172.879 59.6875 172.418 60.0391C171.965 60.3906 171.418 60.6797 170.777 60.9062C170.137 61.125 169.406 61.2344 168.586 61.2344ZM179.086 51.0859V61H175.711V48.3203H178.887L179.086 51.0859ZM182.906 48.2383L182.848 51.3672C182.684 51.3438 182.484 51.3242 182.25 51.3086C182.023 51.2852 181.816 51.2734 181.629 51.2734C181.152 51.2734 180.738 51.3359 180.387 51.4609C180.043 51.5781 179.754 51.7539 179.52 51.9883C179.293 52.2227 179.121 52.5078 179.004 52.8438C178.895 53.1797 178.832 53.5625 178.816 53.9922L178.137 53.7812C178.137 52.9609 178.219 52.207 178.383 51.5195C178.547 50.8242 178.785 50.2188 179.098 49.7031C179.418 49.1875 179.809 48.7891 180.27 48.5078C180.73 48.2266 181.258 48.0859 181.852 48.0859C182.039 48.0859 182.23 48.1016 182.426 48.1328C182.621 48.1562 182.781 48.1914 182.906 48.2383ZM188.227 43.9375V61H184.711V43.9375H188.227ZM195.023 51.2266V53.9688H187.266V51.2266H195.023ZM195.844 43.9375V46.6914H187.266V43.9375H195.844ZM196.875 54.7891V54.543C196.875 53.6133 197.008 52.7578 197.273 51.9766C197.539 51.1875 197.926 50.5039 198.434 49.9258C198.941 49.3477 199.566 48.8984 200.309 48.5781C201.051 48.25 201.902 48.0859 202.863 48.0859C203.824 48.0859 204.68 48.25 205.43 48.5781C206.18 48.8984 206.809 49.3477 207.316 49.9258C207.832 50.5039 208.223 51.1875 208.488 51.9766C208.754 52.7578 208.887 53.6133 208.887 54.543V54.7891C208.887 55.7109 208.754 56.5664 208.488 57.3555C208.223 58.1367 207.832 58.8203 207.316 59.4062C206.809 59.9844 206.184 60.4336 205.441 60.7539C204.699 61.0742 203.848 61.2344 202.887 61.2344C201.926 61.2344 201.07 61.0742 200.32 60.7539C199.578 60.4336 198.949 59.9844 198.434 59.4062C197.926 58.8203 197.539 58.1367 197.273 57.3555C197.008 56.5664 196.875 55.7109 196.875 54.7891ZM200.25 54.543V54.7891C200.25 55.3203 200.297 55.8164 200.391 56.2773C200.484 56.7383 200.633 57.1445 200.836 57.4961C201.047 57.8398 201.32 58.1094 201.656 58.3047C201.992 58.5 202.402 58.5977 202.887 58.5977C203.355 58.5977 203.758 58.5 204.094 58.3047C204.43 58.1094 204.699 57.8398 204.902 57.4961C205.105 57.1445 205.254 56.7383 205.348 56.2773C205.449 55.8164 205.5 55.3203 205.5 54.7891V54.543C205.5 54.0273 205.449 53.543 205.348 53.0898C205.254 52.6289 205.102 52.2227 204.891 51.8711C204.688 51.5117 204.418 51.2305 204.082 51.0273C203.746 50.8242 203.34 50.7227 202.863 50.7227C202.387 50.7227 201.98 50.8242 201.645 51.0273C201.316 51.2305 201.047 51.5117 200.836 51.8711C200.633 52.2227 200.484 52.6289 200.391 53.0898C200.297 53.543 200.25 54.0273 200.25 54.543ZM214.336 51.0859V61H210.961V48.3203H214.137L214.336 51.0859ZM218.156 48.2383L218.098 51.3672C217.934 51.3438 217.734 51.3242 217.5 51.3086C217.273 51.2852 217.066 51.2734 216.879 51.2734C216.402 51.2734 215.988 51.3359 215.637 51.4609C215.293 51.5781 215.004 51.7539 214.77 51.9883C214.543 52.2227 214.371 52.5078 214.254 52.8438C214.145 53.1797 214.082 53.5625 214.066 53.9922L213.387 53.7812C213.387 52.9609 213.469 52.207 213.633 51.5195C213.797 50.8242 214.035 50.2188 214.348 49.7031C214.668 49.1875 215.059 48.7891 215.52 48.5078C215.98 48.2266 216.508 48.0859 217.102 48.0859C217.289 48.0859 217.48 48.1016 217.676 48.1328C217.871 48.1562 218.031 48.1914 218.156 48.2383ZM227.543 48.3203H230.602V60.5781C230.602 61.7344 230.344 62.7148 229.828 63.5195C229.32 64.332 228.609 64.9453 227.695 65.3594C226.781 65.7812 225.719 65.9922 224.508 65.9922C223.977 65.9922 223.414 65.9219 222.82 65.7812C222.234 65.6406 221.672 65.4219 221.133 65.125C220.602 64.8281 220.156 64.4531 219.797 64L221.285 62.0078C221.676 62.4609 222.129 62.8125 222.645 63.0625C223.16 63.3203 223.73 63.4492 224.355 63.4492C224.965 63.4492 225.48 63.3359 225.902 63.1094C226.324 62.8906 226.648 62.5664 226.875 62.1367C227.102 61.7148 227.215 61.2031 227.215 60.6016V51.25L227.543 48.3203ZM219.012 54.8125V54.5664C219.012 53.5977 219.129 52.7188 219.363 51.9297C219.605 51.1328 219.945 50.4492 220.383 49.8789C220.828 49.3086 221.367 48.8672 222 48.5547C222.633 48.2422 223.348 48.0859 224.145 48.0859C224.988 48.0859 225.695 48.2422 226.266 48.5547C226.836 48.8672 227.305 49.3125 227.672 49.8906C228.039 50.4609 228.324 51.1367 228.527 51.918C228.738 52.6914 228.902 53.5391 229.02 54.4609V55C228.902 55.8828 228.727 56.7031 228.492 57.4609C228.258 58.2188 227.949 58.8828 227.566 59.4531C227.184 60.0156 226.707 60.4531 226.137 60.7656C225.574 61.0781 224.902 61.2344 224.121 61.2344C223.34 61.2344 222.633 61.0742 222 60.7539C221.375 60.4336 220.84 59.9844 220.395 59.4062C219.949 58.8281 219.605 58.1484 219.363 57.3672C219.129 56.5859 219.012 55.7344 219.012 54.8125ZM222.387 54.5664V54.8125C222.387 55.3359 222.438 55.8242 222.539 56.2773C222.641 56.7305 222.797 57.1328 223.008 57.4844C223.227 57.8281 223.496 58.0977 223.816 58.293C224.145 58.4805 224.531 58.5742 224.977 58.5742C225.594 58.5742 226.098 58.4453 226.488 58.1875C226.879 57.9219 227.172 57.5586 227.367 57.0977C227.562 56.6367 227.676 56.1055 227.707 55.5039V53.9688C227.691 53.4766 227.625 53.0352 227.508 52.6445C227.391 52.2461 227.227 51.9062 227.016 51.625C226.805 51.3438 226.531 51.125 226.195 50.9688C225.859 50.8125 225.461 50.7344 225 50.7344C224.555 50.7344 224.168 50.8359 223.84 51.0391C223.52 51.2344 223.25 51.5039 223.031 51.8477C222.82 52.1914 222.66 52.5977 222.551 53.0664C222.441 53.5273 222.387 54.0273 222.387 54.5664ZM239.062 61.2344C238.078 61.2344 237.195 61.0781 236.414 60.7656C235.633 60.4453 234.969 60.0039 234.422 59.4414C233.883 58.8789 233.469 58.2266 233.18 57.4844C232.891 56.7344 232.746 55.9375 232.746 55.0938V54.625C232.746 53.6641 232.883 52.7852 233.156 51.9883C233.43 51.1914 233.82 50.5 234.328 49.9141C234.844 49.3281 235.469 48.8789 236.203 48.5664C236.938 48.2461 237.766 48.0859 238.688 48.0859C239.586 48.0859 240.383 48.2344 241.078 48.5312C241.773 48.8281 242.355 49.25 242.824 49.7969C243.301 50.3438 243.66 51 243.902 51.7656C244.145 52.5234 244.266 53.3672 244.266 54.2969V55.7031H234.188V53.4531H240.949V53.1953C240.949 52.7266 240.863 52.3086 240.691 51.9414C240.527 51.5664 240.277 51.2695 239.941 51.0508C239.605 50.832 239.176 50.7227 238.652 50.7227C238.207 50.7227 237.824 50.8203 237.504 51.0156C237.184 51.2109 236.922 51.4844 236.719 51.8359C236.523 52.1875 236.375 52.6016 236.273 53.0781C236.18 53.5469 236.133 54.0625 236.133 54.625V55.0938C236.133 55.6016 236.203 56.0703 236.344 56.5C236.492 56.9297 236.699 57.3008 236.965 57.6133C237.238 57.9258 237.566 58.168 237.949 58.3398C238.34 58.5117 238.781 58.5977 239.273 58.5977C239.883 58.5977 240.449 58.4805 240.973 58.2461C241.504 58.0039 241.961 57.6406 242.344 57.1562L243.984 58.9375C243.719 59.3203 243.355 59.6875 242.895 60.0391C242.441 60.3906 241.895 60.6797 241.254 60.9062C240.613 61.125 239.883 61.2344 239.062 61.2344ZM253.336 46.8555L248.695 61H244.957L251.297 43.9375H253.676L253.336 46.8555ZM257.191 61L252.539 46.8555L252.164 43.9375H254.566L260.941 61H257.191ZM256.98 54.6484V57.4023H247.969V54.6484H256.98ZM266.262 43.9375V61H262.758V43.9375H266.262Z" fill="#888888"/>
<path d="M110.062 92.0469L101.742 119H92.9062L105.445 84.875H111.047L110.062 92.0469ZM116.953 119L108.609 92.0469L107.531 84.875H113.203L125.812 119H116.953ZM116.625 106.273V112.625H99.1172V106.273H116.625ZM137.062 84.875V119H128.859V84.875H137.062ZM157.898 101.234V107.352H143.812V101.234H157.898ZM178.078 107.422H169.594V101.07H178.078C179.234 101.07 180.172 100.875 180.891 100.484C181.609 100.094 182.133 99.5547 182.461 98.8672C182.805 98.1641 182.977 97.375 182.977 96.5C182.977 95.5625 182.805 94.6953 182.461 93.8984C182.133 93.1016 181.609 92.4609 180.891 91.9766C180.172 91.4766 179.234 91.2266 178.078 91.2266H172.688V119H164.461V84.875H178.078C180.812 84.875 183.164 85.375 185.133 86.375C187.117 87.375 188.641 88.75 189.703 90.5C190.766 92.2344 191.297 94.2188 191.297 96.4531C191.297 98.6562 190.766 100.578 189.703 102.219C188.641 103.859 187.117 105.141 185.133 106.062C183.164 106.969 180.812 107.422 178.078 107.422ZM194.039 106.578V106.086C194.039 104.227 194.305 102.516 194.836 100.953C195.367 99.375 196.148 98.0078 197.18 96.8516C198.211 95.6953 199.484 94.7969 201 94.1562C202.516 93.5 204.266 93.1719 206.25 93.1719C208.25 93.1719 210.008 93.5 211.523 94.1562C213.055 94.7969 214.336 95.6953 215.367 96.8516C216.398 98.0078 217.18 99.375 217.711 100.953C218.242 102.516 218.508 104.227 218.508 106.086V106.578C218.508 108.422 218.242 110.133 217.711 111.711C217.18 113.273 216.398 114.641 215.367 115.812C214.336 116.969 213.062 117.867 211.547 118.508C210.031 119.148 208.281 119.469 206.297 119.469C204.312 119.469 202.555 119.148 201.023 118.508C199.492 117.867 198.211 116.969 197.18 115.812C196.148 114.641 195.367 113.273 194.836 111.711C194.305 110.133 194.039 108.422 194.039 106.578ZM201.938 106.086V106.578C201.938 107.531 202.008 108.422 202.148 109.25C202.289 110.078 202.523 110.805 202.852 111.43C203.18 112.039 203.625 112.516 204.188 112.859C204.75 113.203 205.453 113.375 206.297 113.375C207.125 113.375 207.812 113.203 208.359 112.859C208.922 112.516 209.367 112.039 209.695 111.43C210.023 110.805 210.258 110.078 210.398 109.25C210.539 108.422 210.609 107.531 210.609 106.578V106.086C210.609 105.164 210.539 104.297 210.398 103.484C210.258 102.656 210.023 101.93 209.695 101.305C209.367 100.664 208.922 100.164 208.359 99.8047C207.797 99.4453 207.094 99.2656 206.25 99.2656C205.422 99.2656 204.727 99.4453 204.164 99.8047C203.617 100.164 203.18 100.664 202.852 101.305C202.523 101.93 202.289 102.656 202.148 103.484C202.008 104.297 201.938 105.164 201.938 106.086ZM229.734 111.453L234.422 93.6406H239.367L237.609 102.57L232.969 119H229.008L229.734 111.453ZM227.883 93.6406L230.789 111.312L231.117 119H226.312L220.312 93.6406H227.883ZM243.539 110.938L246.469 93.6406H254.039L248.086 119H243.281L243.539 110.938ZM239.93 93.6406L244.664 111.406L245.391 119H241.383L236.836 102.617L235.148 93.6406H239.93ZM269.18 119.469C267.117 119.469 265.273 119.148 263.648 118.508C262.023 117.852 260.648 116.953 259.523 115.812C258.414 114.672 257.562 113.359 256.969 111.875C256.391 110.391 256.102 108.82 256.102 107.164V106.273C256.102 104.414 256.359 102.695 256.875 101.117C257.391 99.5234 258.156 98.1328 259.172 96.9453C260.188 95.7578 261.461 94.8359 262.992 94.1797C264.523 93.5078 266.305 93.1719 268.336 93.1719C270.133 93.1719 271.742 93.4609 273.164 94.0391C274.586 94.6172 275.789 95.4453 276.773 96.5234C277.773 97.6016 278.531 98.9062 279.047 100.438C279.578 101.969 279.844 103.688 279.844 105.594V108.805H259.125V103.859H272.133V103.25C272.148 102.406 272 101.688 271.688 101.094C271.391 100.5 270.953 100.047 270.375 99.7344C269.797 99.4219 269.094 99.2656 268.266 99.2656C267.406 99.2656 266.695 99.4531 266.133 99.8281C265.586 100.203 265.156 100.719 264.844 101.375C264.547 102.016 264.336 102.758 264.211 103.602C264.086 104.445 264.023 105.336 264.023 106.273V107.164C264.023 108.102 264.148 108.953 264.398 109.719C264.664 110.484 265.039 111.141 265.523 111.688C266.023 112.219 266.617 112.633 267.305 112.93C268.008 113.227 268.805 113.375 269.695 113.375C270.773 113.375 271.836 113.172 272.883 112.766C273.93 112.359 274.828 111.688 275.578 110.75L279.164 115.016C278.648 115.75 277.914 116.461 276.961 117.148C276.023 117.836 274.898 118.398 273.586 118.836C272.273 119.258 270.805 119.469 269.18 119.469ZM291.023 99.9219V119H283.125V93.6406H290.508L291.023 99.9219ZM298.523 93.4531L298.383 100.789C298.07 100.758 297.648 100.719 297.117 100.672C296.586 100.625 296.141 100.602 295.781 100.602C294.859 100.602 294.062 100.711 293.391 100.93C292.734 101.133 292.188 101.445 291.75 101.867C291.328 102.273 291.016 102.789 290.812 103.414C290.625 104.039 290.539 104.766 290.555 105.594L289.125 104.656C289.125 102.953 289.289 101.406 289.617 100.016C289.961 98.6094 290.445 97.3984 291.07 96.3828C291.695 95.3516 292.453 94.5625 293.344 94.0156C294.234 93.4531 295.234 93.1719 296.344 93.1719C296.734 93.1719 297.117 93.1953 297.492 93.2422C297.883 93.2891 298.227 93.3594 298.523 93.4531ZM313.055 119.469C310.992 119.469 309.148 119.148 307.523 118.508C305.898 117.852 304.523 116.953 303.398 115.812C302.289 114.672 301.438 113.359 300.844 111.875C300.266 110.391 299.977 108.82 299.977 107.164V106.273C299.977 104.414 300.234 102.695 300.75 101.117C301.266 99.5234 302.031 98.1328 303.047 96.9453C304.062 95.7578 305.336 94.8359 306.867 94.1797C308.398 93.5078 310.18 93.1719 312.211 93.1719C314.008 93.1719 315.617 93.4609 317.039 94.0391C318.461 94.6172 319.664 95.4453 320.648 96.5234C321.648 97.6016 322.406 98.9062 322.922 100.438C323.453 101.969 323.719 103.688 323.719 105.594V108.805H303V103.859H316.008V103.25C316.023 102.406 315.875 101.688 315.562 101.094C315.266 100.5 314.828 100.047 314.25 99.7344C313.672 99.4219 312.969 99.2656 312.141 99.2656C311.281 99.2656 310.57 99.4531 310.008 99.8281C309.461 100.203 309.031 100.719 308.719 101.375C308.422 102.016 308.211 102.758 308.086 103.602C307.961 104.445 307.898 105.336 307.898 106.273V107.164C307.898 108.102 308.023 108.953 308.273 109.719C308.539 110.484 308.914 111.141 309.398 111.688C309.898 112.219 310.492 112.633 311.18 112.93C311.883 113.227 312.68 113.375 313.57 113.375C314.648 113.375 315.711 113.172 316.758 112.766C317.805 112.359 318.703 111.688 319.453 110.75L323.039 115.016C322.523 115.75 321.789 116.461 320.836 117.148C319.898 117.836 318.773 118.398 317.461 118.836C316.148 119.258 314.68 119.469 313.055 119.469ZM341.508 113.188V83H349.453V119H342.328L341.508 113.188ZM325.945 106.625V106.133C325.945 104.211 326.156 102.461 326.578 100.883C327 99.2891 327.625 97.9219 328.453 96.7812C329.281 95.625 330.312 94.7344 331.547 94.1094C332.781 93.4844 334.203 93.1719 335.812 93.1719C337.25 93.1719 338.508 93.5078 339.586 94.1797C340.664 94.8359 341.586 95.7578 342.352 96.9453C343.117 98.1328 343.742 99.5234 344.227 101.117C344.711 102.695 345.078 104.398 345.328 106.227V106.812C345.078 108.531 344.711 110.156 344.227 111.688C343.742 113.203 343.117 114.547 342.352 115.719C341.586 116.891 340.656 117.812 339.562 118.484C338.484 119.141 337.219 119.469 335.766 119.469C334.156 119.469 332.734 119.148 331.5 118.508C330.281 117.867 329.258 116.969 328.43 115.812C327.617 114.656 327 113.297 326.578 111.734C326.156 110.172 325.945 108.469 325.945 106.625ZM333.844 106.133V106.625C333.844 107.578 333.906 108.461 334.031 109.273C334.156 110.086 334.367 110.805 334.664 111.43C334.977 112.039 335.383 112.516 335.883 112.859C336.398 113.203 337.031 113.375 337.781 113.375C338.797 113.375 339.633 113.133 340.289 112.648C340.961 112.164 341.453 111.477 341.766 110.586C342.094 109.695 342.234 108.648 342.188 107.445V105.594C342.219 104.562 342.148 103.656 341.977 102.875C341.805 102.078 341.531 101.414 341.156 100.883C340.797 100.352 340.336 99.9531 339.773 99.6875C339.227 99.4062 338.578 99.2656 337.828 99.2656C337.094 99.2656 336.469 99.4375 335.953 99.7812C335.453 100.125 335.047 100.609 334.734 101.234C334.422 101.844 334.195 102.57 334.055 103.414C333.914 104.242 333.844 105.148 333.844 106.133ZM380.719 92.0469L372.398 119H363.562L376.102 84.875H381.703L380.719 92.0469ZM387.609 119L379.266 92.0469L378.188 84.875H383.859L396.469 119H387.609ZM387.281 106.273V112.625H369.773V106.273H387.281ZM412.594 107.422H404.109V101.07H412.594C413.75 101.07 414.688 100.875 415.406 100.484C416.125 100.094 416.648 99.5547 416.977 98.8672C417.32 98.1641 417.492 97.375 417.492 96.5C417.492 95.5625 417.32 94.6953 416.977 93.8984C416.648 93.1016 416.125 92.4609 415.406 91.9766C414.688 91.4766 413.75 91.2266 412.594 91.2266H407.203V119H398.977V84.875H412.594C415.328 84.875 417.68 85.375 419.648 86.375C421.633 87.375 423.156 88.75 424.219 90.5C425.281 92.2344 425.812 94.2188 425.812 96.4531C425.812 98.6562 425.281 100.578 424.219 102.219C423.156 103.859 421.633 105.141 419.648 106.062C417.68 106.969 415.328 107.422 412.594 107.422ZM443.859 107.422H435.375V101.07H443.859C445.016 101.07 445.953 100.875 446.672 100.484C447.391 100.094 447.914 99.5547 448.242 98.8672C448.586 98.1641 448.758 97.375 448.758 96.5C448.758 95.5625 448.586 94.6953 448.242 93.8984C447.914 93.1016 447.391 92.4609 446.672 91.9766C445.953 91.4766 445.016 91.2266 443.859 91.2266H438.469V119H430.242V84.875H443.859C446.594 84.875 448.945 85.375 450.914 86.375C452.898 87.375 454.422 88.75 455.484 90.5C456.547 92.2344 457.078 94.2188 457.078 96.4531C457.078 98.6562 456.547 100.578 455.484 102.219C454.422 103.859 452.898 105.141 450.914 106.062C448.945 106.969 446.594 107.422 443.859 107.422Z" fill="black"/>
<path d="M1134 0H1348C1356.28 0 1363 6.71573 1363 15V148C1363 156.284 1356.28 163 1348 163H1134V0Z" fill="#2C3E50"/>
<path d="M1248.5 70.1665V58.8332H1237.17" stroke="white" stroke-width="5" stroke-linecap="round" stroke-linejoin="round"/>
<path d="M1265.5 70.1666H1231.5C1228.37 70.1666 1225.83 72.7036 1225.83 75.8333V98.4999C1225.83 101.63 1228.37 104.167 1231.5 104.167H1265.5C1268.63 104.167 1271.17 101.63 1271.17 98.4999V75.8333C1271.17 72.7036 1268.63 70.1666 1265.5 70.1666Z" stroke="white" stroke-width="5" stroke-linecap="round" stroke-linejoin="round"/>
<path d="M1220.17 87.1666H1225.83" stroke="white" stroke-width="5" stroke-linecap="round" stroke-linejoin="round"/>
<path d="M1271.17 87.1666H1276.83" stroke="white" stroke-width="5" stroke-linecap="round" stroke-linejoin="round"/>
<path d="M1257 84.3332V89.9999" stroke="white" stroke-width="5" stroke-linecap="round" stroke-linejoin="round"/>
<path d="M1240 84.3332V89.9999" stroke="white" stroke-width="5" stroke-linecap="round" stroke-linejoin="round"/>
</svg>
