<svg width="1363" height="163" viewBox="0 0 1363 163" fill="none" xmlns="http://www.w3.org/2000/svg">
<path d="M0 15C0 6.71573 6.71573 0 15 0H37V163H15C6.71573 163 0 156.284 0 148V15Z" fill="#424242"/>
<rect width="1097" height="163" transform="translate(37)" fill="#F0F0F0"/>
<path d="M101.906 53.9219L94.3945 51.2383V48.0859L104.602 52.375V54.6367L101.906 53.9219ZM94.3945 56.1719L101.918 53.4297L104.602 52.7852V55.0352L94.3945 59.3242V56.1719ZM122.789 55.3398H126.293C126.223 56.4883 125.906 57.5078 125.344 58.3984C124.789 59.2891 124.012 59.9844 123.012 60.4844C122.02 60.9844 120.824 61.2344 119.426 61.2344C118.332 61.2344 117.352 61.0469 116.484 60.6719C115.617 60.2891 114.875 59.7422 114.258 59.0312C113.648 58.3203 113.184 57.4609 112.863 56.4531C112.543 55.4453 112.383 54.3164 112.383 53.0664V51.8828C112.383 50.6328 112.547 49.5039 112.875 48.4961C113.211 47.4805 113.688 46.6172 114.305 45.9062C114.93 45.1953 115.676 44.6484 116.543 44.2656C117.41 43.8828 118.379 43.6914 119.449 43.6914C120.871 43.6914 122.07 43.9492 123.047 44.4648C124.031 44.9805 124.793 45.6914 125.332 46.5977C125.879 47.5039 126.207 48.5352 126.316 49.6914H122.801C122.762 49.0039 122.625 48.4219 122.391 47.9453C122.156 47.4609 121.801 47.0977 121.324 46.8555C120.855 46.6055 120.23 46.4805 119.449 46.4805C118.863 46.4805 118.352 46.5898 117.914 46.8086C117.477 47.0273 117.109 47.3594 116.812 47.8047C116.516 48.25 116.293 48.8125 116.145 49.4922C116.004 50.1641 115.934 50.9531 115.934 51.8594V53.0664C115.934 53.9492 116 54.7266 116.133 55.3984C116.266 56.0625 116.469 56.625 116.742 57.0859C117.023 57.5391 117.383 57.8828 117.82 58.1172C118.266 58.3438 118.801 58.457 119.426 58.457C120.16 58.457 120.766 58.3398 121.242 58.1055C121.719 57.8711 122.082 57.5234 122.332 57.0625C122.59 56.6016 122.742 56.0273 122.789 55.3398ZM135.234 58.1406V52.4922C135.234 52.0859 135.168 51.7383 135.035 51.4492C134.902 51.1523 134.695 50.9219 134.414 50.7578C134.141 50.5938 133.785 50.5117 133.348 50.5117C132.973 50.5117 132.648 50.5781 132.375 50.7109C132.102 50.8359 131.891 51.0195 131.742 51.2617C131.594 51.4961 131.52 51.7734 131.52 52.0938H128.145C128.145 51.5547 128.27 51.043 128.52 50.5586C128.77 50.0742 129.133 49.6484 129.609 49.2812C130.086 48.9062 130.652 48.6133 131.309 48.4023C131.973 48.1914 132.715 48.0859 133.535 48.0859C134.52 48.0859 135.395 48.25 136.16 48.5781C136.926 48.9062 137.527 49.3984 137.965 50.0547C138.41 50.7109 138.633 51.5312 138.633 52.5156V57.9414C138.633 58.6367 138.676 59.207 138.762 59.6523C138.848 60.0898 138.973 60.4727 139.137 60.8008V61H135.727C135.562 60.6562 135.438 60.2266 135.352 59.7109C135.273 59.1875 135.234 58.6641 135.234 58.1406ZM135.68 53.2773L135.703 55.1875H133.816C133.371 55.1875 132.984 55.2383 132.656 55.3398C132.328 55.4414 132.059 55.5859 131.848 55.7734C131.637 55.9531 131.48 56.1641 131.379 56.4062C131.285 56.6484 131.238 56.9141 131.238 57.2031C131.238 57.4922 131.305 57.7539 131.438 57.9883C131.57 58.2148 131.762 58.3945 132.012 58.5273C132.262 58.6523 132.555 58.7148 132.891 58.7148C133.398 58.7148 133.84 58.6133 134.215 58.4102C134.59 58.207 134.879 57.957 135.082 57.6602C135.293 57.3633 135.402 57.082 135.41 56.8164L136.301 58.2461C136.176 58.5664 136.004 58.8984 135.785 59.2422C135.574 59.5859 135.305 59.9102 134.977 60.2148C134.648 60.5117 134.254 60.7578 133.793 60.9531C133.332 61.1406 132.785 61.2344 132.152 61.2344C131.348 61.2344 130.617 61.0742 129.961 60.7539C129.312 60.4258 128.797 59.9766 128.414 59.4062C128.039 58.8281 127.852 58.1719 127.852 57.4375C127.852 56.7734 127.977 56.1836 128.227 55.668C128.477 55.1523 128.844 54.7188 129.328 54.3672C129.82 54.0078 130.434 53.7383 131.168 53.5586C131.902 53.3711 132.754 53.2773 133.723 53.2773H135.68ZM144.609 51.0859V61H141.234V48.3203H144.41L144.609 51.0859ZM148.43 48.2383L148.371 51.3672C148.207 51.3438 148.008 51.3242 147.773 51.3086C147.547 51.2852 147.34 51.2734 147.152 51.2734C146.676 51.2734 146.262 51.3359 145.91 51.4609C145.566 51.5781 145.277 51.7539 145.043 51.9883C144.816 52.2227 144.645 52.5078 144.527 52.8438C144.418 53.1797 144.355 53.5625 144.34 53.9922L143.66 53.7812C143.66 52.9609 143.742 52.207 143.906 51.5195C144.07 50.8242 144.309 50.2188 144.621 49.7031C144.941 49.1875 145.332 48.7891 145.793 48.5078C146.254 48.2266 146.781 48.0859 147.375 48.0859C147.562 48.0859 147.754 48.1016 147.949 48.1328C148.145 48.1562 148.305 48.1914 148.43 48.2383ZM155.625 61.2344C154.641 61.2344 153.758 61.0781 152.977 60.7656C152.195 60.4453 151.531 60.0039 150.984 59.4414C150.445 58.8789 150.031 58.2266 149.742 57.4844C149.453 56.7344 149.309 55.9375 149.309 55.0938V54.625C149.309 53.6641 149.445 52.7852 149.719 51.9883C149.992 51.1914 150.383 50.5 150.891 49.9141C151.406 49.3281 152.031 48.8789 152.766 48.5664C153.5 48.2461 154.328 48.0859 155.25 48.0859C156.148 48.0859 156.945 48.2344 157.641 48.5312C158.336 48.8281 158.918 49.25 159.387 49.7969C159.863 50.3438 160.223 51 160.465 51.7656C160.707 52.5234 160.828 53.3672 160.828 54.2969V55.7031H150.75V53.4531H157.512V53.1953C157.512 52.7266 157.426 52.3086 157.254 51.9414C157.09 51.5664 156.84 51.2695 156.504 51.0508C156.168 50.832 155.738 50.7227 155.215 50.7227C154.77 50.7227 154.387 50.8203 154.066 51.0156C153.746 51.2109 153.484 51.4844 153.281 51.8359C153.086 52.1875 152.938 52.6016 152.836 53.0781C152.742 53.5469 152.695 54.0625 152.695 54.625V55.0938C152.695 55.6016 152.766 56.0703 152.906 56.5C153.055 56.9297 153.262 57.3008 153.527 57.6133C153.801 57.9258 154.129 58.168 154.512 58.3398C154.902 58.5117 155.344 58.5977 155.836 58.5977C156.445 58.5977 157.012 58.4805 157.535 58.2461C158.066 58.0039 158.523 57.6406 158.906 57.1562L160.547 58.9375C160.281 59.3203 159.918 59.6875 159.457 60.0391C159.004 60.3906 158.457 60.6797 157.816 60.9062C157.176 61.125 156.445 61.2344 155.625 61.2344ZM168.586 61.2344C167.602 61.2344 166.719 61.0781 165.938 60.7656C165.156 60.4453 164.492 60.0039 163.945 59.4414C163.406 58.8789 162.992 58.2266 162.703 57.4844C162.414 56.7344 162.27 55.9375 162.27 55.0938V54.625C162.27 53.6641 162.406 52.7852 162.68 51.9883C162.953 51.1914 163.344 50.5 163.852 49.9141C164.367 49.3281 164.992 48.8789 165.727 48.5664C166.461 48.2461 167.289 48.0859 168.211 48.0859C169.109 48.0859 169.906 48.2344 170.602 48.5312C171.297 48.8281 171.879 49.25 172.348 49.7969C172.824 50.3438 173.184 51 173.426 51.7656C173.668 52.5234 173.789 53.3672 173.789 54.2969V55.7031H163.711V53.4531H170.473V53.1953C170.473 52.7266 170.387 52.3086 170.215 51.9414C170.051 51.5664 169.801 51.2695 169.465 51.0508C169.129 50.832 168.699 50.7227 168.176 50.7227C167.73 50.7227 167.348 50.8203 167.027 51.0156C166.707 51.2109 166.445 51.4844 166.242 51.8359C166.047 52.1875 165.898 52.6016 165.797 53.0781C165.703 53.5469 165.656 54.0625 165.656 54.625V55.0938C165.656 55.6016 165.727 56.0703 165.867 56.5C166.016 56.9297 166.223 57.3008 166.488 57.6133C166.762 57.9258 167.09 58.168 167.473 58.3398C167.863 58.5117 168.305 58.5977 168.797 58.5977C169.406 58.5977 169.973 58.4805 170.496 58.2461C171.027 58.0039 171.484 57.6406 171.867 57.1562L173.508 58.9375C173.242 59.3203 172.879 59.6875 172.418 60.0391C171.965 60.3906 171.418 60.6797 170.777 60.9062C170.137 61.125 169.406 61.2344 168.586 61.2344ZM179.086 51.0859V61H175.711V48.3203H178.887L179.086 51.0859ZM182.906 48.2383L182.848 51.3672C182.684 51.3438 182.484 51.3242 182.25 51.3086C182.023 51.2852 181.816 51.2734 181.629 51.2734C181.152 51.2734 180.738 51.3359 180.387 51.4609C180.043 51.5781 179.754 51.7539 179.52 51.9883C179.293 52.2227 179.121 52.5078 179.004 52.8438C178.895 53.1797 178.832 53.5625 178.816 53.9922L178.137 53.7812C178.137 52.9609 178.219 52.207 178.383 51.5195C178.547 50.8242 178.785 50.2188 179.098 49.7031C179.418 49.1875 179.809 48.7891 180.27 48.5078C180.73 48.2266 181.258 48.0859 181.852 48.0859C182.039 48.0859 182.23 48.1016 182.426 48.1328C182.621 48.1562 182.781 48.1914 182.906 48.2383ZM188.227 43.9375V61H184.711V43.9375H188.227ZM195.023 51.2266V53.9688H187.266V51.2266H195.023ZM195.844 43.9375V46.6914H187.266V43.9375H195.844ZM196.875 54.7891V54.543C196.875 53.6133 197.008 52.7578 197.273 51.9766C197.539 51.1875 197.926 50.5039 198.434 49.9258C198.941 49.3477 199.566 48.8984 200.309 48.5781C201.051 48.25 201.902 48.0859 202.863 48.0859C203.824 48.0859 204.68 48.25 205.43 48.5781C206.18 48.8984 206.809 49.3477 207.316 49.9258C207.832 50.5039 208.223 51.1875 208.488 51.9766C208.754 52.7578 208.887 53.6133 208.887 54.543V54.7891C208.887 55.7109 208.754 56.5664 208.488 57.3555C208.223 58.1367 207.832 58.8203 207.316 59.4062C206.809 59.9844 206.184 60.4336 205.441 60.7539C204.699 61.0742 203.848 61.2344 202.887 61.2344C201.926 61.2344 201.07 61.0742 200.32 60.7539C199.578 60.4336 198.949 59.9844 198.434 59.4062C197.926 58.8203 197.539 58.1367 197.273 57.3555C197.008 56.5664 196.875 55.7109 196.875 54.7891ZM200.25 54.543V54.7891C200.25 55.3203 200.297 55.8164 200.391 56.2773C200.484 56.7383 200.633 57.1445 200.836 57.4961C201.047 57.8398 201.32 58.1094 201.656 58.3047C201.992 58.5 202.402 58.5977 202.887 58.5977C203.355 58.5977 203.758 58.5 204.094 58.3047C204.43 58.1094 204.699 57.8398 204.902 57.4961C205.105 57.1445 205.254 56.7383 205.348 56.2773C205.449 55.8164 205.5 55.3203 205.5 54.7891V54.543C205.5 54.0273 205.449 53.543 205.348 53.0898C205.254 52.6289 205.102 52.2227 204.891 51.8711C204.688 51.5117 204.418 51.2305 204.082 51.0273C203.746 50.8242 203.34 50.7227 202.863 50.7227C202.387 50.7227 201.98 50.8242 201.645 51.0273C201.316 51.2305 201.047 51.5117 200.836 51.8711C200.633 52.2227 200.484 52.6289 200.391 53.0898C200.297 53.543 200.25 54.0273 200.25 54.543ZM214.336 51.0859V61H210.961V48.3203H214.137L214.336 51.0859ZM218.156 48.2383L218.098 51.3672C217.934 51.3438 217.734 51.3242 217.5 51.3086C217.273 51.2852 217.066 51.2734 216.879 51.2734C216.402 51.2734 215.988 51.3359 215.637 51.4609C215.293 51.5781 215.004 51.7539 214.77 51.9883C214.543 52.2227 214.371 52.5078 214.254 52.8438C214.145 53.1797 214.082 53.5625 214.066 53.9922L213.387 53.7812C213.387 52.9609 213.469 52.207 213.633 51.5195C213.797 50.8242 214.035 50.2188 214.348 49.7031C214.668 49.1875 215.059 48.7891 215.52 48.5078C215.98 48.2266 216.508 48.0859 217.102 48.0859C217.289 48.0859 217.48 48.1016 217.676 48.1328C217.871 48.1562 218.031 48.1914 218.156 48.2383ZM227.543 48.3203H230.602V60.5781C230.602 61.7344 230.344 62.7148 229.828 63.5195C229.32 64.332 228.609 64.9453 227.695 65.3594C226.781 65.7812 225.719 65.9922 224.508 65.9922C223.977 65.9922 223.414 65.9219 222.82 65.7812C222.234 65.6406 221.672 65.4219 221.133 65.125C220.602 64.8281 220.156 64.4531 219.797 64L221.285 62.0078C221.676 62.4609 222.129 62.8125 222.645 63.0625C223.16 63.3203 223.73 63.4492 224.355 63.4492C224.965 63.4492 225.48 63.3359 225.902 63.1094C226.324 62.8906 226.648 62.5664 226.875 62.1367C227.102 61.7148 227.215 61.2031 227.215 60.6016V51.25L227.543 48.3203ZM219.012 54.8125V54.5664C219.012 53.5977 219.129 52.7188 219.363 51.9297C219.605 51.1328 219.945 50.4492 220.383 49.8789C220.828 49.3086 221.367 48.8672 222 48.5547C222.633 48.2422 223.348 48.0859 224.145 48.0859C224.988 48.0859 225.695 48.2422 226.266 48.5547C226.836 48.8672 227.305 49.3125 227.672 49.8906C228.039 50.4609 228.324 51.1367 228.527 51.918C228.738 52.6914 228.902 53.5391 229.02 54.4609V55C228.902 55.8828 228.727 56.7031 228.492 57.4609C228.258 58.2188 227.949 58.8828 227.566 59.4531C227.184 60.0156 226.707 60.4531 226.137 60.7656C225.574 61.0781 224.902 61.2344 224.121 61.2344C223.34 61.2344 222.633 61.0742 222 60.7539C221.375 60.4336 220.84 59.9844 220.395 59.4062C219.949 58.8281 219.605 58.1484 219.363 57.3672C219.129 56.5859 219.012 55.7344 219.012 54.8125ZM222.387 54.5664V54.8125C222.387 55.3359 222.438 55.8242 222.539 56.2773C222.641 56.7305 222.797 57.1328 223.008 57.4844C223.227 57.8281 223.496 58.0977 223.816 58.293C224.145 58.4805 224.531 58.5742 224.977 58.5742C225.594 58.5742 226.098 58.4453 226.488 58.1875C226.879 57.9219 227.172 57.5586 227.367 57.0977C227.562 56.6367 227.676 56.1055 227.707 55.5039V53.9688C227.691 53.4766 227.625 53.0352 227.508 52.6445C227.391 52.2461 227.227 51.9062 227.016 51.625C226.805 51.3438 226.531 51.125 226.195 50.9688C225.859 50.8125 225.461 50.7344 225 50.7344C224.555 50.7344 224.168 50.8359 223.84 51.0391C223.52 51.2344 223.25 51.5039 223.031 51.8477C222.82 52.1914 222.66 52.5977 222.551 53.0664C222.441 53.5273 222.387 54.0273 222.387 54.5664ZM239.062 61.2344C238.078 61.2344 237.195 61.0781 236.414 60.7656C235.633 60.4453 234.969 60.0039 234.422 59.4414C233.883 58.8789 233.469 58.2266 233.18 57.4844C232.891 56.7344 232.746 55.9375 232.746 55.0938V54.625C232.746 53.6641 232.883 52.7852 233.156 51.9883C233.43 51.1914 233.82 50.5 234.328 49.9141C234.844 49.3281 235.469 48.8789 236.203 48.5664C236.938 48.2461 237.766 48.0859 238.688 48.0859C239.586 48.0859 240.383 48.2344 241.078 48.5312C241.773 48.8281 242.355 49.25 242.824 49.7969C243.301 50.3438 243.66 51 243.902 51.7656C244.145 52.5234 244.266 53.3672 244.266 54.2969V55.7031H234.188V53.4531H240.949V53.1953C240.949 52.7266 240.863 52.3086 240.691 51.9414C240.527 51.5664 240.277 51.2695 239.941 51.0508C239.605 50.832 239.176 50.7227 238.652 50.7227C238.207 50.7227 237.824 50.8203 237.504 51.0156C237.184 51.2109 236.922 51.4844 236.719 51.8359C236.523 52.1875 236.375 52.6016 236.273 53.0781C236.18 53.5469 236.133 54.0625 236.133 54.625V55.0938C236.133 55.6016 236.203 56.0703 236.344 56.5C236.492 56.9297 236.699 57.3008 236.965 57.6133C237.238 57.9258 237.566 58.168 237.949 58.3398C238.34 58.5117 238.781 58.5977 239.273 58.5977C239.883 58.5977 240.449 58.4805 240.973 58.2461C241.504 58.0039 241.961 57.6406 242.344 57.1562L243.984 58.9375C243.719 59.3203 243.355 59.6875 242.895 60.0391C242.441 60.3906 241.895 60.6797 241.254 60.9062C240.613 61.125 239.883 61.2344 239.062 61.2344ZM253.336 46.8555L248.695 61H244.957L251.297 43.9375H253.676L253.336 46.8555ZM257.191 61L252.539 46.8555L252.164 43.9375H254.566L260.941 61H257.191ZM256.98 54.6484V57.4023H247.969V54.6484H256.98ZM266.262 43.9375V61H262.758V43.9375H266.262Z" fill="#888888"/>
<path d="M104.344 84.875V119H96.1406V84.875H104.344ZM117.727 99.0078V119H109.828V93.6406H117.234L117.727 99.0078ZM116.766 105.453L114.961 105.5C114.961 103.719 115.172 102.078 115.594 100.578C116.016 99.0781 116.641 97.7734 117.469 96.6641C118.297 95.5547 119.312 94.6953 120.516 94.0859C121.734 93.4766 123.141 93.1719 124.734 93.1719C125.844 93.1719 126.852 93.3438 127.758 93.6875C128.664 94.0156 129.445 94.5391 130.102 95.2578C130.758 95.9609 131.258 96.8828 131.602 98.0234C131.961 99.1484 132.141 100.5 132.141 102.078V119H124.242V103.086C124.242 102.008 124.117 101.195 123.867 100.648C123.633 100.102 123.289 99.7344 122.836 99.5469C122.383 99.3594 121.828 99.2656 121.172 99.2656C120.484 99.2656 119.867 99.4219 119.32 99.7344C118.773 100.047 118.305 100.484 117.914 101.047C117.539 101.594 117.25 102.242 117.047 102.992C116.859 103.742 116.766 104.562 116.766 105.453ZM131.25 105.453L129.047 105.5C129.047 103.719 129.242 102.078 129.633 100.578C130.039 99.0781 130.641 97.7734 131.438 96.6641C132.25 95.5547 133.258 94.6953 134.461 94.0859C135.664 93.4766 137.062 93.1719 138.656 93.1719C139.812 93.1719 140.875 93.3438 141.844 93.6875C142.812 94.0312 143.648 94.5859 144.352 95.3516C145.055 96.1172 145.602 97.1328 145.992 98.3984C146.383 99.6484 146.578 101.195 146.578 103.039V119H138.656V103.039C138.656 101.992 138.531 101.203 138.281 100.672C138.047 100.125 137.703 99.7578 137.25 99.5703C136.797 99.3672 136.258 99.2656 135.633 99.2656C134.883 99.2656 134.234 99.4219 133.688 99.7344C133.141 100.047 132.68 100.484 132.305 101.047C131.945 101.594 131.68 102.242 131.508 102.992C131.336 103.742 131.25 104.562 131.25 105.453ZM159.07 98.5156V128.75H151.172V93.6406H158.531L159.07 98.5156ZM174.633 106.016V106.508C174.633 108.352 174.422 110.062 174 111.641C173.578 113.219 172.953 114.594 172.125 115.766C171.297 116.938 170.266 117.852 169.031 118.508C167.812 119.148 166.398 119.469 164.789 119.469C163.273 119.469 161.969 119.133 160.875 118.461C159.781 117.789 158.867 116.859 158.133 115.672C157.398 114.484 156.805 113.125 156.352 111.594C155.898 110.062 155.539 108.445 155.273 106.742V106.109C155.539 104.281 155.898 102.586 156.352 101.023C156.805 99.4453 157.398 98.0703 158.133 96.8984C158.867 95.7266 159.773 94.8125 160.852 94.1562C161.945 93.5 163.25 93.1719 164.766 93.1719C166.375 93.1719 167.789 93.4766 169.008 94.0859C170.242 94.6953 171.273 95.5703 172.102 96.7109C172.945 97.8359 173.578 99.1875 174 100.766C174.422 102.344 174.633 104.094 174.633 106.016ZM166.734 106.508V106.016C166.734 105.031 166.664 104.133 166.523 103.32C166.383 102.492 166.156 101.773 165.844 101.164C165.547 100.555 165.148 100.086 164.648 99.7578C164.148 99.4297 163.531 99.2656 162.797 99.2656C161.953 99.2656 161.242 99.3984 160.664 99.6641C160.102 99.9141 159.648 100.305 159.305 100.836C158.977 101.352 158.742 102 158.602 102.781C158.477 103.547 158.422 104.445 158.438 105.477V107.398C158.406 108.586 158.523 109.633 158.789 110.539C159.055 111.43 159.516 112.125 160.172 112.625C160.828 113.125 161.719 113.375 162.844 113.375C163.594 113.375 164.219 113.203 164.719 112.859C165.219 112.5 165.617 112.008 165.914 111.383C166.211 110.742 166.422 110.008 166.547 109.18C166.672 108.352 166.734 107.461 166.734 106.508ZM186.492 83V119H178.57V83H186.492ZM203.648 119.469C201.586 119.469 199.742 119.148 198.117 118.508C196.492 117.852 195.117 116.953 193.992 115.812C192.883 114.672 192.031 113.359 191.438 111.875C190.859 110.391 190.57 108.82 190.57 107.164V106.273C190.57 104.414 190.828 102.695 191.344 101.117C191.859 99.5234 192.625 98.1328 193.641 96.9453C194.656 95.7578 195.93 94.8359 197.461 94.1797C198.992 93.5078 200.773 93.1719 202.805 93.1719C204.602 93.1719 206.211 93.4609 207.633 94.0391C209.055 94.6172 210.258 95.4453 211.242 96.5234C212.242 97.6016 213 98.9062 213.516 100.438C214.047 101.969 214.312 103.688 214.312 105.594V108.805H193.594V103.859H206.602V103.25C206.617 102.406 206.469 101.688 206.156 101.094C205.859 100.5 205.422 100.047 204.844 99.7344C204.266 99.4219 203.562 99.2656 202.734 99.2656C201.875 99.2656 201.164 99.4531 200.602 99.8281C200.055 100.203 199.625 100.719 199.312 101.375C199.016 102.016 198.805 102.758 198.68 103.602C198.555 104.445 198.492 105.336 198.492 106.273V107.164C198.492 108.102 198.617 108.953 198.867 109.719C199.133 110.484 199.508 111.141 199.992 111.688C200.492 112.219 201.086 112.633 201.773 112.93C202.477 113.227 203.273 113.375 204.164 113.375C205.242 113.375 206.305 113.172 207.352 112.766C208.398 112.359 209.297 111.688 210.047 110.75L213.633 115.016C213.117 115.75 212.383 116.461 211.43 117.148C210.492 117.836 209.367 118.398 208.055 118.836C206.742 119.258 205.273 119.469 203.648 119.469ZM225.492 99.0078V119H217.594V93.6406H225L225.492 99.0078ZM224.531 105.453L222.727 105.5C222.727 103.719 222.938 102.078 223.359 100.578C223.781 99.0781 224.406 97.7734 225.234 96.6641C226.062 95.5547 227.078 94.6953 228.281 94.0859C229.5 93.4766 230.906 93.1719 232.5 93.1719C233.609 93.1719 234.617 93.3438 235.523 93.6875C236.43 94.0156 237.211 94.5391 237.867 95.2578C238.523 95.9609 239.023 96.8828 239.367 98.0234C239.727 99.1484 239.906 100.5 239.906 102.078V119H232.008V103.086C232.008 102.008 231.883 101.195 231.633 100.648C231.398 100.102 231.055 99.7344 230.602 99.5469C230.148 99.3594 229.594 99.2656 228.938 99.2656C228.25 99.2656 227.633 99.4219 227.086 99.7344C226.539 100.047 226.07 100.484 225.68 101.047C225.305 101.594 225.016 102.242 224.812 102.992C224.625 103.742 224.531 104.562 224.531 105.453ZM239.016 105.453L236.812 105.5C236.812 103.719 237.008 102.078 237.398 100.578C237.805 99.0781 238.406 97.7734 239.203 96.6641C240.016 95.5547 241.023 94.6953 242.227 94.0859C243.43 93.4766 244.828 93.1719 246.422 93.1719C247.578 93.1719 248.641 93.3438 249.609 93.6875C250.578 94.0312 251.414 94.5859 252.117 95.3516C252.82 96.1172 253.367 97.1328 253.758 98.3984C254.148 99.6484 254.344 101.195 254.344 103.039V119H246.422V103.039C246.422 101.992 246.297 101.203 246.047 100.672C245.812 100.125 245.469 99.7578 245.016 99.5703C244.562 99.3672 244.023 99.2656 243.398 99.2656C242.648 99.2656 242 99.4219 241.453 99.7344C240.906 100.047 240.445 100.484 240.07 101.047C239.711 101.594 239.445 102.242 239.273 102.992C239.102 103.742 239.016 104.562 239.016 105.453ZM271.148 119.469C269.086 119.469 267.242 119.148 265.617 118.508C263.992 117.852 262.617 116.953 261.492 115.812C260.383 114.672 259.531 113.359 258.938 111.875C258.359 110.391 258.07 108.82 258.07 107.164V106.273C258.07 104.414 258.328 102.695 258.844 101.117C259.359 99.5234 260.125 98.1328 261.141 96.9453C262.156 95.7578 263.43 94.8359 264.961 94.1797C266.492 93.5078 268.273 93.1719 270.305 93.1719C272.102 93.1719 273.711 93.4609 275.133 94.0391C276.555 94.6172 277.758 95.4453 278.742 96.5234C279.742 97.6016 280.5 98.9062 281.016 100.438C281.547 101.969 281.812 103.688 281.812 105.594V108.805H261.094V103.859H274.102V103.25C274.117 102.406 273.969 101.688 273.656 101.094C273.359 100.5 272.922 100.047 272.344 99.7344C271.766 99.4219 271.062 99.2656 270.234 99.2656C269.375 99.2656 268.664 99.4531 268.102 99.8281C267.555 100.203 267.125 100.719 266.812 101.375C266.516 102.016 266.305 102.758 266.18 103.602C266.055 104.445 265.992 105.336 265.992 106.273V107.164C265.992 108.102 266.117 108.953 266.367 109.719C266.633 110.484 267.008 111.141 267.492 111.688C267.992 112.219 268.586 112.633 269.273 112.93C269.977 113.227 270.773 113.375 271.664 113.375C272.742 113.375 273.805 113.172 274.852 112.766C275.898 112.359 276.797 111.688 277.547 110.75L281.133 115.016C280.617 115.75 279.883 116.461 278.93 117.148C277.992 117.836 276.867 118.398 275.555 118.836C274.242 119.258 272.773 119.469 271.148 119.469ZM292.781 99.0547V119H284.883V93.6406H292.289L292.781 99.0547ZM291.844 105.453L289.992 105.5C289.992 103.562 290.227 101.836 290.695 100.32C291.164 98.7891 291.828 97.4922 292.688 96.4297C293.547 95.3672 294.57 94.5625 295.758 94.0156C296.961 93.4531 298.297 93.1719 299.766 93.1719C300.938 93.1719 302.008 93.3438 302.977 93.6875C303.961 94.0312 304.805 94.5859 305.508 95.3516C306.227 96.1172 306.773 97.1328 307.148 98.3984C307.539 99.6484 307.734 101.195 307.734 103.039V119H299.789V103.016C299.789 102 299.648 101.227 299.367 100.695C299.086 100.148 298.68 99.7734 298.148 99.5703C297.617 99.3672 296.969 99.2656 296.203 99.2656C295.391 99.2656 294.703 99.4219 294.141 99.7344C293.578 100.047 293.125 100.484 292.781 101.047C292.453 101.594 292.211 102.242 292.055 102.992C291.914 103.742 291.844 104.562 291.844 105.453ZM325.477 93.6406V99.125H310.195V93.6406H325.477ZM313.406 87.3359H321.305V110.727C321.305 111.398 321.383 111.922 321.539 112.297C321.695 112.656 321.961 112.914 322.336 113.07C322.727 113.211 323.242 113.281 323.883 113.281C324.336 113.281 324.711 113.273 325.008 113.258C325.305 113.227 325.586 113.188 325.852 113.141V118.789C325.18 119.008 324.477 119.172 323.742 119.281C323.008 119.406 322.227 119.469 321.398 119.469C319.711 119.469 318.266 119.203 317.062 118.672C315.875 118.141 314.969 117.305 314.344 116.164C313.719 115.023 313.406 113.539 313.406 111.711V87.3359ZM341.789 112.625V102.172C341.789 101.453 341.688 100.836 341.484 100.32C341.281 99.8047 340.961 99.4062 340.523 99.125C340.086 98.8281 339.5 98.6797 338.766 98.6797C338.172 98.6797 337.664 98.7812 337.242 98.9844C336.82 99.1875 336.5 99.4922 336.281 99.8984C336.062 100.305 335.953 100.82 335.953 101.445H328.055C328.055 100.273 328.312 99.1875 328.828 98.1875C329.359 97.1719 330.109 96.2891 331.078 95.5391C332.062 94.7891 333.234 94.2109 334.594 93.8047C335.969 93.3828 337.5 93.1719 339.188 93.1719C341.203 93.1719 343 93.5078 344.578 94.1797C346.172 94.8516 347.43 95.8594 348.352 97.2031C349.273 98.5312 349.734 100.203 349.734 102.219V112.602C349.734 114.258 349.828 115.516 350.016 116.375C350.203 117.219 350.469 117.961 350.812 118.602V119H342.891C342.516 118.219 342.234 117.266 342.047 116.141C341.875 115 341.789 113.828 341.789 112.625ZM342.75 103.508L342.797 107.727H339.305C338.57 107.727 337.945 107.828 337.43 108.031C336.93 108.234 336.523 108.516 336.211 108.875C335.914 109.219 335.695 109.609 335.555 110.047C335.43 110.484 335.367 110.945 335.367 111.43C335.367 111.898 335.477 112.32 335.695 112.695C335.93 113.055 336.242 113.336 336.633 113.539C337.023 113.742 337.461 113.844 337.945 113.844C338.82 113.844 339.562 113.68 340.172 113.352C340.797 113.008 341.273 112.594 341.602 112.109C341.93 111.625 342.094 111.172 342.094 110.75L343.828 113.984C343.516 114.609 343.156 115.242 342.75 115.883C342.359 116.523 341.867 117.117 341.273 117.664C340.695 118.195 339.984 118.633 339.141 118.977C338.297 119.305 337.273 119.469 336.07 119.469C334.508 119.469 333.07 119.148 331.758 118.508C330.461 117.867 329.422 116.977 328.641 115.836C327.859 114.68 327.469 113.352 327.469 111.852C327.469 110.539 327.703 109.367 328.172 108.336C328.656 107.305 329.383 106.43 330.352 105.711C331.32 104.992 332.555 104.445 334.055 104.07C335.555 103.695 337.32 103.508 339.352 103.508H342.75ZM367.477 93.6406V99.125H352.195V93.6406H367.477ZM355.406 87.3359H363.305V110.727C363.305 111.398 363.383 111.922 363.539 112.297C363.695 112.656 363.961 112.914 364.336 113.07C364.727 113.211 365.242 113.281 365.883 113.281C366.336 113.281 366.711 113.273 367.008 113.258C367.305 113.227 367.586 113.188 367.852 113.141V118.789C367.18 119.008 366.477 119.172 365.742 119.281C365.008 119.406 364.227 119.469 363.398 119.469C361.711 119.469 360.266 119.203 359.062 118.672C357.875 118.141 356.969 117.305 356.344 116.164C355.719 115.023 355.406 113.539 355.406 111.711V87.3359ZM378.961 93.6406V119H371.039V93.6406H378.961ZM370.57 87.1016C370.57 85.9766 370.977 85.0547 371.789 84.3359C372.602 83.6172 373.656 83.2578 374.953 83.2578C376.25 83.2578 377.305 83.6172 378.117 84.3359C378.93 85.0547 379.336 85.9766 379.336 87.1016C379.336 88.2266 378.93 89.1484 378.117 89.8672C377.305 90.5859 376.25 90.9453 374.953 90.9453C373.656 90.9453 372.602 90.5859 371.789 89.8672C370.977 89.1484 370.57 88.2266 370.57 87.1016ZM382.852 106.578V106.086C382.852 104.227 383.117 102.516 383.648 100.953C384.18 99.375 384.961 98.0078 385.992 96.8516C387.023 95.6953 388.297 94.7969 389.812 94.1562C391.328 93.5 393.078 93.1719 395.062 93.1719C397.062 93.1719 398.82 93.5 400.336 94.1562C401.867 94.7969 403.148 95.6953 404.18 96.8516C405.211 98.0078 405.992 99.375 406.523 100.953C407.055 102.516 407.32 104.227 407.32 106.086V106.578C407.32 108.422 407.055 110.133 406.523 111.711C405.992 113.273 405.211 114.641 404.18 115.812C403.148 116.969 401.875 117.867 400.359 118.508C398.844 119.148 397.094 119.469 395.109 119.469C393.125 119.469 391.367 119.148 389.836 118.508C388.305 117.867 387.023 116.969 385.992 115.812C384.961 114.641 384.18 113.273 383.648 111.711C383.117 110.133 382.852 108.422 382.852 106.578ZM390.75 106.086V106.578C390.75 107.531 390.82 108.422 390.961 109.25C391.102 110.078 391.336 110.805 391.664 111.43C391.992 112.039 392.438 112.516 393 112.859C393.562 113.203 394.266 113.375 395.109 113.375C395.938 113.375 396.625 113.203 397.172 112.859C397.734 112.516 398.18 112.039 398.508 111.43C398.836 110.805 399.07 110.078 399.211 109.25C399.352 108.422 399.422 107.531 399.422 106.578V106.086C399.422 105.164 399.352 104.297 399.211 103.484C399.07 102.656 398.836 101.93 398.508 101.305C398.18 100.664 397.734 100.164 397.172 99.8047C396.609 99.4453 395.906 99.2656 395.062 99.2656C394.234 99.2656 393.539 99.4453 392.977 99.8047C392.43 100.164 391.992 100.664 391.664 101.305C391.336 101.93 391.102 102.656 390.961 103.484C390.82 104.297 390.75 105.164 390.75 106.086ZM418.594 99.0547V119H410.695V93.6406H418.102L418.594 99.0547ZM417.656 105.453L415.805 105.5C415.805 103.562 416.039 101.836 416.508 100.32C416.977 98.7891 417.641 97.4922 418.5 96.4297C419.359 95.3672 420.383 94.5625 421.57 94.0156C422.773 93.4531 424.109 93.1719 425.578 93.1719C426.75 93.1719 427.82 93.3438 428.789 93.6875C429.773 94.0312 430.617 94.5859 431.32 95.3516C432.039 96.1172 432.586 97.1328 432.961 98.3984C433.352 99.6484 433.547 101.195 433.547 103.039V119H425.602V103.016C425.602 102 425.461 101.227 425.18 100.695C424.898 100.148 424.492 99.7734 423.961 99.5703C423.43 99.3672 422.781 99.2656 422.016 99.2656C421.203 99.2656 420.516 99.4219 419.953 99.7344C419.391 100.047 418.938 100.484 418.594 101.047C418.266 101.594 418.023 102.242 417.867 102.992C417.727 103.742 417.656 104.562 417.656 105.453Z" fill="black"/>
<path d="M1134 0H1348C1356.28 0 1363 6.71573 1363 15V148C1363 156.284 1356.28 163 1348 163H1134V0Z" fill="#2C3E50"/>
<path d="M1280.07 47.5H1216.93L1214.5 49.9286V113.071L1216.93 115.5H1280.07L1282.5 113.071V49.9286L1280.07 47.5ZM1277.64 110.643H1233.93V100.929H1245.1C1246.56 103.843 1249.96 105.786 1253.36 105.786C1258.7 105.786 1263.07 101.414 1263.07 96.0714C1263.07 90.7286 1258.7 86.3571 1253.36 86.3571C1248.01 86.3571 1243.64 90.7286 1243.64 96.0714H1229.07V110.643H1219.36V52.3571H1229.07V63.5286C1226.16 64.9857 1224.21 68.3857 1224.21 71.7857C1224.21 77.1286 1228.59 81.5 1233.93 81.5C1239.27 81.5 1243.64 77.1286 1243.64 71.7857H1253.36C1253.36 77.1286 1257.73 81.5 1263.07 81.5C1268.41 81.5 1272.79 77.1286 1272.79 71.7857C1272.79 66.4429 1268.41 62.0714 1263.07 62.0714C1259.67 62.0714 1256.27 64.0143 1254.81 66.9286H1242.19C1240.73 64.0143 1237.33 62.0714 1233.93 62.0714V52.3571H1277.64V110.643ZM1248.5 96.0714C1248.5 93.1571 1250.44 91.2143 1253.36 91.2143C1256.27 91.2143 1258.21 93.1571 1258.21 96.0714C1258.21 98.9857 1256.27 100.929 1253.36 100.929C1250.44 100.929 1248.5 98.9857 1248.5 96.0714ZM1233.93 66.9286C1236.84 66.9286 1238.79 68.8714 1238.79 71.7857C1238.79 74.7 1236.84 76.6429 1233.93 76.6429C1231.01 76.6429 1229.07 74.7 1229.07 71.7857C1229.07 68.8714 1231.01 66.9286 1233.93 66.9286ZM1263.07 66.9286C1265.99 66.9286 1267.93 68.8714 1267.93 71.7857C1267.93 74.7 1265.99 76.6429 1263.07 76.6429C1260.16 76.6429 1258.21 74.7 1258.21 71.7857C1258.21 68.8714 1260.16 66.9286 1263.07 66.9286Z" fill="white"/>
</svg>
