<svg width="1363" height="297" viewBox="0 0 1363 297" fill="none" xmlns="http://www.w3.org/2000/svg">
<path d="M0 15C0 6.71573 6.71573 0 15 0H37V297H15C6.71573 297 0 290.284 0 282V15Z" fill="#2C3E50"/>
<path d="M37 0H1066V297H37V0Z" fill="#F0F0F0"/>
<path d="M112.354 59.8301V63.9434H98.9941V59.8301H112.354ZM100.559 49.4062V75H95.2852V49.4062H100.559ZM116.115 49.4062V75H110.859V49.4062H116.115ZM131.637 70.4473V55.9805H136.699V75H131.936L131.637 70.4473ZM132.199 66.5449L133.693 66.5098C133.693 67.7754 133.547 68.9531 133.254 70.043C132.961 71.1211 132.521 72.0586 131.936 72.8555C131.35 73.6406 130.611 74.2559 129.721 74.7012C128.83 75.1348 127.781 75.3516 126.574 75.3516C125.648 75.3516 124.793 75.2227 124.008 74.9648C123.234 74.6953 122.566 74.2793 122.004 73.7168C121.453 73.1426 121.02 72.4102 120.703 71.5195C120.398 70.6172 120.246 69.5332 120.246 68.2676V55.9805H125.309V68.3027C125.309 68.8652 125.373 69.3398 125.502 69.7266C125.643 70.1133 125.836 70.4297 126.082 70.6758C126.328 70.9219 126.615 71.0977 126.943 71.2031C127.283 71.3086 127.658 71.3613 128.068 71.3613C129.111 71.3613 129.932 71.1504 130.529 70.7285C131.139 70.3066 131.566 69.7324 131.812 69.0059C132.07 68.2676 132.199 67.4473 132.199 66.5449ZM150.85 69.7441C150.85 69.3809 150.744 69.0527 150.533 68.7598C150.322 68.4668 149.93 68.1973 149.355 67.9512C148.793 67.6934 147.979 67.459 146.912 67.248C145.951 67.0371 145.055 66.7734 144.223 66.457C143.402 66.1289 142.688 65.7363 142.078 65.2793C141.48 64.8223 141.012 64.2832 140.672 63.6621C140.332 63.0293 140.162 62.3086 140.162 61.5C140.162 60.7031 140.332 59.9531 140.672 59.25C141.023 58.5469 141.521 57.9258 142.166 57.3867C142.822 56.8359 143.619 56.4082 144.557 56.1035C145.506 55.7871 146.572 55.6289 147.756 55.6289C149.408 55.6289 150.826 55.8926 152.01 56.4199C153.205 56.9473 154.119 57.6738 154.752 58.5996C155.396 59.5137 155.719 60.5566 155.719 61.7285H150.656C150.656 61.2363 150.551 60.7969 150.34 60.4102C150.141 60.0117 149.824 59.7012 149.391 59.4785C148.969 59.2441 148.418 59.127 147.738 59.127C147.176 59.127 146.689 59.2266 146.279 59.4258C145.869 59.6133 145.553 59.8711 145.33 60.1992C145.119 60.5156 145.014 60.8672 145.014 61.2539C145.014 61.5469 145.072 61.8105 145.189 62.0449C145.318 62.2676 145.523 62.4727 145.805 62.6602C146.086 62.8477 146.449 63.0234 146.895 63.1875C147.352 63.3398 147.914 63.4805 148.582 63.6094C149.953 63.8906 151.178 64.2598 152.256 64.7168C153.334 65.1621 154.189 65.7715 154.822 66.5449C155.455 67.3066 155.771 68.3086 155.771 69.5508C155.771 70.3945 155.584 71.168 155.209 71.8711C154.834 72.5742 154.295 73.1895 153.592 73.7168C152.889 74.2324 152.045 74.6367 151.061 74.9297C150.088 75.2109 148.992 75.3516 147.773 75.3516C146.004 75.3516 144.504 75.0352 143.273 74.4023C142.055 73.7695 141.129 72.9668 140.496 71.9941C139.875 71.0098 139.564 70.002 139.564 68.9707H144.363C144.387 69.6621 144.562 70.2188 144.891 70.6406C145.23 71.0625 145.658 71.3672 146.174 71.5547C146.701 71.7422 147.27 71.8359 147.879 71.8359C148.535 71.8359 149.08 71.748 149.514 71.5723C149.947 71.3848 150.275 71.1387 150.498 70.834C150.732 70.5176 150.85 70.1543 150.85 69.7441ZM169.342 69.7441C169.342 69.3809 169.236 69.0527 169.025 68.7598C168.814 68.4668 168.422 68.1973 167.848 67.9512C167.285 67.6934 166.471 67.459 165.404 67.248C164.443 67.0371 163.547 66.7734 162.715 66.457C161.895 66.1289 161.18 65.7363 160.57 65.2793C159.973 64.8223 159.504 64.2832 159.164 63.6621C158.824 63.0293 158.654 62.3086 158.654 61.5C158.654 60.7031 158.824 59.9531 159.164 59.25C159.516 58.5469 160.014 57.9258 160.658 57.3867C161.314 56.8359 162.111 56.4082 163.049 56.1035C163.998 55.7871 165.064 55.6289 166.248 55.6289C167.9 55.6289 169.318 55.8926 170.502 56.4199C171.697 56.9473 172.611 57.6738 173.244 58.5996C173.889 59.5137 174.211 60.5566 174.211 61.7285H169.148C169.148 61.2363 169.043 60.7969 168.832 60.4102C168.633 60.0117 168.316 59.7012 167.883 59.4785C167.461 59.2441 166.91 59.127 166.23 59.127C165.668 59.127 165.182 59.2266 164.771 59.4258C164.361 59.6133 164.045 59.8711 163.822 60.1992C163.611 60.5156 163.506 60.8672 163.506 61.2539C163.506 61.5469 163.564 61.8105 163.682 62.0449C163.811 62.2676 164.016 62.4727 164.297 62.6602C164.578 62.8477 164.941 63.0234 165.387 63.1875C165.844 63.3398 166.406 63.4805 167.074 63.6094C168.445 63.8906 169.67 64.2598 170.748 64.7168C171.826 65.1621 172.682 65.7715 173.314 66.5449C173.947 67.3066 174.264 68.3086 174.264 69.5508C174.264 70.3945 174.076 71.168 173.701 71.8711C173.326 72.5742 172.787 73.1895 172.084 73.7168C171.381 74.2324 170.537 74.6367 169.553 74.9297C168.58 75.2109 167.484 75.3516 166.266 75.3516C164.496 75.3516 162.996 75.0352 161.766 74.4023C160.547 73.7695 159.621 72.9668 158.988 71.9941C158.367 71.0098 158.057 70.002 158.057 68.9707H162.855C162.879 69.6621 163.055 70.2188 163.383 70.6406C163.723 71.0625 164.15 71.3672 164.666 71.5547C165.193 71.7422 165.762 71.8359 166.371 71.8359C167.027 71.8359 167.572 71.748 168.006 71.5723C168.439 71.3848 168.768 71.1387 168.99 70.834C169.225 70.5176 169.342 70.1543 169.342 69.7441ZM186.305 75.3516C184.828 75.3516 183.504 75.1172 182.332 74.6484C181.16 74.168 180.164 73.5059 179.344 72.6621C178.535 71.8184 177.914 70.8398 177.48 69.7266C177.047 68.6016 176.83 67.4062 176.83 66.1406V65.4375C176.83 63.9961 177.035 62.6777 177.445 61.4824C177.855 60.2871 178.441 59.25 179.203 58.3711C179.977 57.4922 180.914 56.8184 182.016 56.3496C183.117 55.8691 184.359 55.6289 185.742 55.6289C187.09 55.6289 188.285 55.8516 189.328 56.2969C190.371 56.7422 191.244 57.375 191.947 58.1953C192.662 59.0156 193.201 60 193.564 61.1484C193.928 62.2852 194.109 63.5508 194.109 64.9453V67.0547H178.992V63.6797H189.135V63.293C189.135 62.5898 189.006 61.9629 188.748 61.4121C188.502 60.8496 188.127 60.4043 187.623 60.0762C187.119 59.748 186.475 59.584 185.689 59.584C185.021 59.584 184.447 59.7305 183.967 60.0234C183.486 60.3164 183.094 60.7266 182.789 61.2539C182.496 61.7812 182.273 62.4023 182.121 63.1172C181.98 63.8203 181.91 64.5938 181.91 65.4375V66.1406C181.91 66.9023 182.016 67.6055 182.227 68.25C182.449 68.8945 182.76 69.4512 183.158 69.9199C183.568 70.3887 184.061 70.752 184.635 71.0098C185.221 71.2676 185.883 71.3965 186.621 71.3965C187.535 71.3965 188.385 71.2207 189.17 70.8691C189.967 70.5059 190.652 69.9609 191.227 69.2344L193.688 71.9062C193.289 72.4805 192.744 73.0312 192.053 73.5586C191.373 74.0859 190.553 74.5195 189.592 74.8594C188.631 75.1875 187.535 75.3516 186.305 75.3516ZM202.336 55.9805V75H197.256V55.9805H202.336ZM196.939 51.0234C196.939 50.2852 197.197 49.6758 197.713 49.1953C198.229 48.7148 198.92 48.4746 199.787 48.4746C200.643 48.4746 201.328 48.7148 201.844 49.1953C202.371 49.6758 202.635 50.2852 202.635 51.0234C202.635 51.7617 202.371 52.3711 201.844 52.8516C201.328 53.332 200.643 53.5723 199.787 53.5723C198.92 53.5723 198.229 53.332 197.713 52.8516C197.197 52.3711 196.939 51.7617 196.939 51.0234ZM211.477 60.041V75H206.414V55.9805H211.16L211.477 60.041ZM210.738 64.8223H209.367C209.367 63.416 209.549 62.1504 209.912 61.0254C210.275 59.8887 210.785 58.9219 211.441 58.125C212.098 57.3164 212.877 56.7012 213.779 56.2793C214.693 55.8457 215.713 55.6289 216.838 55.6289C217.729 55.6289 218.543 55.7578 219.281 56.0156C220.02 56.2734 220.652 56.6836 221.18 57.2461C221.719 57.8086 222.129 58.5527 222.41 59.4785C222.703 60.4043 222.85 61.5352 222.85 62.8711V75H217.752V62.8535C217.752 62.0098 217.635 61.3535 217.4 60.8848C217.166 60.416 216.82 60.0879 216.363 59.9004C215.918 59.7012 215.367 59.6016 214.711 59.6016C214.031 59.6016 213.439 59.7363 212.936 60.0059C212.443 60.2754 212.033 60.6504 211.705 61.1309C211.389 61.5996 211.148 62.1504 210.984 62.7832C210.82 63.416 210.738 64.0957 210.738 64.8223ZM246.387 53.7832L239.426 75H233.818L243.328 49.4062H246.896L246.387 53.7832ZM252.17 75L245.191 53.7832L244.629 49.4062H248.232L257.795 75H252.17ZM251.854 65.4727V69.6035H238.336V65.4727H251.854ZM259.852 48H264.914V70.6406L264.404 75H259.852V48ZM276.955 65.2969V65.666C276.955 67.084 276.803 68.3848 276.498 69.5684C276.205 70.752 275.748 71.7773 275.127 72.6445C274.506 73.5 273.732 74.168 272.807 74.6484C271.893 75.1172 270.814 75.3516 269.572 75.3516C268.412 75.3516 267.404 75.1172 266.549 74.6484C265.705 74.1797 264.996 73.5176 264.422 72.6621C263.848 71.8066 263.385 70.8047 263.033 69.6562C262.682 68.5078 262.418 67.2539 262.242 65.8945V65.0859C262.418 63.7266 262.682 62.4727 263.033 61.3242C263.385 60.1758 263.848 59.1738 264.422 58.3184C264.996 57.4629 265.705 56.8008 266.549 56.332C267.393 55.8633 268.389 55.6289 269.537 55.6289C270.791 55.6289 271.881 55.8691 272.807 56.3496C273.744 56.8184 274.518 57.4863 275.127 58.3535C275.748 59.209 276.205 60.2285 276.498 61.4121C276.803 62.584 276.955 63.8789 276.955 65.2969ZM271.893 65.666V65.2969C271.893 64.5234 271.834 63.7969 271.717 63.1172C271.611 62.4258 271.424 61.8223 271.154 61.3066C270.885 60.7793 270.516 60.3633 270.047 60.0586C269.59 59.7539 268.998 59.6016 268.271 59.6016C267.58 59.6016 266.994 59.7188 266.514 59.9531C266.033 60.1875 265.635 60.5156 265.318 60.9375C265.014 61.3594 264.785 61.8633 264.633 62.4492C264.48 63.0234 264.387 63.6562 264.352 64.3477V66.6504C264.387 67.5762 264.539 68.3965 264.809 69.1113C265.09 69.8145 265.512 70.3711 266.074 70.7812C266.648 71.1797 267.393 71.3789 268.307 71.3789C269.021 71.3789 269.613 71.2383 270.082 70.957C270.551 70.6758 270.914 70.2773 271.172 69.7617C271.441 69.2461 271.629 68.6426 271.734 67.9512C271.84 67.248 271.893 66.4863 271.893 65.666ZM291.334 70.8516V48H296.432V75H291.844L291.334 70.8516ZM279.311 65.7188V65.3496C279.311 63.8965 279.475 62.5781 279.803 61.3945C280.131 60.1992 280.611 59.1738 281.244 58.3184C281.877 57.4629 282.656 56.8008 283.582 56.332C284.508 55.8633 285.562 55.6289 286.746 55.6289C287.859 55.6289 288.832 55.8633 289.664 56.332C290.508 56.8008 291.223 57.4688 291.809 58.3359C292.406 59.1914 292.887 60.2051 293.25 61.377C293.613 62.5371 293.877 63.8086 294.041 65.1914V66C293.877 67.3242 293.613 68.5547 293.25 69.6914C292.887 70.8281 292.406 71.8242 291.809 72.6797C291.223 73.5234 290.508 74.1797 289.664 74.6484C288.82 75.1172 287.836 75.3516 286.711 75.3516C285.527 75.3516 284.473 75.1113 283.547 74.6309C282.633 74.1504 281.859 73.4766 281.227 72.6094C280.605 71.7422 280.131 70.7227 279.803 69.5508C279.475 68.3789 279.311 67.1016 279.311 65.7188ZM284.373 65.3496V65.7188C284.373 66.5039 284.432 67.2363 284.549 67.916C284.678 68.5957 284.883 69.1992 285.164 69.7266C285.457 70.2422 285.832 70.6465 286.289 70.9395C286.758 71.2207 287.326 71.3613 287.994 71.3613C288.861 71.3613 289.576 71.168 290.139 70.7812C290.701 70.3828 291.129 69.8379 291.422 69.1465C291.727 68.4551 291.902 67.6582 291.949 66.7559V64.4531C291.914 63.7148 291.809 63.0527 291.633 62.4668C291.469 61.8691 291.223 61.3594 290.895 60.9375C290.578 60.5156 290.18 60.1875 289.699 59.9531C289.23 59.7188 288.674 59.6016 288.029 59.6016C287.373 59.6016 286.811 59.7539 286.342 60.0586C285.873 60.3516 285.492 60.7559 285.199 61.2715C284.918 61.7871 284.707 62.3965 284.566 63.0996C284.438 63.791 284.373 64.541 284.373 65.3496ZM310.652 70.7109V62.2383C310.652 61.6289 310.553 61.1074 310.354 60.6738C310.154 60.2285 309.844 59.8828 309.422 59.6367C309.012 59.3906 308.479 59.2676 307.822 59.2676C307.26 59.2676 306.773 59.3672 306.363 59.5664C305.953 59.7539 305.637 60.0293 305.414 60.3926C305.191 60.7441 305.08 61.1602 305.08 61.6406H300.018C300.018 60.832 300.205 60.0645 300.58 59.3379C300.955 58.6113 301.5 57.9727 302.215 57.4219C302.93 56.8594 303.779 56.4199 304.764 56.1035C305.76 55.7871 306.873 55.6289 308.104 55.6289C309.58 55.6289 310.893 55.875 312.041 56.3672C313.189 56.8594 314.092 57.5977 314.748 58.582C315.416 59.5664 315.75 60.7969 315.75 62.2734V70.4121C315.75 71.4551 315.814 72.3105 315.943 72.9785C316.072 73.6348 316.26 74.209 316.506 74.7012V75H311.391C311.145 74.4844 310.957 73.8398 310.828 73.0664C310.711 72.2812 310.652 71.4961 310.652 70.7109ZM311.32 63.416L311.355 66.2812H308.525C307.857 66.2812 307.277 66.3574 306.785 66.5098C306.293 66.6621 305.889 66.8789 305.572 67.1602C305.256 67.4297 305.021 67.7461 304.869 68.1094C304.729 68.4727 304.658 68.8711 304.658 69.3047C304.658 69.7383 304.758 70.1309 304.957 70.4824C305.156 70.8223 305.443 71.0918 305.818 71.291C306.193 71.4785 306.633 71.5723 307.137 71.5723C307.898 71.5723 308.561 71.4199 309.123 71.1152C309.686 70.8105 310.119 70.4355 310.424 69.9902C310.74 69.5449 310.904 69.123 310.916 68.7246L312.252 70.8691C312.064 71.3496 311.807 71.8477 311.479 72.3633C311.162 72.8789 310.758 73.3652 310.266 73.8223C309.773 74.2676 309.182 74.6367 308.49 74.9297C307.799 75.2109 306.979 75.3516 306.029 75.3516C304.822 75.3516 303.727 75.1113 302.742 74.6309C301.77 74.1387 300.996 73.4648 300.422 72.6094C299.859 71.7422 299.578 70.7578 299.578 69.6562C299.578 68.6602 299.766 67.7754 300.141 67.002C300.516 66.2285 301.066 65.5781 301.793 65.0508C302.531 64.5117 303.451 64.1074 304.553 63.8379C305.654 63.5566 306.932 63.416 308.385 63.416H311.32ZM324.996 48V75H319.916V48H324.996ZM334.523 48V75H329.443V48H334.523ZM348.973 70.7109V62.2383C348.973 61.6289 348.873 61.1074 348.674 60.6738C348.475 60.2285 348.164 59.8828 347.742 59.6367C347.332 59.3906 346.799 59.2676 346.143 59.2676C345.58 59.2676 345.094 59.3672 344.684 59.5664C344.273 59.7539 343.957 60.0293 343.734 60.3926C343.512 60.7441 343.4 61.1602 343.4 61.6406H338.338C338.338 60.832 338.525 60.0645 338.9 59.3379C339.275 58.6113 339.82 57.9727 340.535 57.4219C341.25 56.8594 342.1 56.4199 343.084 56.1035C344.08 55.7871 345.193 55.6289 346.424 55.6289C347.9 55.6289 349.213 55.875 350.361 56.3672C351.51 56.8594 352.412 57.5977 353.068 58.582C353.736 59.5664 354.07 60.7969 354.07 62.2734V70.4121C354.07 71.4551 354.135 72.3105 354.264 72.9785C354.393 73.6348 354.58 74.209 354.826 74.7012V75H349.711C349.465 74.4844 349.277 73.8398 349.148 73.0664C349.031 72.2812 348.973 71.4961 348.973 70.7109ZM349.641 63.416L349.676 66.2812H346.846C346.178 66.2812 345.598 66.3574 345.105 66.5098C344.613 66.6621 344.209 66.8789 343.893 67.1602C343.576 67.4297 343.342 67.7461 343.189 68.1094C343.049 68.4727 342.979 68.8711 342.979 69.3047C342.979 69.7383 343.078 70.1309 343.277 70.4824C343.477 70.8223 343.764 71.0918 344.139 71.291C344.514 71.4785 344.953 71.5723 345.457 71.5723C346.219 71.5723 346.881 71.4199 347.443 71.1152C348.006 70.8105 348.439 70.4355 348.744 69.9902C349.061 69.5449 349.225 69.123 349.236 68.7246L350.572 70.8691C350.385 71.3496 350.127 71.8477 349.799 72.3633C349.482 72.8789 349.078 73.3652 348.586 73.8223C348.094 74.2676 347.502 74.6367 346.811 74.9297C346.119 75.2109 345.299 75.3516 344.35 75.3516C343.143 75.3516 342.047 75.1113 341.062 74.6309C340.09 74.1387 339.316 73.4648 338.742 72.6094C338.18 71.7422 337.898 70.7578 337.898 69.6562C337.898 68.6602 338.086 67.7754 338.461 67.002C338.836 66.2285 339.387 65.5781 340.113 65.0508C340.852 64.5117 341.771 64.1074 342.873 63.8379C343.975 63.5566 345.252 63.416 346.705 63.416H349.641ZM362.912 48V75H357.85V48H362.912ZM362.191 64.8223H360.803C360.814 63.498 360.99 62.2793 361.33 61.166C361.67 60.041 362.156 59.0684 362.789 58.248C363.422 57.416 364.178 56.7715 365.057 56.3145C365.947 55.8574 366.932 55.6289 368.01 55.6289C368.947 55.6289 369.797 55.7637 370.559 56.0332C371.332 56.291 371.994 56.7129 372.545 57.2988C373.107 57.873 373.541 58.6289 373.846 59.5664C374.15 60.5039 374.303 61.6406 374.303 62.9766V75H369.205V62.9414C369.205 62.0977 369.082 61.4355 368.836 60.9551C368.602 60.4629 368.256 60.1172 367.799 59.918C367.354 59.707 366.803 59.6016 366.146 59.6016C365.42 59.6016 364.799 59.7363 364.283 60.0059C363.779 60.2754 363.375 60.6504 363.07 61.1309C362.766 61.5996 362.543 62.1504 362.402 62.7832C362.262 63.416 362.191 64.0957 362.191 64.8223Z" fill="#888888"/>
<path d="M118.676 126.52H128.246C128.118 129.29 127.371 131.733 126.004 133.848C124.637 135.962 122.741 137.612 120.316 138.797C117.91 139.964 115.066 140.547 111.785 140.547C109.124 140.547 106.745 140.1 104.648 139.207C102.57 138.314 100.802 137.029 99.3438 135.352C97.9036 133.674 96.8008 131.642 96.0352 129.254C95.2878 126.866 94.9141 124.177 94.9141 121.188V119.027C94.9141 116.038 95.306 113.349 96.0898 110.961C96.8919 108.555 98.0221 106.513 99.4805 104.836C100.957 103.141 102.725 101.846 104.785 100.953C106.845 100.06 109.133 99.6133 111.648 99.6133C115.112 99.6133 118.038 100.233 120.426 101.473C122.814 102.712 124.664 104.417 125.977 106.586C127.289 108.737 128.064 111.189 128.301 113.941H118.73C118.694 112.447 118.439 111.198 117.965 110.195C117.491 109.174 116.743 108.409 115.723 107.898C114.702 107.388 113.344 107.133 111.648 107.133C110.464 107.133 109.434 107.352 108.559 107.789C107.684 108.227 106.954 108.919 106.371 109.867C105.788 110.815 105.35 112.046 105.059 113.559C104.785 115.053 104.648 116.858 104.648 118.973V121.188C104.648 123.302 104.776 125.107 105.031 126.602C105.286 128.096 105.697 129.318 106.262 130.266C106.827 131.214 107.556 131.915 108.449 132.371C109.361 132.809 110.473 133.027 111.785 133.027C113.243 133.027 114.474 132.799 115.477 132.344C116.479 131.87 117.254 131.159 117.801 130.211C118.348 129.245 118.639 128.014 118.676 126.52ZM147.715 132.562V120.367C147.715 119.529 147.596 118.809 147.359 118.207C147.122 117.605 146.749 117.141 146.238 116.812C145.728 116.466 145.044 116.293 144.188 116.293C143.495 116.293 142.902 116.411 142.41 116.648C141.918 116.885 141.544 117.241 141.289 117.715C141.034 118.189 140.906 118.79 140.906 119.52H131.691C131.691 118.152 131.992 116.885 132.594 115.719C133.214 114.534 134.089 113.504 135.219 112.629C136.367 111.754 137.734 111.079 139.32 110.605C140.924 110.113 142.711 109.867 144.68 109.867C147.031 109.867 149.128 110.259 150.969 111.043C152.828 111.827 154.296 113.003 155.371 114.57C156.447 116.12 156.984 118.07 156.984 120.422V132.535C156.984 134.467 157.094 135.935 157.312 136.938C157.531 137.922 157.841 138.788 158.242 139.535V140H149C148.562 139.089 148.234 137.977 148.016 136.664C147.815 135.333 147.715 133.966 147.715 132.562ZM148.836 121.926L148.891 126.848H144.816C143.96 126.848 143.23 126.966 142.629 127.203C142.046 127.44 141.572 127.768 141.207 128.188C140.861 128.589 140.605 129.044 140.441 129.555C140.296 130.065 140.223 130.603 140.223 131.168C140.223 131.715 140.35 132.207 140.605 132.645C140.879 133.064 141.243 133.392 141.699 133.629C142.155 133.866 142.665 133.984 143.23 133.984C144.251 133.984 145.117 133.793 145.828 133.41C146.557 133.009 147.113 132.526 147.496 131.961C147.879 131.396 148.07 130.867 148.07 130.375L150.094 134.148C149.729 134.878 149.31 135.616 148.836 136.363C148.38 137.111 147.806 137.803 147.113 138.441C146.439 139.061 145.609 139.572 144.625 139.973C143.641 140.355 142.447 140.547 141.043 140.547C139.22 140.547 137.543 140.173 136.012 139.426C134.499 138.678 133.286 137.639 132.375 136.309C131.464 134.96 131.008 133.41 131.008 131.66C131.008 130.129 131.281 128.762 131.828 127.559C132.393 126.355 133.241 125.335 134.371 124.496C135.501 123.658 136.941 123.02 138.691 122.582C140.441 122.145 142.501 121.926 144.871 121.926H148.836ZM171.395 117.742V140H162.18V110.414H170.793L171.395 117.742ZM180.145 110.195L179.98 118.754C179.616 118.717 179.124 118.672 178.504 118.617C177.884 118.562 177.365 118.535 176.945 118.535C175.87 118.535 174.94 118.663 174.156 118.918C173.391 119.155 172.753 119.52 172.242 120.012C171.75 120.486 171.385 121.087 171.148 121.816C170.93 122.546 170.829 123.393 170.848 124.359L169.18 123.266C169.18 121.279 169.371 119.474 169.754 117.852C170.155 116.211 170.72 114.798 171.449 113.613C172.178 112.41 173.062 111.49 174.102 110.852C175.141 110.195 176.307 109.867 177.602 109.867C178.057 109.867 178.504 109.895 178.941 109.949C179.397 110.004 179.798 110.086 180.145 110.195ZM197.098 140.547C194.691 140.547 192.54 140.173 190.645 139.426C188.749 138.66 187.145 137.612 185.832 136.281C184.538 134.951 183.544 133.419 182.852 131.688C182.177 129.956 181.84 128.124 181.84 126.191V125.152C181.84 122.983 182.141 120.978 182.742 119.137C183.344 117.277 184.237 115.655 185.422 114.27C186.607 112.884 188.092 111.809 189.879 111.043C191.665 110.259 193.743 109.867 196.113 109.867C198.21 109.867 200.087 110.204 201.746 110.879C203.405 111.553 204.809 112.52 205.957 113.777C207.124 115.035 208.008 116.557 208.609 118.344C209.229 120.13 209.539 122.135 209.539 124.359V128.105H185.367V122.336H200.543V121.625C200.561 120.641 200.388 119.802 200.023 119.109C199.677 118.417 199.167 117.888 198.492 117.523C197.818 117.159 196.997 116.977 196.031 116.977C195.029 116.977 194.199 117.195 193.543 117.633C192.905 118.07 192.404 118.672 192.039 119.438C191.693 120.185 191.447 121.051 191.301 122.035C191.155 123.02 191.082 124.059 191.082 125.152V126.191C191.082 127.285 191.228 128.279 191.52 129.172C191.829 130.065 192.267 130.831 192.832 131.469C193.415 132.089 194.108 132.572 194.91 132.918C195.73 133.264 196.66 133.438 197.699 133.438C198.957 133.438 200.197 133.201 201.418 132.727C202.639 132.253 203.688 131.469 204.562 130.375L208.746 135.352C208.145 136.208 207.288 137.038 206.176 137.84C205.082 138.642 203.77 139.298 202.238 139.809C200.707 140.301 198.993 140.547 197.098 140.547ZM227.613 140.547C225.207 140.547 223.056 140.173 221.16 139.426C219.264 138.66 217.66 137.612 216.348 136.281C215.053 134.951 214.06 133.419 213.367 131.688C212.693 129.956 212.355 128.124 212.355 126.191V125.152C212.355 122.983 212.656 120.978 213.258 119.137C213.859 117.277 214.753 115.655 215.938 114.27C217.122 112.884 218.608 111.809 220.395 111.043C222.181 110.259 224.259 109.867 226.629 109.867C228.725 109.867 230.603 110.204 232.262 110.879C233.921 111.553 235.324 112.52 236.473 113.777C237.639 115.035 238.523 116.557 239.125 118.344C239.745 120.13 240.055 122.135 240.055 124.359V128.105H215.883V122.336H231.059V121.625C231.077 120.641 230.904 119.802 230.539 119.109C230.193 118.417 229.682 117.888 229.008 117.523C228.333 117.159 227.513 116.977 226.547 116.977C225.544 116.977 224.715 117.195 224.059 117.633C223.421 118.07 222.919 118.672 222.555 119.438C222.208 120.185 221.962 121.051 221.816 122.035C221.671 123.02 221.598 124.059 221.598 125.152V126.191C221.598 127.285 221.743 128.279 222.035 129.172C222.345 130.065 222.783 130.831 223.348 131.469C223.931 132.089 224.624 132.572 225.426 132.918C226.246 133.264 227.176 133.438 228.215 133.438C229.473 133.438 230.712 133.201 231.934 132.727C233.155 132.253 234.203 131.469 235.078 130.375L239.262 135.352C238.66 136.208 237.803 137.038 236.691 137.84C235.598 138.642 234.285 139.298 232.754 139.809C231.223 140.301 229.509 140.547 227.613 140.547ZM253.098 117.742V140H243.883V110.414H252.496L253.098 117.742ZM261.848 110.195L261.684 118.754C261.319 118.717 260.827 118.672 260.207 118.617C259.587 118.562 259.068 118.535 258.648 118.535C257.573 118.535 256.643 118.663 255.859 118.918C255.094 119.155 254.456 119.52 253.945 120.012C253.453 120.486 253.089 121.087 252.852 121.816C252.633 122.546 252.533 123.393 252.551 124.359L250.883 123.266C250.883 121.279 251.074 119.474 251.457 117.852C251.858 116.211 252.423 114.798 253.152 113.613C253.882 112.41 254.766 111.49 255.805 110.852C256.844 110.195 258.01 109.867 259.305 109.867C259.76 109.867 260.207 109.895 260.645 109.949C261.1 110.004 261.501 110.086 261.848 110.195ZM275.055 100.188V140H265.457V100.188H275.055ZM290.531 116.758V124.141H272.32V116.758H290.531ZM292.09 100.188V107.598H272.32V100.188H292.09ZM293.895 125.508V124.934C293.895 122.764 294.204 120.768 294.824 118.945C295.444 117.104 296.355 115.509 297.559 114.16C298.762 112.811 300.247 111.763 302.016 111.016C303.784 110.25 305.826 109.867 308.141 109.867C310.474 109.867 312.525 110.25 314.293 111.016C316.079 111.763 317.574 112.811 318.777 114.16C319.98 115.509 320.892 117.104 321.512 118.945C322.132 120.768 322.441 122.764 322.441 124.934V125.508C322.441 127.659 322.132 129.655 321.512 131.496C320.892 133.319 319.98 134.914 318.777 136.281C317.574 137.63 316.089 138.678 314.32 139.426C312.552 140.173 310.51 140.547 308.195 140.547C305.88 140.547 303.829 140.173 302.043 139.426C300.257 138.678 298.762 137.63 297.559 136.281C296.355 134.914 295.444 133.319 294.824 131.496C294.204 129.655 293.895 127.659 293.895 125.508ZM303.109 124.934V125.508C303.109 126.62 303.191 127.659 303.355 128.625C303.52 129.591 303.793 130.439 304.176 131.168C304.559 131.879 305.078 132.435 305.734 132.836C306.391 133.237 307.211 133.438 308.195 133.438C309.161 133.438 309.964 133.237 310.602 132.836C311.258 132.435 311.777 131.879 312.16 131.168C312.543 130.439 312.816 129.591 312.98 128.625C313.145 127.659 313.227 126.62 313.227 125.508V124.934C313.227 123.858 313.145 122.846 312.98 121.898C312.816 120.932 312.543 120.085 312.16 119.355C311.777 118.608 311.258 118.025 310.602 117.605C309.945 117.186 309.125 116.977 308.141 116.977C307.174 116.977 306.363 117.186 305.707 117.605C305.069 118.025 304.559 118.608 304.176 119.355C303.793 120.085 303.52 120.932 303.355 121.898C303.191 122.846 303.109 123.858 303.109 124.934ZM335.84 117.742V140H326.625V110.414H335.238L335.84 117.742ZM344.59 110.195L344.426 118.754C344.061 118.717 343.569 118.672 342.949 118.617C342.329 118.562 341.81 118.535 341.391 118.535C340.315 118.535 339.385 118.663 338.602 118.918C337.836 119.155 337.198 119.52 336.688 120.012C336.195 120.486 335.831 121.087 335.594 121.816C335.375 122.546 335.275 123.393 335.293 124.359L333.625 123.266C333.625 121.279 333.816 119.474 334.199 117.852C334.6 116.211 335.165 114.798 335.895 113.613C336.624 112.41 337.508 111.49 338.547 110.852C339.586 110.195 340.753 109.867 342.047 109.867C342.503 109.867 342.949 109.895 343.387 109.949C343.842 110.004 344.243 110.086 344.59 110.195ZM365.809 110.414H374.176V138.852C374.176 141.586 373.547 143.901 372.289 145.797C371.031 147.711 369.272 149.16 367.012 150.145C364.77 151.147 362.145 151.648 359.137 151.648C357.806 151.648 356.448 151.475 355.062 151.129C353.677 150.801 352.383 150.309 351.18 149.652C349.977 148.996 348.965 148.185 348.145 147.219L352 141.805C352.747 142.643 353.686 143.354 354.816 143.938C355.947 144.539 357.277 144.84 358.809 144.84C360.139 144.84 361.251 144.603 362.145 144.129C363.056 143.655 363.749 142.962 364.223 142.051C364.697 141.158 364.934 140.073 364.934 138.797V117.414L365.809 110.414ZM346.148 125.562V124.988C346.148 122.746 346.422 120.704 346.969 118.863C347.534 117.004 348.336 115.409 349.375 114.078C350.432 112.729 351.708 111.69 353.203 110.961C354.698 110.232 356.384 109.867 358.262 109.867C360.285 109.867 361.944 110.259 363.238 111.043C364.551 111.809 365.599 112.884 366.383 114.27C367.185 115.655 367.805 117.277 368.242 119.137C368.698 120.978 369.081 122.965 369.391 125.098V125.781C369.081 127.786 368.652 129.682 368.105 131.469C367.577 133.237 366.884 134.805 366.027 136.172C365.171 137.539 364.095 138.615 362.801 139.398C361.525 140.164 359.993 140.547 358.207 140.547C356.348 140.547 354.671 140.173 353.176 139.426C351.699 138.678 350.432 137.63 349.375 136.281C348.336 134.932 347.534 133.346 346.969 131.523C346.422 129.701 346.148 127.714 346.148 125.562ZM355.363 124.988V125.562C355.363 126.674 355.464 127.704 355.664 128.652C355.883 129.6 356.211 130.439 356.648 131.168C357.086 131.879 357.624 132.435 358.262 132.836C358.918 133.237 359.684 133.438 360.559 133.438C361.889 133.438 362.965 133.155 363.785 132.59C364.605 132.025 365.198 131.223 365.562 130.184C365.927 129.145 366.082 127.923 366.027 126.52V124.359C366.064 123.156 365.982 122.099 365.781 121.188C365.581 120.258 365.262 119.483 364.824 118.863C364.405 118.243 363.84 117.779 363.129 117.469C362.436 117.141 361.598 116.977 360.613 116.977C359.757 116.977 359 117.177 358.344 117.578C357.688 117.979 357.141 118.544 356.703 119.273C356.266 119.984 355.928 120.832 355.691 121.816C355.473 122.783 355.363 123.84 355.363 124.988ZM393.809 140.547C391.402 140.547 389.251 140.173 387.355 139.426C385.46 138.66 383.855 137.612 382.543 136.281C381.249 134.951 380.255 133.419 379.562 131.688C378.888 129.956 378.551 128.124 378.551 126.191V125.152C378.551 122.983 378.852 120.978 379.453 119.137C380.055 117.277 380.948 115.655 382.133 114.27C383.318 112.884 384.803 111.809 386.59 111.043C388.376 110.259 390.454 109.867 392.824 109.867C394.921 109.867 396.798 110.204 398.457 110.879C400.116 111.553 401.52 112.52 402.668 113.777C403.835 115.035 404.719 116.557 405.32 118.344C405.94 120.13 406.25 122.135 406.25 124.359V128.105H382.078V122.336H397.254V121.625C397.272 120.641 397.099 119.802 396.734 119.109C396.388 118.417 395.878 117.888 395.203 117.523C394.529 117.159 393.708 116.977 392.742 116.977C391.74 116.977 390.91 117.195 390.254 117.633C389.616 118.07 389.115 118.672 388.75 119.438C388.404 120.185 388.158 121.051 388.012 122.035C387.866 123.02 387.793 124.059 387.793 125.152V126.191C387.793 127.285 387.939 128.279 388.23 129.172C388.54 130.065 388.978 130.831 389.543 131.469C390.126 132.089 390.819 132.572 391.621 132.918C392.441 133.264 393.371 133.438 394.41 133.438C395.668 133.438 396.908 133.201 398.129 132.727C399.35 132.253 400.398 131.469 401.273 130.375L405.457 135.352C404.855 136.208 403.999 137.038 402.887 137.84C401.793 138.642 400.48 139.298 398.949 139.809C397.418 140.301 395.704 140.547 393.809 140.547ZM427.305 108.555L417.598 140H407.289L421.918 100.188H428.453L427.305 108.555ZM435.344 140L425.609 108.555L424.352 100.188H430.969L445.68 140H435.344ZM434.961 125.152V132.562H414.535V125.152H434.961ZM458.805 100.188V140H449.234V100.188H458.805Z" fill="black"/>
<rect x="93" y="178" width="917" height="77" rx="10" fill="#D3D3D3"/>
<rect x="111" y="196" width="91" height="41" rx="3" fill="#424242"/>
<rect x="111" y="196" width="91" height="41" rx="3" stroke="#424242" stroke-width="4"/>
<path d="M134.141 210.203H139.177C140.161 210.203 141.017 210.35 141.743 210.643C142.47 210.936 143.029 211.369 143.422 211.943C143.82 212.518 144.02 213.227 144.02 214.07C144.02 214.803 143.905 215.415 143.677 215.907C143.448 216.399 143.129 216.807 142.719 217.129C142.314 217.445 141.843 217.706 141.304 217.911L140.293 218.482H136.065L136.048 216.101H139.177C139.569 216.101 139.895 216.03 140.152 215.89C140.41 215.749 140.604 215.55 140.732 215.292C140.867 215.028 140.935 214.715 140.935 214.352C140.935 213.982 140.867 213.666 140.732 213.402C140.598 213.139 140.398 212.937 140.135 212.796C139.877 212.655 139.558 212.585 139.177 212.585H137.226V223H134.141V210.203ZM141.146 223L138.315 217.34L141.585 217.322L144.45 222.868V223H141.146ZM150.348 223.176C149.574 223.176 148.883 223.056 148.273 222.815C147.664 222.569 147.148 222.232 146.727 221.805C146.311 221.377 145.991 220.885 145.769 220.328C145.552 219.771 145.443 219.183 145.443 218.562V218.228C145.443 217.53 145.54 216.886 145.733 216.294C145.927 215.696 146.214 215.175 146.595 214.729C146.976 214.284 147.453 213.938 148.027 213.692C148.602 213.44 149.27 213.314 150.031 213.314C150.705 213.314 151.309 213.423 151.842 213.64C152.375 213.856 152.826 214.167 153.195 214.571C153.57 214.976 153.854 215.465 154.048 216.039C154.247 216.613 154.347 217.258 154.347 217.973V219.177H146.577V217.322H151.455V217.094C151.461 216.777 151.405 216.508 151.288 216.285C151.177 216.062 151.013 215.893 150.796 215.775C150.579 215.658 150.315 215.6 150.005 215.6C149.683 215.6 149.416 215.67 149.205 215.811C149 215.951 148.839 216.145 148.722 216.391C148.61 216.631 148.531 216.909 148.484 217.226C148.438 217.542 148.414 217.876 148.414 218.228V218.562C148.414 218.913 148.461 219.232 148.555 219.52C148.654 219.807 148.795 220.053 148.977 220.258C149.164 220.457 149.387 220.612 149.645 220.724C149.908 220.835 150.207 220.891 150.541 220.891C150.945 220.891 151.344 220.814 151.736 220.662C152.129 220.51 152.466 220.258 152.747 219.906L154.092 221.506C153.898 221.781 153.623 222.048 153.266 222.306C152.914 222.563 152.492 222.774 152 222.938C151.508 223.097 150.957 223.176 150.348 223.176ZM160.49 220.609V216.689C160.49 216.42 160.452 216.188 160.376 215.995C160.3 215.802 160.18 215.652 160.016 215.547C159.852 215.436 159.632 215.38 159.356 215.38C159.134 215.38 158.943 215.418 158.785 215.494C158.627 215.57 158.507 215.685 158.425 215.837C158.343 215.989 158.302 216.183 158.302 216.417H155.34C155.34 215.978 155.437 215.57 155.63 215.195C155.829 214.814 156.11 214.483 156.474 214.202C156.843 213.921 157.282 213.704 157.792 213.552C158.308 213.394 158.882 213.314 159.515 213.314C160.271 213.314 160.944 213.44 161.536 213.692C162.134 213.944 162.605 214.322 162.951 214.826C163.297 215.324 163.47 215.951 163.47 216.707V220.601C163.47 221.222 163.505 221.693 163.575 222.016C163.646 222.332 163.745 222.61 163.874 222.851V223H160.903C160.763 222.707 160.657 222.35 160.587 221.928C160.522 221.5 160.49 221.061 160.49 220.609ZM160.851 217.19L160.868 218.772H159.559C159.283 218.772 159.049 218.811 158.855 218.887C158.668 218.963 158.516 219.068 158.398 219.203C158.287 219.332 158.205 219.479 158.152 219.643C158.105 219.807 158.082 219.979 158.082 220.161C158.082 220.337 158.123 220.495 158.205 220.636C158.293 220.771 158.41 220.876 158.557 220.952C158.703 221.028 158.867 221.066 159.049 221.066C159.377 221.066 159.655 221.005 159.884 220.882C160.118 220.753 160.297 220.598 160.42 220.416C160.543 220.234 160.604 220.064 160.604 219.906L161.255 221.119C161.138 221.354 161.003 221.591 160.851 221.831C160.704 222.071 160.52 222.294 160.297 222.499C160.08 222.698 159.813 222.862 159.497 222.991C159.181 223.114 158.797 223.176 158.346 223.176C157.76 223.176 157.221 223.056 156.729 222.815C156.242 222.575 155.853 222.241 155.56 221.813C155.267 221.38 155.12 220.882 155.12 220.319C155.12 219.827 155.208 219.388 155.384 219.001C155.565 218.614 155.838 218.286 156.201 218.017C156.564 217.747 157.027 217.542 157.59 217.401C158.152 217.261 158.814 217.19 159.576 217.19H160.851ZM169.13 220.891C169.405 220.891 169.64 220.841 169.833 220.741C170.032 220.636 170.182 220.489 170.281 220.302C170.387 220.108 170.437 219.877 170.431 219.607H173.217C173.223 220.322 173.047 220.949 172.689 221.488C172.338 222.021 171.857 222.438 171.248 222.736C170.645 223.029 169.962 223.176 169.2 223.176C168.456 223.176 167.806 223.056 167.249 222.815C166.692 222.569 166.227 222.229 165.852 221.796C165.482 221.356 165.204 220.844 165.017 220.258C164.835 219.672 164.744 219.036 164.744 218.351V218.148C164.744 217.463 164.835 216.827 165.017 216.241C165.204 215.649 165.482 215.137 165.852 214.703C166.227 214.264 166.689 213.924 167.24 213.684C167.797 213.438 168.444 213.314 169.183 213.314C169.974 213.314 170.671 213.464 171.274 213.763C171.884 214.062 172.361 214.495 172.707 215.063C173.053 215.632 173.223 216.32 173.217 217.129H170.431C170.437 216.842 170.393 216.584 170.299 216.355C170.205 216.127 170.059 215.945 169.859 215.811C169.666 215.67 169.417 215.6 169.112 215.6C168.808 215.6 168.562 215.667 168.374 215.802C168.187 215.937 168.043 216.124 167.943 216.364C167.85 216.599 167.785 216.868 167.75 217.173C167.721 217.478 167.706 217.803 167.706 218.148V218.351C167.706 218.702 167.721 219.033 167.75 219.344C167.785 219.648 167.853 219.918 167.952 220.152C168.052 220.381 168.195 220.562 168.383 220.697C168.57 220.826 168.819 220.891 169.13 220.891ZM179.492 213.49V215.547H173.762V213.49H179.492ZM174.966 211.126H177.928V219.897C177.928 220.149 177.957 220.346 178.016 220.486C178.074 220.621 178.174 220.718 178.314 220.776C178.461 220.829 178.654 220.855 178.895 220.855C179.064 220.855 179.205 220.853 179.316 220.847C179.428 220.835 179.533 220.82 179.633 220.803V222.921C179.381 223.003 179.117 223.064 178.842 223.105C178.566 223.152 178.273 223.176 177.963 223.176C177.33 223.176 176.788 223.076 176.337 222.877C175.892 222.678 175.552 222.364 175.317 221.937C175.083 221.509 174.966 220.952 174.966 220.267V211.126Z" fill="white"/>
<rect x="222" y="196" width="109" height="41" rx="3" fill="#424242"/>
<rect x="222" y="196" width="109" height="41" rx="3" stroke="#424242" stroke-width="4"/>
<path d="M256.118 210.203V223H253.042L248.516 215.037V223H245.431V210.203H248.516L253.042 218.166V210.203H256.118ZM257.56 218.342V218.157C257.56 217.46 257.659 216.818 257.858 216.232C258.058 215.641 258.351 215.128 258.737 214.694C259.124 214.261 259.602 213.924 260.17 213.684C260.738 213.438 261.395 213.314 262.139 213.314C262.889 213.314 263.548 213.438 264.116 213.684C264.69 213.924 265.171 214.261 265.558 214.694C265.944 215.128 266.237 215.641 266.437 216.232C266.636 216.818 266.735 217.46 266.735 218.157V218.342C266.735 219.033 266.636 219.675 266.437 220.267C266.237 220.853 265.944 221.365 265.558 221.805C265.171 222.238 264.693 222.575 264.125 222.815C263.557 223.056 262.9 223.176 262.156 223.176C261.412 223.176 260.753 223.056 260.179 222.815C259.604 222.575 259.124 222.238 258.737 221.805C258.351 221.365 258.058 220.853 257.858 220.267C257.659 219.675 257.56 219.033 257.56 218.342ZM260.521 218.157V218.342C260.521 218.699 260.548 219.033 260.601 219.344C260.653 219.654 260.741 219.927 260.864 220.161C260.987 220.39 261.154 220.568 261.365 220.697C261.576 220.826 261.84 220.891 262.156 220.891C262.467 220.891 262.725 220.826 262.93 220.697C263.141 220.568 263.308 220.39 263.431 220.161C263.554 219.927 263.642 219.654 263.694 219.344C263.747 219.033 263.773 218.699 263.773 218.342V218.157C263.773 217.812 263.747 217.486 263.694 217.182C263.642 216.871 263.554 216.599 263.431 216.364C263.308 216.124 263.141 215.937 262.93 215.802C262.719 215.667 262.455 215.6 262.139 215.6C261.828 215.6 261.567 215.667 261.356 215.802C261.151 215.937 260.987 216.124 260.864 216.364C260.741 216.599 260.653 216.871 260.601 217.182C260.548 217.486 260.521 217.812 260.521 218.157ZM273.521 220.82V209.5H276.5V223H273.828L273.521 220.82ZM267.685 218.359V218.175C267.685 217.454 267.764 216.798 267.922 216.206C268.08 215.608 268.314 215.096 268.625 214.668C268.936 214.234 269.322 213.9 269.785 213.666C270.248 213.432 270.781 213.314 271.385 213.314C271.924 213.314 272.396 213.44 272.8 213.692C273.204 213.938 273.55 214.284 273.837 214.729C274.124 215.175 274.358 215.696 274.54 216.294C274.722 216.886 274.859 217.524 274.953 218.21V218.43C274.859 219.074 274.722 219.684 274.54 220.258C274.358 220.826 274.124 221.33 273.837 221.77C273.55 222.209 273.201 222.555 272.791 222.807C272.387 223.053 271.912 223.176 271.367 223.176C270.764 223.176 270.23 223.056 269.768 222.815C269.311 222.575 268.927 222.238 268.616 221.805C268.312 221.371 268.08 220.861 267.922 220.275C267.764 219.689 267.685 219.051 267.685 218.359ZM270.646 218.175V218.359C270.646 218.717 270.67 219.048 270.717 219.353C270.764 219.657 270.843 219.927 270.954 220.161C271.071 220.39 271.224 220.568 271.411 220.697C271.604 220.826 271.842 220.891 272.123 220.891C272.504 220.891 272.817 220.8 273.063 220.618C273.315 220.437 273.5 220.179 273.617 219.845C273.74 219.511 273.793 219.118 273.775 218.667V217.973C273.787 217.586 273.761 217.246 273.696 216.953C273.632 216.654 273.529 216.405 273.389 216.206C273.254 216.007 273.081 215.857 272.87 215.758C272.665 215.652 272.422 215.6 272.141 215.6C271.865 215.6 271.631 215.664 271.438 215.793C271.25 215.922 271.098 216.104 270.98 216.338C270.863 216.566 270.778 216.839 270.726 217.155C270.673 217.466 270.646 217.806 270.646 218.175ZM282.784 223.176C282.011 223.176 281.319 223.056 280.71 222.815C280.101 222.569 279.585 222.232 279.163 221.805C278.747 221.377 278.428 220.885 278.205 220.328C277.988 219.771 277.88 219.183 277.88 218.562V218.228C277.88 217.53 277.977 216.886 278.17 216.294C278.363 215.696 278.65 215.175 279.031 214.729C279.412 214.284 279.89 213.938 280.464 213.692C281.038 213.44 281.706 213.314 282.468 213.314C283.142 213.314 283.745 213.423 284.278 213.64C284.812 213.856 285.263 214.167 285.632 214.571C286.007 214.976 286.291 215.465 286.484 216.039C286.684 216.613 286.783 217.258 286.783 217.973V219.177H279.014V217.322H283.892V217.094C283.897 216.777 283.842 216.508 283.725 216.285C283.613 216.062 283.449 215.893 283.232 215.775C283.016 215.658 282.752 215.6 282.441 215.6C282.119 215.6 281.853 215.67 281.642 215.811C281.437 215.951 281.275 216.145 281.158 216.391C281.047 216.631 280.968 216.909 280.921 217.226C280.874 217.542 280.851 217.876 280.851 218.228V218.562C280.851 218.913 280.897 219.232 280.991 219.52C281.091 219.807 281.231 220.053 281.413 220.258C281.601 220.457 281.823 220.612 282.081 220.724C282.345 220.835 282.644 220.891 282.978 220.891C283.382 220.891 283.78 220.814 284.173 220.662C284.565 220.51 284.902 220.258 285.184 219.906L286.528 221.506C286.335 221.781 286.06 222.048 285.702 222.306C285.351 222.563 284.929 222.774 284.437 222.938C283.944 223.097 283.394 223.176 282.784 223.176ZM293.217 218.983V210.203H296.293V218.983C296.293 219.839 296.097 220.58 295.704 221.207C295.317 221.834 294.79 222.32 294.122 222.666C293.46 223.006 292.716 223.176 291.89 223.176C291.034 223.176 290.272 223.032 289.604 222.745C288.942 222.458 288.421 222.016 288.04 221.418C287.665 220.82 287.478 220.059 287.478 219.133H290.571C290.571 219.566 290.621 219.906 290.721 220.152C290.82 220.393 290.967 220.562 291.16 220.662C291.359 220.756 291.603 220.803 291.89 220.803C292.171 220.803 292.408 220.732 292.602 220.592C292.801 220.445 292.953 220.237 293.059 219.968C293.164 219.692 293.217 219.364 293.217 218.983ZM304.845 219.599C304.845 219.399 304.815 219.221 304.757 219.062C304.698 218.898 304.59 218.746 304.432 218.605C304.273 218.465 304.045 218.324 303.746 218.184C303.453 218.037 303.066 217.885 302.586 217.727C302.023 217.539 301.481 217.328 300.96 217.094C300.438 216.854 299.973 216.575 299.562 216.259C299.152 215.937 298.827 215.562 298.587 215.134C298.347 214.7 298.227 214.196 298.227 213.622C298.227 213.071 298.35 212.576 298.596 212.137C298.842 211.691 299.185 211.313 299.624 211.003C300.069 210.687 300.591 210.446 301.188 210.282C301.786 210.112 302.439 210.027 303.148 210.027C304.086 210.027 304.912 210.191 305.627 210.52C306.348 210.842 306.91 211.302 307.314 211.899C307.725 212.491 307.93 213.191 307.93 214H304.862C304.862 213.678 304.795 213.394 304.66 213.147C304.531 212.901 304.335 212.708 304.071 212.567C303.808 212.427 303.477 212.356 303.078 212.356C302.691 212.356 302.366 212.415 302.103 212.532C301.839 212.649 301.64 212.808 301.505 213.007C301.37 213.2 301.303 213.414 301.303 213.648C301.303 213.842 301.355 214.018 301.461 214.176C301.572 214.328 301.728 214.472 301.927 214.606C302.132 214.741 302.378 214.87 302.665 214.993C302.958 215.116 303.286 215.236 303.649 215.354C304.329 215.57 304.933 215.813 305.46 216.083C305.993 216.347 306.441 216.648 306.805 216.988C307.174 217.322 307.452 217.703 307.64 218.131C307.833 218.559 307.93 219.042 307.93 219.581C307.93 220.155 307.818 220.665 307.596 221.11C307.373 221.556 307.054 221.934 306.638 222.244C306.222 222.549 305.724 222.78 305.144 222.938C304.563 223.097 303.916 223.176 303.201 223.176C302.545 223.176 301.897 223.094 301.259 222.93C300.626 222.76 300.052 222.502 299.536 222.156C299.021 221.805 298.607 221.356 298.297 220.812C297.992 220.261 297.84 219.607 297.84 218.852H300.934C300.934 219.227 300.983 219.543 301.083 219.801C301.183 220.059 301.329 220.267 301.522 220.425C301.716 220.577 301.953 220.688 302.234 220.759C302.516 220.823 302.838 220.855 303.201 220.855C303.594 220.855 303.91 220.8 304.15 220.688C304.391 220.571 304.566 220.419 304.678 220.231C304.789 220.038 304.845 219.827 304.845 219.599Z" fill="white"/>
<rect x="351" y="196" width="104" height="41" rx="3" fill="#424242"/>
<rect x="351" y="196" width="104" height="41" rx="3" stroke="#424242" stroke-width="4"/>
<path d="M382.812 220.627V223H376.343V220.627H382.812ZM377.441 210.203V223H374.356V210.203H377.441ZM388.911 220.609V216.689C388.911 216.42 388.873 216.188 388.797 215.995C388.721 215.802 388.601 215.652 388.437 215.547C388.272 215.436 388.053 215.38 387.777 215.38C387.555 215.38 387.364 215.418 387.206 215.494C387.048 215.57 386.928 215.685 386.846 215.837C386.764 215.989 386.723 216.183 386.723 216.417H383.761C383.761 215.978 383.857 215.57 384.051 215.195C384.25 214.814 384.531 214.483 384.895 214.202C385.264 213.921 385.703 213.704 386.213 213.552C386.729 213.394 387.303 213.314 387.936 213.314C388.691 213.314 389.365 213.44 389.957 213.692C390.555 213.944 391.026 214.322 391.372 214.826C391.718 215.324 391.891 215.951 391.891 216.707V220.601C391.891 221.222 391.926 221.693 391.996 222.016C392.066 222.332 392.166 222.61 392.295 222.851V223H389.324C389.184 222.707 389.078 222.35 389.008 221.928C388.943 221.5 388.911 221.061 388.911 220.609ZM389.271 217.19L389.289 218.772H387.979C387.704 218.772 387.47 218.811 387.276 218.887C387.089 218.963 386.937 219.068 386.819 219.203C386.708 219.332 386.626 219.479 386.573 219.643C386.526 219.807 386.503 219.979 386.503 220.161C386.503 220.337 386.544 220.495 386.626 220.636C386.714 220.771 386.831 220.876 386.978 220.952C387.124 221.028 387.288 221.066 387.47 221.066C387.798 221.066 388.076 221.005 388.305 220.882C388.539 220.753 388.718 220.598 388.841 220.416C388.964 220.234 389.025 220.064 389.025 219.906L389.676 221.119C389.559 221.354 389.424 221.591 389.271 221.831C389.125 222.071 388.94 222.294 388.718 222.499C388.501 222.698 388.234 222.862 387.918 222.991C387.602 223.114 387.218 223.176 386.767 223.176C386.181 223.176 385.642 223.056 385.149 222.815C384.663 222.575 384.273 222.241 383.98 221.813C383.688 221.38 383.541 220.882 383.541 220.319C383.541 219.827 383.629 219.388 383.805 219.001C383.986 218.614 384.259 218.286 384.622 218.017C384.985 217.747 385.448 217.542 386.011 217.401C386.573 217.261 387.235 217.19 387.997 217.19H389.271ZM396.522 215.846V223H393.561V213.49H396.329L396.522 215.846ZM399.335 213.42L399.282 216.171C399.165 216.159 399.007 216.145 398.808 216.127C398.608 216.109 398.441 216.101 398.307 216.101C397.961 216.101 397.662 216.142 397.41 216.224C397.164 216.3 396.959 216.417 396.795 216.575C396.637 216.728 396.52 216.921 396.443 217.155C396.373 217.39 396.341 217.662 396.347 217.973L395.811 217.621C395.811 216.982 395.872 216.402 395.995 215.881C396.124 215.354 396.306 214.899 396.54 214.519C396.774 214.132 397.059 213.836 397.393 213.631C397.727 213.42 398.102 213.314 398.518 213.314C398.664 213.314 398.808 213.323 398.948 213.341C399.095 213.358 399.224 213.385 399.335 213.42ZM405.03 220.609V216.689C405.03 216.42 404.992 216.188 404.916 215.995C404.84 215.802 404.72 215.652 404.556 215.547C404.392 215.436 404.172 215.38 403.896 215.38C403.674 215.38 403.483 215.418 403.325 215.494C403.167 215.57 403.047 215.685 402.965 215.837C402.883 215.989 402.842 216.183 402.842 216.417H399.88C399.88 215.978 399.977 215.57 400.17 215.195C400.369 214.814 400.65 214.483 401.014 214.202C401.383 213.921 401.822 213.704 402.332 213.552C402.848 213.394 403.422 213.314 404.055 213.314C404.811 213.314 405.484 213.44 406.076 213.692C406.674 213.944 407.146 214.322 407.491 214.826C407.837 215.324 408.01 215.951 408.01 216.707V220.601C408.01 221.222 408.045 221.693 408.115 222.016C408.186 222.332 408.285 222.61 408.414 222.851V223H405.443C405.303 222.707 405.197 222.35 405.127 221.928C405.062 221.5 405.03 221.061 405.03 220.609ZM405.391 217.19L405.408 218.772H404.099C403.823 218.772 403.589 218.811 403.396 218.887C403.208 218.963 403.056 219.068 402.938 219.203C402.827 219.332 402.745 219.479 402.692 219.643C402.646 219.807 402.622 219.979 402.622 220.161C402.622 220.337 402.663 220.495 402.745 220.636C402.833 220.771 402.95 220.876 403.097 220.952C403.243 221.028 403.407 221.066 403.589 221.066C403.917 221.066 404.195 221.005 404.424 220.882C404.658 220.753 404.837 220.598 404.96 220.416C405.083 220.234 405.145 220.064 405.145 219.906L405.795 221.119C405.678 221.354 405.543 221.591 405.391 221.831C405.244 222.071 405.06 222.294 404.837 222.499C404.62 222.698 404.354 222.862 404.037 222.991C403.721 223.114 403.337 223.176 402.886 223.176C402.3 223.176 401.761 223.056 401.269 222.815C400.782 222.575 400.393 222.241 400.1 221.813C399.807 221.38 399.66 220.882 399.66 220.319C399.66 219.827 399.748 219.388 399.924 219.001C400.105 218.614 400.378 218.286 400.741 218.017C401.104 217.747 401.567 217.542 402.13 217.401C402.692 217.261 403.354 217.19 404.116 217.19H405.391ZM412.94 220.97L414.812 213.49H417.933L414.821 223H412.976L412.94 220.97ZM411.833 213.49L413.679 220.97L413.661 223H411.807L408.704 213.49H411.833ZM423.294 223.176C422.521 223.176 421.829 223.056 421.22 222.815C420.61 222.569 420.095 222.232 419.673 221.805C419.257 221.377 418.938 220.885 418.715 220.328C418.498 219.771 418.39 219.183 418.39 218.562V218.228C418.39 217.53 418.486 216.886 418.68 216.294C418.873 215.696 419.16 215.175 419.541 214.729C419.922 214.284 420.399 213.938 420.974 213.692C421.548 213.44 422.216 213.314 422.978 213.314C423.651 213.314 424.255 213.423 424.788 213.64C425.321 213.856 425.772 214.167 426.142 214.571C426.517 214.976 426.801 215.465 426.994 216.039C427.193 216.613 427.293 217.258 427.293 217.973V219.177H419.523V217.322H424.401V217.094C424.407 216.777 424.352 216.508 424.234 216.285C424.123 216.062 423.959 215.893 423.742 215.775C423.525 215.658 423.262 215.6 422.951 215.6C422.629 215.6 422.362 215.67 422.151 215.811C421.946 215.951 421.785 216.145 421.668 216.391C421.557 216.631 421.478 216.909 421.431 217.226C421.384 217.542 421.36 217.876 421.36 218.228V218.562C421.36 218.913 421.407 219.232 421.501 219.52C421.601 219.807 421.741 220.053 421.923 220.258C422.11 220.457 422.333 220.612 422.591 220.724C422.854 220.835 423.153 220.891 423.487 220.891C423.892 220.891 424.29 220.814 424.683 220.662C425.075 220.51 425.412 220.258 425.693 219.906L427.038 221.506C426.845 221.781 426.569 222.048 426.212 222.306C425.86 222.563 425.438 222.774 424.946 222.938C424.454 223.097 423.903 223.176 423.294 223.176ZM431.626 209.5V223H428.655V209.5H431.626Z" fill="white"/>
<rect x="475" y="196" width="103" height="41" rx="3" fill="#424242"/>
<rect x="475" y="196" width="103" height="41" rx="3" stroke="#424242" stroke-width="4"/>
<path d="M499.72 210.203H502.233L505.09 219.106L507.946 210.203H510.46L506.109 223H504.07L499.72 210.203ZM498.19 210.203H500.792L501.275 220.012V223H498.19V210.203ZM509.388 210.203H511.998V223H508.904V220.012L509.388 210.203ZM516.753 221.884L519.214 213.49H522.396L518.572 224.415C518.49 224.655 518.382 224.913 518.247 225.188C518.112 225.47 517.928 225.736 517.693 225.988C517.459 226.24 517.157 226.445 516.788 226.604C516.425 226.762 515.974 226.841 515.435 226.841C515.147 226.841 514.937 226.826 514.802 226.797C514.673 226.773 514.474 226.729 514.204 226.665V224.547C514.28 224.547 514.345 224.547 514.397 224.547C514.456 224.547 514.521 224.547 514.591 224.547C514.907 224.547 515.159 224.515 515.347 224.45C515.54 224.386 515.687 224.292 515.786 224.169C515.892 224.046 515.974 223.896 516.032 223.721L516.753 221.884ZM516.129 213.49L518.001 220.144L518.326 223.281H516.34L512.956 213.49H516.129ZM529.901 219.599C529.901 219.399 529.872 219.221 529.813 219.062C529.755 218.898 529.646 218.746 529.488 218.605C529.33 218.465 529.102 218.324 528.803 218.184C528.51 218.037 528.123 217.885 527.643 217.727C527.08 217.539 526.538 217.328 526.017 217.094C525.495 216.854 525.029 216.575 524.619 216.259C524.209 215.937 523.884 215.562 523.644 215.134C523.403 214.7 523.283 214.196 523.283 213.622C523.283 213.071 523.406 212.576 523.652 212.137C523.898 211.691 524.241 211.313 524.681 211.003C525.126 210.687 525.647 210.446 526.245 210.282C526.843 210.112 527.496 210.027 528.205 210.027C529.143 210.027 529.969 210.191 530.684 210.52C531.404 210.842 531.967 211.302 532.371 211.899C532.781 212.491 532.986 213.191 532.986 214H529.919C529.919 213.678 529.852 213.394 529.717 213.147C529.588 212.901 529.392 212.708 529.128 212.567C528.864 212.427 528.533 212.356 528.135 212.356C527.748 212.356 527.423 212.415 527.159 212.532C526.896 212.649 526.696 212.808 526.562 213.007C526.427 213.2 526.359 213.414 526.359 213.648C526.359 213.842 526.412 214.018 526.518 214.176C526.629 214.328 526.784 214.472 526.983 214.606C527.188 214.741 527.435 214.87 527.722 214.993C528.015 215.116 528.343 215.236 528.706 215.354C529.386 215.57 529.989 215.813 530.517 216.083C531.05 216.347 531.498 216.648 531.861 216.988C532.23 217.322 532.509 217.703 532.696 218.131C532.89 218.559 532.986 219.042 532.986 219.581C532.986 220.155 532.875 220.665 532.652 221.11C532.43 221.556 532.11 221.934 531.694 222.244C531.278 222.549 530.78 222.78 530.2 222.938C529.62 223.097 528.973 223.176 528.258 223.176C527.602 223.176 526.954 223.094 526.315 222.93C525.683 222.76 525.108 222.502 524.593 222.156C524.077 221.805 523.664 221.356 523.354 220.812C523.049 220.261 522.896 219.607 522.896 218.852H525.99C525.99 219.227 526.04 219.543 526.14 219.801C526.239 220.059 526.386 220.267 526.579 220.425C526.772 220.577 527.01 220.688 527.291 220.759C527.572 220.823 527.895 220.855 528.258 220.855C528.65 220.855 528.967 220.8 529.207 220.688C529.447 220.571 529.623 220.419 529.734 220.231C529.846 220.038 529.901 219.827 529.901 219.599ZM541.714 220.891L545.282 223.721L543.366 225.338L539.859 222.508L541.714 220.891ZM545.432 216.347V216.865C545.432 217.844 545.294 218.723 545.019 219.502C544.749 220.275 544.362 220.938 543.858 221.488C543.36 222.033 542.771 222.452 542.092 222.745C541.412 223.032 540.662 223.176 539.842 223.176C539.016 223.176 538.26 223.032 537.574 222.745C536.895 222.452 536.303 222.033 535.799 221.488C535.301 220.938 534.914 220.275 534.639 219.502C534.369 218.723 534.234 217.844 534.234 216.865V216.347C534.234 215.368 534.369 214.489 534.639 213.71C534.914 212.931 535.298 212.269 535.79 211.724C536.288 211.173 536.877 210.754 537.557 210.467C538.242 210.174 538.998 210.027 539.824 210.027C540.645 210.027 541.395 210.174 542.074 210.467C542.76 210.754 543.352 211.173 543.85 211.724C544.354 212.269 544.743 212.931 545.019 213.71C545.294 214.489 545.432 215.368 545.432 216.347ZM542.294 216.865V216.329C542.294 215.696 542.238 215.14 542.127 214.659C542.021 214.173 541.863 213.766 541.652 213.438C541.441 213.109 541.181 212.863 540.87 212.699C540.565 212.529 540.217 212.444 539.824 212.444C539.414 212.444 539.057 212.529 538.752 212.699C538.447 212.863 538.192 213.109 537.987 213.438C537.782 213.766 537.627 214.173 537.521 214.659C537.422 215.14 537.372 215.696 537.372 216.329V216.865C537.372 217.492 537.422 218.049 537.521 218.535C537.627 219.016 537.782 219.423 537.987 219.757C538.198 220.091 538.456 220.343 538.761 220.513C539.071 220.683 539.432 220.768 539.842 220.768C540.234 220.768 540.583 220.683 540.888 220.513C541.192 220.343 541.447 220.091 541.652 219.757C541.863 219.423 542.021 219.016 542.127 218.535C542.238 218.049 542.294 217.492 542.294 216.865ZM555.46 220.627V223H548.991V220.627H555.46ZM550.09 210.203V223H547.005V210.203H550.09Z" fill="white"/>
<rect x="598" y="196" width="151" height="41" rx="3" fill="#424242"/>
<rect x="598" y="196" width="151" height="41" rx="3" stroke="#424242" stroke-width="4"/>
<path d="M627.428 210.203V223H624.343V210.203H627.428ZM631.277 210.203V212.585H620.581V210.203H631.277ZM635.892 220.609V216.689C635.892 216.42 635.854 216.188 635.777 215.995C635.701 215.802 635.581 215.652 635.417 215.547C635.253 215.436 635.033 215.38 634.758 215.38C634.535 215.38 634.345 215.418 634.187 215.494C634.028 215.57 633.908 215.685 633.826 215.837C633.744 215.989 633.703 216.183 633.703 216.417H630.741C630.741 215.978 630.838 215.57 631.031 215.195C631.23 214.814 631.512 214.483 631.875 214.202C632.244 213.921 632.684 213.704 633.193 213.552C633.709 213.394 634.283 213.314 634.916 213.314C635.672 213.314 636.346 213.44 636.938 213.692C637.535 213.944 638.007 214.322 638.353 214.826C638.698 215.324 638.871 215.951 638.871 216.707V220.601C638.871 221.222 638.906 221.693 638.977 222.016C639.047 222.332 639.146 222.61 639.275 222.851V223H636.305C636.164 222.707 636.059 222.35 635.988 221.928C635.924 221.5 635.892 221.061 635.892 220.609ZM636.252 217.19L636.27 218.772H634.96C634.685 218.772 634.45 218.811 634.257 218.887C634.069 218.963 633.917 219.068 633.8 219.203C633.688 219.332 633.606 219.479 633.554 219.643C633.507 219.807 633.483 219.979 633.483 220.161C633.483 220.337 633.524 220.495 633.606 220.636C633.694 220.771 633.812 220.876 633.958 220.952C634.104 221.028 634.269 221.066 634.45 221.066C634.778 221.066 635.057 221.005 635.285 220.882C635.52 220.753 635.698 220.598 635.821 220.416C635.944 220.234 636.006 220.064 636.006 219.906L636.656 221.119C636.539 221.354 636.404 221.591 636.252 221.831C636.105 222.071 635.921 222.294 635.698 222.499C635.481 222.698 635.215 222.862 634.898 222.991C634.582 223.114 634.198 223.176 633.747 223.176C633.161 223.176 632.622 223.056 632.13 222.815C631.644 222.575 631.254 222.241 630.961 221.813C630.668 221.38 630.521 220.882 630.521 220.319C630.521 219.827 630.609 219.388 630.785 219.001C630.967 218.614 631.239 218.286 631.603 218.017C631.966 217.747 632.429 217.542 632.991 217.401C633.554 217.261 634.216 217.19 634.978 217.19H636.252ZM643.644 213.49V223H640.673V213.49H643.644ZM640.497 211.038C640.497 210.616 640.649 210.271 640.954 210.001C641.259 209.731 641.654 209.597 642.141 209.597C642.627 209.597 643.022 209.731 643.327 210.001C643.632 210.271 643.784 210.616 643.784 211.038C643.784 211.46 643.632 211.806 643.327 212.075C643.022 212.345 642.627 212.479 642.141 212.479C641.654 212.479 641.259 212.345 640.954 212.075C640.649 211.806 640.497 211.46 640.497 211.038ZM648.601 209.5V223H645.63V209.5H648.601ZM653.32 220.17L655.078 213.49H656.933L656.273 216.839L654.533 223H653.048L653.32 220.17ZM652.626 213.49L653.716 220.117L653.839 223H652.037L649.787 213.49H652.626ZM658.497 219.977L659.596 213.49H662.435L660.202 223H658.4L658.497 219.977ZM657.144 213.49L658.919 220.152L659.191 223H657.688L655.983 216.856L655.351 213.49H657.144ZM666.636 213.49V223H663.665V213.49H666.636ZM663.489 211.038C663.489 210.616 663.642 210.271 663.946 210.001C664.251 209.731 664.646 209.597 665.133 209.597C665.619 209.597 666.015 209.731 666.319 210.001C666.624 210.271 666.776 210.616 666.776 211.038C666.776 211.46 666.624 211.806 666.319 212.075C666.015 212.345 665.619 212.479 665.133 212.479C664.646 212.479 664.251 212.345 663.946 212.075C663.642 211.806 663.489 211.46 663.489 211.038ZM671.373 215.521V223H668.411V213.49H671.188L671.373 215.521ZM671.021 217.92L670.327 217.938C670.327 217.211 670.415 216.563 670.591 215.995C670.767 215.421 671.016 214.935 671.338 214.536C671.66 214.138 672.044 213.836 672.489 213.631C672.94 213.42 673.441 213.314 673.992 213.314C674.432 213.314 674.833 213.379 675.196 213.508C675.565 213.637 675.882 213.845 676.146 214.132C676.415 214.419 676.62 214.8 676.761 215.274C676.907 215.743 676.98 216.323 676.98 217.015V223H674.001V217.006C674.001 216.625 673.948 216.335 673.843 216.136C673.737 215.931 673.585 215.79 673.386 215.714C673.187 215.638 672.943 215.6 672.656 215.6C672.352 215.6 672.094 215.658 671.883 215.775C671.672 215.893 671.502 216.057 671.373 216.268C671.25 216.473 671.159 216.716 671.101 216.997C671.048 217.278 671.021 217.586 671.021 217.92ZM684.091 220.82V209.5H687.07V223H684.398L684.091 220.82ZM678.255 218.359V218.175C678.255 217.454 678.334 216.798 678.492 216.206C678.65 215.608 678.885 215.096 679.195 214.668C679.506 214.234 679.893 213.9 680.355 213.666C680.818 213.432 681.352 213.314 681.955 213.314C682.494 213.314 682.966 213.44 683.37 213.692C683.774 213.938 684.12 214.284 684.407 214.729C684.694 215.175 684.929 215.696 685.11 216.294C685.292 216.886 685.43 217.524 685.523 218.21V218.43C685.43 219.074 685.292 219.684 685.11 220.258C684.929 220.826 684.694 221.33 684.407 221.77C684.12 222.209 683.771 222.555 683.361 222.807C682.957 223.053 682.482 223.176 681.938 223.176C681.334 223.176 680.801 223.056 680.338 222.815C679.881 222.575 679.497 222.238 679.187 221.805C678.882 221.371 678.65 220.861 678.492 220.275C678.334 219.689 678.255 219.051 678.255 218.359ZM681.217 218.175V218.359C681.217 218.717 681.24 219.048 681.287 219.353C681.334 219.657 681.413 219.927 681.524 220.161C681.642 220.39 681.794 220.568 681.981 220.697C682.175 220.826 682.412 220.891 682.693 220.891C683.074 220.891 683.388 220.8 683.634 220.618C683.886 220.437 684.07 220.179 684.188 219.845C684.311 219.511 684.363 219.118 684.346 218.667V217.973C684.357 217.586 684.331 217.246 684.267 216.953C684.202 216.654 684.1 216.405 683.959 216.206C683.824 216.007 683.651 215.857 683.44 215.758C683.235 215.652 682.992 215.6 682.711 215.6C682.436 215.6 682.201 215.664 682.008 215.793C681.82 215.922 681.668 216.104 681.551 216.338C681.434 216.566 681.349 216.839 681.296 217.155C681.243 217.466 681.217 217.806 681.217 218.175ZM700.649 218.667H703.726C703.685 219.558 703.444 220.343 703.005 221.022C702.565 221.702 701.956 222.232 701.177 222.613C700.403 222.988 699.489 223.176 698.435 223.176C697.579 223.176 696.814 223.032 696.141 222.745C695.473 222.458 694.904 222.045 694.436 221.506C693.973 220.967 693.618 220.313 693.372 219.546C693.132 218.778 693.012 217.914 693.012 216.953V216.259C693.012 215.298 693.138 214.434 693.39 213.666C693.647 212.893 694.011 212.236 694.479 211.697C694.954 211.152 695.522 210.736 696.185 210.449C696.847 210.162 697.582 210.019 698.391 210.019C699.504 210.019 700.444 210.218 701.212 210.616C701.979 211.015 702.574 211.562 702.996 212.26C703.418 212.951 703.667 213.739 703.743 214.624H700.667C700.655 214.144 700.573 213.742 700.421 213.42C700.269 213.092 700.028 212.846 699.7 212.682C699.372 212.518 698.936 212.436 698.391 212.436C698.01 212.436 697.679 212.506 697.397 212.646C697.116 212.787 696.882 213.01 696.694 213.314C696.507 213.619 696.366 214.015 696.272 214.501C696.185 214.981 696.141 215.562 696.141 216.241V216.953C696.141 217.633 696.182 218.213 696.264 218.693C696.346 219.174 696.478 219.566 696.659 219.871C696.841 220.176 697.075 220.401 697.362 220.548C697.655 220.688 698.013 220.759 698.435 220.759C698.903 220.759 699.299 220.686 699.621 220.539C699.943 220.387 700.192 220.158 700.368 219.854C700.544 219.543 700.638 219.147 700.649 218.667ZM711.776 219.599C711.776 219.399 711.747 219.221 711.688 219.062C711.63 218.898 711.521 218.746 711.363 218.605C711.205 218.465 710.977 218.324 710.678 218.184C710.385 218.037 709.998 217.885 709.518 217.727C708.955 217.539 708.413 217.328 707.892 217.094C707.37 216.854 706.904 216.575 706.494 216.259C706.084 215.937 705.759 215.562 705.519 215.134C705.278 214.7 705.158 214.196 705.158 213.622C705.158 213.071 705.281 212.576 705.527 212.137C705.773 211.691 706.116 211.313 706.556 211.003C707.001 210.687 707.522 210.446 708.12 210.282C708.718 210.112 709.371 210.027 710.08 210.027C711.018 210.027 711.844 210.191 712.559 210.52C713.279 210.842 713.842 211.302 714.246 211.899C714.656 212.491 714.861 213.191 714.861 214H711.794C711.794 213.678 711.727 213.394 711.592 213.147C711.463 212.901 711.267 212.708 711.003 212.567C710.739 212.427 710.408 212.356 710.01 212.356C709.623 212.356 709.298 212.415 709.034 212.532C708.771 212.649 708.571 212.808 708.437 213.007C708.302 213.2 708.234 213.414 708.234 213.648C708.234 213.842 708.287 214.018 708.393 214.176C708.504 214.328 708.659 214.472 708.858 214.606C709.063 214.741 709.31 214.87 709.597 214.993C709.89 215.116 710.218 215.236 710.581 215.354C711.261 215.57 711.864 215.813 712.392 216.083C712.925 216.347 713.373 216.648 713.736 216.988C714.105 217.322 714.384 217.703 714.571 218.131C714.765 218.559 714.861 219.042 714.861 219.581C714.861 220.155 714.75 220.665 714.527 221.11C714.305 221.556 713.985 221.934 713.569 222.244C713.153 222.549 712.655 222.78 712.075 222.938C711.495 223.097 710.848 223.176 710.133 223.176C709.477 223.176 708.829 223.094 708.19 222.93C707.558 222.76 706.983 222.502 706.468 222.156C705.952 221.805 705.539 221.356 705.229 220.812C704.924 220.261 704.771 219.607 704.771 218.852H707.865C707.865 219.227 707.915 219.543 708.015 219.801C708.114 220.059 708.261 220.267 708.454 220.425C708.647 220.577 708.885 220.688 709.166 220.759C709.447 220.823 709.77 220.855 710.133 220.855C710.525 220.855 710.842 220.8 711.082 220.688C711.322 220.571 711.498 220.419 711.609 220.231C711.721 220.038 711.776 219.827 711.776 219.599ZM723.044 219.599C723.044 219.399 723.015 219.221 722.956 219.062C722.897 218.898 722.789 218.746 722.631 218.605C722.473 218.465 722.244 218.324 721.945 218.184C721.652 218.037 721.266 217.885 720.785 217.727C720.223 217.539 719.681 217.328 719.159 217.094C718.638 216.854 718.172 216.575 717.762 216.259C717.352 215.937 717.026 215.562 716.786 215.134C716.546 214.7 716.426 214.196 716.426 213.622C716.426 213.071 716.549 212.576 716.795 212.137C717.041 211.691 717.384 211.313 717.823 211.003C718.269 210.687 718.79 210.446 719.388 210.282C719.985 210.112 720.639 210.027 721.348 210.027C722.285 210.027 723.111 210.191 723.826 210.52C724.547 210.842 725.109 211.302 725.514 211.899C725.924 212.491 726.129 213.191 726.129 214H723.062C723.062 213.678 722.994 213.394 722.859 213.147C722.73 212.901 722.534 212.708 722.271 212.567C722.007 212.427 721.676 212.356 721.277 212.356C720.891 212.356 720.565 212.415 720.302 212.532C720.038 212.649 719.839 212.808 719.704 213.007C719.569 213.2 719.502 213.414 719.502 213.648C719.502 213.842 719.555 214.018 719.66 214.176C719.771 214.328 719.927 214.472 720.126 214.606C720.331 214.741 720.577 214.87 720.864 214.993C721.157 215.116 721.485 215.236 721.849 215.354C722.528 215.57 723.132 215.813 723.659 216.083C724.192 216.347 724.641 216.648 725.004 216.988C725.373 217.322 725.651 217.703 725.839 218.131C726.032 218.559 726.129 219.042 726.129 219.581C726.129 220.155 726.018 220.665 725.795 221.11C725.572 221.556 725.253 221.934 724.837 222.244C724.421 222.549 723.923 222.78 723.343 222.938C722.763 223.097 722.115 223.176 721.4 223.176C720.744 223.176 720.097 223.094 719.458 222.93C718.825 222.76 718.251 222.502 717.735 222.156C717.22 221.805 716.807 221.356 716.496 220.812C716.191 220.261 716.039 219.607 716.039 218.852H719.133C719.133 219.227 719.183 219.543 719.282 219.801C719.382 220.059 719.528 220.267 719.722 220.425C719.915 220.577 720.152 220.688 720.434 220.759C720.715 220.823 721.037 220.855 721.4 220.855C721.793 220.855 722.109 220.8 722.35 220.688C722.59 220.571 722.766 220.419 722.877 220.231C722.988 220.038 723.044 219.827 723.044 219.599Z" fill="white"/>
<path d="M1066 0H1348C1356.28 0 1363 6.71573 1363 15V282C1363 290.284 1356.28 297 1348 297H1066V0Z" fill="white"/>
<g clip-path="url(#clip0_3_61)">
<path d="M1188.55 100.5H1091.75V196.5H1188.55V100.5Z" fill="#393F4F"/>
<path d="M1105.65 175.4L1124.15 121.6H1138.55L1157.45 175.4H1145.15L1136.55 149.4C1135.55 146 1134.45 142.4 1133.35 138.5C1132.25 134.6 1131.15 130.3 1129.95 125.6H1132.45C1131.25 130.3 1130.15 134.6 1129.15 138.6C1128.15 142.5 1127.15 146.2 1126.15 149.5L1117.75 175.5H1105.65V175.4ZM1117.25 163.1V154.4H1145.85V163.1H1117.25Z" fill="white"/>
<path d="M1174.65 121.6V175.4H1163.55V121.6H1174.65Z" fill="white"/>
<path d="M1211.95 138.9C1209.25 138.9 1206.95 138.3 1204.85 137C1202.75 135.7 1201.15 133.9 1199.95 131.5C1198.75 129.1 1198.15 126.4 1198.15 123.2C1198.15 120 1198.75 117.2 1199.95 114.9C1201.15 112.6 1202.75 110.7 1204.85 109.4C1206.95 108.1 1209.25 107.5 1211.95 107.5C1213.55 107.5 1214.95 107.7 1216.35 108.2C1217.75 108.7 1218.95 109.3 1220.05 110.2C1221.15 111.1 1222.05 112.1 1222.75 113.4C1223.45 114.6 1223.95 116.1 1224.25 117.6H1220.35C1220.15 116.5 1219.75 115.6 1219.25 114.8C1218.75 114 1218.05 113.3 1217.35 112.7C1216.65 112.1 1215.75 111.7 1214.85 111.4C1213.95 111.1 1212.95 111 1211.95 111C1210.05 111 1208.35 111.5 1206.85 112.4C1205.35 113.3 1204.15 114.7 1203.35 116.6C1202.55 118.5 1202.05 120.6 1202.05 123.2C1202.05 125.8 1202.45 127.9 1203.35 129.8C1204.25 131.7 1205.35 133 1206.85 133.9C1208.35 134.8 1210.05 135.3 1211.95 135.3C1212.95 135.3 1213.95 135.2 1214.85 134.9C1215.75 134.6 1216.65 134.2 1217.35 133.6C1218.15 133 1218.75 132.4 1219.25 131.6C1219.75 130.8 1220.15 129.9 1220.35 128.8H1224.25C1223.95 130.4 1223.45 131.8 1222.75 133C1222.05 134.2 1221.05 135.3 1220.05 136.2C1218.95 137.1 1217.75 137.8 1216.35 138.2C1214.95 138.6 1213.55 138.9 1211.95 138.9Z" fill="#393F4F"/>
<path d="M1236.05 139C1234.65 139 1233.25 138.7 1232.15 138.2C1230.95 137.7 1230.05 136.9 1229.35 135.8C1228.65 134.7 1228.35 133.5 1228.35 132C1228.35 130.7 1228.65 129.6 1229.15 128.8C1229.65 128 1230.35 127.4 1231.25 126.9C1232.15 126.4 1233.05 126.1 1234.05 125.8C1235.05 125.6 1236.15 125.4 1237.25 125.2C1238.65 125 1239.75 124.9 1240.55 124.8C1241.35 124.7 1242.05 124.5 1242.45 124.3C1242.85 124.1 1243.05 123.7 1243.05 123.1V123C1243.05 122.1 1242.85 121.3 1242.55 120.6C1242.15 119.9 1241.65 119.4 1240.95 119.1C1240.25 118.8 1239.35 118.6 1238.35 118.6C1237.25 118.6 1236.35 118.8 1235.55 119.1C1234.75 119.4 1234.15 119.9 1233.65 120.4C1233.15 120.9 1232.85 121.5 1232.65 122.1L1229.15 121.2C1229.65 119.8 1230.35 118.7 1231.25 117.9C1232.15 117.1 1233.25 116.4 1234.55 116.1C1235.75 115.7 1237.05 115.5 1238.35 115.5C1239.25 115.5 1240.15 115.6 1241.15 115.8C1242.15 116 1243.05 116.4 1243.95 117C1244.85 117.6 1245.55 118.4 1246.05 119.4C1246.55 120.4 1246.85 121.8 1246.85 123.4V138.5H1243.25V135.4H1242.75C1242.45 135.9 1242.05 136.5 1241.55 137C1241.05 137.5 1240.25 138 1239.35 138.4C1238.45 138.8 1237.35 139 1236.05 139ZM1236.65 135.7C1238.05 135.7 1239.15 135.4 1240.15 134.9C1241.15 134.4 1241.75 133.7 1242.25 132.8C1242.75 131.9 1242.95 131.1 1242.95 130.1V127C1242.75 127.2 1242.45 127.3 1242.05 127.5C1241.55 127.6 1241.05 127.8 1240.45 127.9C1239.85 128 1239.25 128.1 1238.65 128.2C1238.05 128.3 1237.55 128.3 1237.15 128.4C1236.25 128.5 1235.45 128.7 1234.65 129C1233.85 129.3 1233.25 129.7 1232.85 130.2C1232.45 130.7 1232.15 131.4 1232.15 132.3C1232.15 133.1 1232.35 133.7 1232.75 134.2C1233.15 134.7 1233.75 135.1 1234.45 135.4C1234.95 135.6 1235.75 135.7 1236.65 135.7Z" fill="#393F4F"/>
<path d="M1252.75 138.5V115.8H1256.25V119.3H1256.45C1256.85 118.2 1257.65 117.2 1258.65 116.5C1259.65 115.8 1260.85 115.5 1262.25 115.5C1262.55 115.5 1262.85 115.5 1263.25 115.5C1263.65 115.5 1263.85 115.5 1264.05 115.5V119.2C1263.95 119.2 1263.65 119.1 1263.25 119.1C1262.85 119 1262.35 119 1261.85 119C1260.85 119 1259.85 119.2 1259.05 119.7C1258.25 120.2 1257.55 120.8 1257.15 121.5C1256.65 122.3 1256.45 123.2 1256.45 124.3V138.5H1252.75Z" fill="#393F4F"/>
<path d="M1276.95 139C1274.75 139 1272.85 138.5 1271.25 137.5C1269.65 136.5 1268.45 135.1 1267.55 133.4C1266.65 131.7 1266.25 129.6 1266.25 127.3C1266.25 125 1266.65 122.9 1267.55 121.2C1268.35 119.4 1269.55 118 1271.15 117C1272.65 116 1274.45 115.5 1276.55 115.5C1277.85 115.5 1279.05 115.7 1280.25 116.1C1281.45 116.5 1282.55 117.2 1283.45 118.1C1284.35 119 1285.15 120.2 1285.65 121.7C1286.15 123.2 1286.45 124.9 1286.45 126.9V128.3H1268.65V125.2H1284.45L1282.75 126.3C1282.75 124.8 1282.55 123.5 1282.05 122.3C1281.55 121.1 1280.85 120.3 1279.95 119.6C1279.05 118.9 1277.85 118.6 1276.45 118.6C1275.05 118.6 1273.95 118.9 1272.95 119.6C1271.95 120.3 1271.25 121.1 1270.75 122.2C1270.25 123.3 1269.95 124.5 1269.95 125.8V127.7C1269.95 129.4 1270.25 130.8 1270.85 131.9C1271.45 133.1 1272.25 134 1273.25 134.6C1274.25 135.2 1275.55 135.5 1276.95 135.5C1277.85 135.5 1278.75 135.4 1279.45 135.1C1280.15 134.8 1280.85 134.4 1281.35 133.9C1281.85 133.4 1282.25 132.7 1282.55 131.9L1286.05 132.7C1285.75 133.9 1285.15 134.9 1284.25 135.9C1283.35 136.9 1282.35 137.5 1281.05 138C1279.95 138.7 1278.45 139 1276.95 139Z" fill="#393F4F"/>
<path d="M1300.95 139C1298.75 139 1296.85 138.5 1295.25 137.5C1293.65 136.5 1292.45 135.1 1291.55 133.4C1290.65 131.7 1290.25 129.6 1290.25 127.3C1290.25 125 1290.65 122.9 1291.55 121.2C1292.35 119.4 1293.55 118 1295.15 117C1296.65 116 1298.45 115.5 1300.55 115.5C1301.85 115.5 1303.05 115.7 1304.25 116.1C1305.45 116.5 1306.55 117.2 1307.45 118.1C1308.35 119 1309.15 120.2 1309.65 121.7C1310.15 123.2 1310.45 124.9 1310.45 126.9V128.3H1292.75V125.2H1308.55L1306.85 126.3C1306.85 124.8 1306.65 123.5 1306.15 122.3C1305.65 121.1 1304.95 120.3 1304.05 119.6C1303.15 118.9 1301.95 118.6 1300.55 118.6C1299.15 118.6 1298.05 118.9 1297.05 119.6C1296.05 120.3 1295.35 121.1 1294.85 122.2C1294.35 123.3 1294.05 124.5 1294.05 125.8V127.7C1294.05 129.4 1294.35 130.8 1294.95 131.9C1295.55 133.1 1296.35 134 1297.35 134.6C1298.35 135.2 1299.65 135.5 1301.05 135.5C1301.95 135.5 1302.85 135.4 1303.55 135.1C1304.25 134.8 1304.95 134.4 1305.45 133.9C1305.95 133.4 1306.35 132.7 1306.65 131.9L1310.15 132.7C1309.85 133.9 1309.25 134.9 1308.35 135.9C1307.45 136.9 1306.45 137.5 1305.15 138C1303.95 138.7 1302.55 139 1300.95 139Z" fill="#393F4F"/>
<path d="M1315.55 138.5V115.8H1319.05V119.3H1319.25C1319.65 118.2 1320.45 117.2 1321.45 116.5C1322.45 115.8 1323.65 115.5 1325.05 115.5C1325.35 115.5 1325.65 115.5 1326.05 115.5C1326.45 115.5 1326.65 115.5 1326.85 115.5V119.2C1326.75 119.2 1326.45 119.1 1326.05 119.1C1325.65 119 1325.15 119 1324.65 119C1323.65 119 1322.65 119.2 1321.85 119.7C1321.05 120.2 1320.35 120.8 1319.95 121.5C1319.45 122.3 1319.25 123.2 1319.25 124.3V138.5H1315.55Z" fill="#393F4F"/>
<path d="M1199.45 180.5V149.9H1218.05V153.3H1203.25V163.7H1216.75V167.1H1203.35V180.5H1199.45Z" fill="#393F4F"/>
<path d="M1231.35 181C1229.25 181 1227.45 180.5 1225.95 179.5C1224.35 178.5 1223.15 177.2 1222.35 175.4C1221.55 173.6 1221.05 171.6 1221.05 169.3C1221.05 166.9 1221.45 164.9 1222.35 163.1C1223.25 161.3 1224.45 160 1225.95 159C1227.55 158 1229.35 157.5 1231.35 157.5C1233.35 157.5 1235.25 158 1236.75 159C1238.35 160 1239.55 161.4 1240.35 163.1C1241.25 164.9 1241.65 166.9 1241.65 169.3C1241.65 171.6 1241.25 173.6 1240.35 175.4C1239.45 177.2 1238.35 178.5 1236.75 179.5C1235.25 180.5 1233.45 181 1231.35 181ZM1231.35 177.7C1232.85 177.7 1234.15 177.3 1235.05 176.6C1235.95 175.9 1236.75 174.8 1237.25 173.5C1237.75 172.2 1237.95 170.8 1237.95 169.3C1237.95 167.8 1237.75 166.3 1237.25 165C1236.75 163.7 1236.05 162.7 1235.05 161.9C1234.05 161.1 1232.85 160.7 1231.35 160.7C1229.85 160.7 1228.65 161.1 1227.65 161.9C1226.65 162.7 1225.95 163.7 1225.45 165C1224.95 166.3 1224.75 167.7 1224.75 169.3C1224.75 170.8 1224.95 172.2 1225.45 173.5C1225.95 174.8 1226.65 175.8 1227.65 176.6C1228.65 177.4 1229.85 177.7 1231.35 177.7Z" fill="#393F4F"/>
<path d="M1246.85 180.5V157.8H1250.35V161.3H1250.55C1250.95 160.2 1251.75 159.2 1252.75 158.5C1253.75 157.8 1254.95 157.5 1256.35 157.5C1256.65 157.5 1256.95 157.5 1257.35 157.5C1257.75 157.5 1257.95 157.5 1258.15 157.5V161.2C1258.05 161.2 1257.75 161.1 1257.35 161.1C1256.95 161 1256.45 161 1255.95 161C1254.95 161 1253.95 161.2 1253.15 161.7C1252.35 162.2 1251.65 162.8 1251.25 163.5C1250.75 164.3 1250.55 165.2 1250.55 166.3V180.5H1246.85Z" fill="#393F4F"/>
<path d="M1270.75 189.5C1269.05 189.5 1267.65 189.3 1266.35 188.8C1265.05 188.4 1264.05 187.7 1263.25 187C1262.45 186.3 1261.85 185.4 1261.45 184.4L1264.55 182.9C1264.85 183.4 1265.25 183.9 1265.75 184.5C1266.25 185.1 1266.85 185.5 1267.75 185.8C1268.55 186.1 1269.55 186.3 1270.85 186.3C1272.65 186.3 1274.15 185.8 1275.35 184.9C1276.55 184 1277.05 182.6 1277.05 180.7V176.5H1276.75C1276.45 177 1275.95 177.6 1275.45 178.2C1274.95 178.8 1274.25 179.3 1273.35 179.7C1272.45 180.1 1271.35 180.3 1270.05 180.3C1268.25 180.3 1266.55 179.9 1265.15 179C1263.75 178.1 1262.55 176.8 1261.75 175.2C1260.95 173.5 1260.45 171.5 1260.45 169.2C1260.45 166.9 1260.85 164.8 1261.65 163.1C1262.45 161.4 1263.65 160 1265.05 159.1C1266.55 158.1 1268.15 157.7 1270.05 157.7C1271.45 157.7 1272.55 157.9 1273.35 158.4C1274.15 158.9 1274.95 159.4 1275.45 160C1275.95 160.6 1276.45 161.2 1276.75 161.7H1277.05V158.1H1280.55V181.2C1280.55 183.2 1280.15 184.8 1279.25 186.1C1278.35 187.4 1277.15 188.3 1275.65 188.9C1274.25 189.2 1272.55 189.5 1270.75 189.5ZM1270.55 177C1271.95 177 1273.15 176.7 1274.05 176C1275.05 175.4 1275.75 174.4 1276.25 173.2C1276.75 172 1276.95 170.6 1276.95 168.9C1276.95 167.3 1276.75 165.8 1276.25 164.6C1275.75 163.4 1275.05 162.4 1274.05 161.7C1273.05 161 1271.95 160.7 1270.55 160.7C1269.15 160.7 1267.95 161.1 1266.95 161.8C1265.95 162.5 1265.25 163.5 1264.75 164.7C1264.25 165.9 1264.05 167.3 1264.05 168.9C1264.05 170.5 1264.35 171.9 1264.85 173.1C1265.35 174.3 1266.05 175.2 1267.05 175.9C1268.05 176.6 1269.15 177 1270.55 177Z" fill="#393F4F"/>
<path d="M1296.25 181C1294.05 181 1292.15 180.5 1290.55 179.5C1288.95 178.5 1287.75 177.1 1286.85 175.4C1285.95 173.7 1285.55 171.6 1285.55 169.3C1285.55 167 1285.95 164.9 1286.85 163.2C1287.65 161.4 1288.85 160 1290.45 159C1291.95 158 1293.75 157.5 1295.85 157.5C1297.15 157.5 1298.35 157.7 1299.55 158.1C1300.75 158.5 1301.85 159.2 1302.75 160.1C1303.65 161 1304.45 162.2 1304.95 163.7C1305.45 165.2 1305.75 166.9 1305.75 168.9V170.3H1287.95V167.2H1303.75L1302.05 168.3C1302.05 166.8 1301.85 165.5 1301.35 164.3C1300.85 163.1 1300.15 162.3 1299.25 161.6C1298.35 160.9 1297.15 160.6 1295.75 160.6C1294.35 160.6 1293.25 160.9 1292.25 161.6C1291.25 162.3 1290.55 163.1 1290.05 164.2C1289.55 165.3 1289.25 166.5 1289.25 167.8V169.7C1289.25 171.4 1289.55 172.8 1290.15 173.9C1290.75 175.1 1291.55 176 1292.55 176.6C1293.55 177.2 1294.85 177.5 1296.25 177.5C1297.15 177.5 1298.05 177.4 1298.75 177.1C1299.45 176.8 1300.15 176.4 1300.65 175.9C1301.15 175.4 1301.55 174.7 1301.85 173.9L1305.35 174.7C1305.05 175.9 1304.45 176.9 1303.55 177.9C1302.65 178.9 1301.65 179.5 1300.35 180C1299.25 180.7 1297.85 181 1296.25 181Z" fill="#393F4F"/>
</g>
<defs>
<clipPath id="clip0_3_61">
<rect width="245.5" height="96" fill="white" transform="translate(1091.75 100.5)"/>
</clipPath>
</defs>
</svg>
