<svg width="647" height="711" viewBox="0 0 647 711" fill="none" xmlns="http://www.w3.org/2000/svg">
<path d="M435.352 161.969C498.643 136.31 579.816 103.17 613.641 89.1806C637.607 79.2681 642.001 76.5812 644.76 70.1515C646.692 65.6491 646.479 58.8248 644.244 53.6112C638.158 39.4128 622.478 7.95685 620.33 5.63713C616.76 1.7815 610.227 -0.494219 604.409 0.0912813C600.634 0.471181 576.215 12.2822 487.141 56.812C425.266 87.7445 374.28 113.395 373.838 113.814C373.397 114.232 374.222 117.228 375.672 120.472C377.123 123.716 382.822 136.719 388.338 149.369C398.919 173.637 399.955 175.869 400.637 175.869C400.872 175.869 416.494 169.614 435.352 161.969Z" fill="#3498DB"/>
<path d="M390.587 293.248C412.067 282.457 430.711 272.67 432.02 271.499C434.979 268.849 437.141 263.915 437.141 259.806C437.141 257.1 433.556 248.346 422.835 224.869C417.197 212.524 402.718 179.94 400.173 173.869C393.318 157.523 377.001 120.482 374.125 114.737C372.371 111.235 369.234 104.544 367.154 99.8694C365.074 95.1944 362.245 88.8944 360.868 85.8694C358.03 79.6361 346.34 53.6422 340.629 40.8694C335.583 29.5838 334.535 28.1113 329.846 25.7193C322.071 21.7525 320.642 22.1936 283.641 39.9878C230.509 65.5388 217.913 72.0491 215.748 75.0779C214.637 76.6327 213.632 80.0405 213.388 83.0779C213.038 87.4536 213.515 89.5809 216.148 95.3694C217.899 99.2194 224.957 114.969 231.832 130.369C238.707 145.769 245.138 160.169 246.123 162.369C247.109 164.569 250.493 172.219 253.643 179.369C256.793 186.519 263.193 200.919 267.866 211.369C272.539 221.819 277.937 233.969 279.862 238.369C290.299 262.226 289.987 261.748 305.836 278.093C313.983 286.495 323.731 296.744 327.498 300.869C336.189 310.386 340.123 312.858 346.587 312.864C351.025 312.869 355.546 310.853 390.587 293.248Z" fill="#2C3E50"/>
<path d="M416.548 400.619C419.135 380.214 431.692 366.194 452.003 361.036C455.654 360.109 458.706 358.905 458.785 358.36C458.864 357.815 454.886 356.378 449.944 355.166C431.008 350.521 420.547 339.22 416.337 318.861C415.427 314.458 414.252 310.999 413.726 311.174C413.199 311.35 411.954 315.284 410.957 319.917C409.96 324.55 407.933 330.817 406.453 333.842C401.101 344.782 389.458 353.538 376.391 356.453C372.403 357.342 369.141 358.466 369.141 358.951C369.141 359.838 369.699 360.014 378.457 361.881C389.938 364.328 402.196 373.858 407.461 384.428C409.422 388.365 413.141 402.049 413.141 405.327C413.141 405.625 413.758 405.869 414.512 405.869C415.415 405.869 416.11 404.077 416.548 400.619Z" fill="black"/>
<path d="M412.315 407.58C411.727 406.87 410.506 402.708 409.602 398.33C408.699 393.952 406.876 388.077 405.552 385.276C400.8 375.225 388.732 366.127 377.141 363.858C368.874 362.239 366.952 361.216 367.322 358.631C367.59 356.762 368.907 356.083 375.641 354.341C385.002 351.918 388.988 349.974 395.141 344.831C402.985 338.273 406.306 331.123 410.594 311.556C411.108 309.213 411.657 308.796 413.886 309.056C416.136 309.32 416.681 310.006 417.308 313.369C420.15 328.614 423.98 336.73 431.563 343.582C437.585 349.024 444.179 352.125 453.357 353.833C465.012 356.002 465.116 360.096 453.586 362.867C433.211 367.766 421.44 380.519 418.664 400.702C417.726 407.523 414.852 410.636 412.315 407.58Z" fill="#3498DB"/>
<path d="M298.209 520.257C316.452 514.841 331.514 500.724 342.902 478.369C344.583 475.069 349.184 465.669 353.127 457.479C358.894 445.5 361.299 441.612 365.427 437.591C371.349 431.822 373.442 430.816 385.446 427.969C394.923 425.721 398.141 424.4 398.141 422.758C398.141 421.408 381.536 403.43 357.621 378.888C310.71 330.746 278.639 297.239 263.467 280.515C258.727 275.29 256.762 273.787 255.004 274.04C252.913 274.341 252.563 275.3 250.946 285.169C247.506 306.161 242.003 318.348 227.825 336.369C210.167 358.814 204.542 367.648 200.025 380.024C194.169 396.07 192.697 420.862 196.614 437.486C199.762 450.846 206.626 464.958 215.91 477.157C221.565 484.587 237.43 500.451 241.108 502.352C245.606 504.678 246.133 503.035 245.942 487.285C245.787 474.479 245.997 472.692 248.576 464.869C252.103 454.171 257.535 443.375 263.92 434.369C270.584 424.972 284.993 408.869 286.738 408.869C287.925 408.869 288.141 417.461 288.141 464.703C288.141 495.411 288.441 520.836 288.807 521.203C289.854 522.249 292.342 521.999 298.209 520.257Z" fill="black"/>
<path d="M286.807 523.203C286.441 522.836 286.12 497.524 286.095 466.953L286.049 411.369L280.507 417.369C265.727 433.37 255.942 449.251 250.626 465.869C248.157 473.586 247.919 475.667 248.041 488.449C248.165 501.504 248.024 502.665 246.108 504.399C244.088 506.227 243.96 506.227 240.525 504.377C235.475 501.658 218.081 483.744 211.367 474.349C195.421 452.035 189.695 428.597 193.163 399.843C195.652 379.206 203.302 363.776 223.723 338.202C240.51 317.179 246.69 303.25 249.59 279.894C250.399 273.377 251.451 271.869 255.192 271.869C258.301 271.869 261.183 274.356 270.524 285.093C279.659 295.593 310.241 327.447 357.195 375.369C367.434 385.819 377.798 396.614 380.226 399.358C382.654 402.102 388.128 407.983 392.391 412.426C403.771 424.29 403.121 425.901 385.168 430.325C366.874 434.833 364.852 437.073 349.252 470.094C335.344 499.534 321.098 514.798 301.199 521.582C294.767 523.775 288.127 524.522 286.807 523.203Z" fill="#3498DB"/>
<path d="M494.183 705.148C497.973 700.906 498.455 696.63 497.413 676.489C496.552 659.842 496.502 659.577 493.824 657.274C492.331 655.989 489.203 654.471 486.875 653.901C465.486 648.665 448.479 639.587 434.409 625.897C412.24 604.326 406.412 581.074 417.587 558.778C424.949 544.09 439.848 530.342 458.272 521.237C468.03 516.414 478.441 512.83 502.671 505.951C527.475 498.91 537.306 495.401 549.522 489.23C557.528 485.187 567.189 479.481 570.482 476.852C592.306 459.432 602.659 442.767 601.939 426.217L601.641 419.369H515.641H429.641L428.951 423.869C428.571 426.344 427.557 433.245 426.697 439.204C419.143 491.552 373.852 535.987 319.997 543.891C306.52 545.869 282.198 544.7 269.641 541.472C241.866 534.33 221.362 521.055 200.641 496.798C187.602 481.535 178.113 458.81 173.977 432.945L171.726 418.869H88.6336C25.3391 418.869 5.25474 419.155 4.34066 420.069C3.68066 420.729 3.14506 423.542 3.15043 426.319C3.18573 444.569 32.2597 474.164 67.8506 492.178C78.3489 497.492 92.975 503.607 115.641 512.159C140.845 521.668 148.734 525.297 159.792 532.465C181.097 546.277 191.769 562.381 192.866 582.369C193.296 590.221 193.035 592.291 190.819 598.596C182.225 623.044 152.231 646.52 121.593 652.779C116.276 653.865 111.07 655.528 110.025 656.474C106.436 659.722 105.845 664.556 106.624 684.294L107.36 702.935L110.449 706.024L113.538 709.113L302.453 708.706L491.367 708.299L494.183 705.148Z" fill="black"/>
<path d="M110.082 709.398C108.675 708.633 107.009 706.876 106.379 705.494C105.727 704.063 104.936 694.22 104.541 682.634C103.912 664.154 104.016 661.935 105.669 658.451C107.716 654.138 113.36 650.928 118.964 650.891C126.775 650.84 143.963 643.576 157.156 634.752C175.225 622.666 187.903 605.683 190.285 590.374C193.349 570.685 181.92 550.281 159.456 535.332C148.264 527.885 139.783 523.979 110.641 512.845C71.6949 497.967 51.1549 487.302 32.6218 472.335C21.1509 463.071 14.4812 456.004 8.53555 446.813C1.26099 435.568 -1.48048 426.258 0.761896 420.414C2.51451 415.847 2.07964 415.869 88.8999 415.869C154.009 415.869 171.118 416.132 172.516 417.155C173.737 418.047 174.558 420.723 175.202 425.905C179.527 460.692 190.2 483.277 213.01 505.909C232.644 525.388 249.998 534.918 275.901 540.444C294.214 544.351 321.236 542.978 338.89 537.244C347.76 534.364 362.134 527.23 371.591 521.015C381.254 514.665 398.683 497.144 405.06 487.369C417.872 467.732 423.963 450.276 426.106 427.053C426.528 422.479 427.406 418.204 428.057 417.553C429.685 415.924 594.87 415.258 600.381 416.858C604.853 418.156 605.624 420.263 604.905 429.222C603.632 445.077 591.504 463.803 573.836 477.195C556.295 490.491 539.969 497.668 502.792 508.426C462.979 519.948 449.309 526.549 433.515 541.878C407.79 566.847 407.964 595.312 434.005 622.184C447.443 636.051 467.411 647.311 484.984 650.932C498.555 653.728 498.999 654.674 499.36 681.538C499.675 704.983 499.267 706.665 492.595 709.453C487.558 711.558 113.955 711.504 110.082 709.398Z" fill="#2C3E50"/>
</svg>
