<svg width="264" height="100" viewBox="0 0 264 100" fill="none" xmlns="http://www.w3.org/2000/svg">
<path d="M109.918 46.6562H106.185C106.116 46.1733 105.977 45.7443 105.767 45.3693C105.557 44.9886 105.287 44.6648 104.957 44.3977C104.628 44.1307 104.247 43.9261 103.815 43.7841C103.389 43.642 102.926 43.571 102.426 43.571C101.523 43.571 100.736 43.7955 100.065 44.2443C99.3949 44.6875 98.875 45.3352 98.5057 46.1875C98.1364 47.0341 97.9517 48.0625 97.9517 49.2727C97.9517 50.517 98.1364 51.5625 98.5057 52.4091C98.8807 53.2557 99.4034 53.8949 100.074 54.3267C100.744 54.7585 101.52 54.9744 102.401 54.9744C102.895 54.9744 103.352 54.9091 103.773 54.7784C104.199 54.6477 104.577 54.4574 104.906 54.2074C105.236 53.9517 105.509 53.642 105.724 53.2784C105.946 52.9148 106.099 52.5 106.185 52.0341L109.918 52.0511C109.821 52.8523 109.58 53.625 109.193 54.3693C108.813 55.108 108.298 55.7699 107.651 56.3551C107.009 56.9347 106.241 57.3949 105.349 57.7358C104.463 58.071 103.46 58.2386 102.341 58.2386C100.784 58.2386 99.392 57.8864 98.1648 57.1818C96.9432 56.4773 95.9773 55.4574 95.267 54.1222C94.5625 52.7869 94.2102 51.1705 94.2102 49.2727C94.2102 47.3693 94.5682 45.75 95.2841 44.4148C96 43.0795 96.9716 42.0625 98.1989 41.3636C99.4261 40.6591 100.807 40.3068 102.341 40.3068C103.352 40.3068 104.29 40.4489 105.153 40.733C106.023 41.017 106.793 41.4318 107.463 41.9773C108.134 42.517 108.679 43.179 109.099 43.9631C109.526 44.7472 109.798 45.6449 109.918 46.6562ZM116.229 58.2472C115.393 58.2472 114.649 58.1023 113.996 57.8125C113.342 57.517 112.825 57.0824 112.445 56.5085C112.07 55.929 111.882 55.2074 111.882 54.3438C111.882 53.6165 112.016 53.0057 112.283 52.5114C112.55 52.017 112.913 51.6193 113.374 51.3182C113.834 51.017 114.357 50.7898 114.942 50.6364C115.533 50.483 116.152 50.375 116.8 50.3125C117.561 50.233 118.175 50.1591 118.641 50.0909C119.107 50.017 119.445 49.9091 119.655 49.767C119.865 49.625 119.97 49.4148 119.97 49.1364V49.0852C119.97 48.5455 119.8 48.1278 119.459 47.8324C119.124 47.5369 118.646 47.3892 118.027 47.3892C117.374 47.3892 116.854 47.5341 116.467 47.8239C116.081 48.108 115.825 48.4659 115.7 48.8977L112.342 48.625C112.513 47.8295 112.848 47.142 113.348 46.5625C113.848 45.9773 114.493 45.5284 115.283 45.2159C116.078 44.8977 116.999 44.7386 118.044 44.7386C118.771 44.7386 119.467 44.8239 120.132 44.9943C120.803 45.1648 121.396 45.429 121.913 45.7869C122.436 46.1449 122.848 46.6051 123.149 47.1676C123.45 47.7244 123.601 48.392 123.601 49.1705V58H120.158V56.1847H120.055C119.845 56.5938 119.564 56.9545 119.212 57.267C118.859 57.5739 118.436 57.8153 117.942 57.9915C117.447 58.1619 116.876 58.2472 116.229 58.2472ZM117.268 55.7415C117.803 55.7415 118.274 55.6364 118.683 55.4261C119.092 55.2102 119.413 54.9205 119.646 54.5568C119.879 54.1932 119.996 53.7812 119.996 53.321V51.9318C119.882 52.0057 119.726 52.0739 119.527 52.1364C119.334 52.1932 119.115 52.2472 118.871 52.2983C118.626 52.3437 118.382 52.3864 118.138 52.4261C117.893 52.4602 117.672 52.4915 117.473 52.5199C117.047 52.5824 116.675 52.6818 116.357 52.8182C116.038 52.9545 115.791 53.1392 115.615 53.3722C115.439 53.5994 115.351 53.8835 115.351 54.2244C115.351 54.7188 115.53 55.0966 115.888 55.358C116.251 55.6136 116.712 55.7415 117.268 55.7415ZM126.418 58V44.9091H129.938V47.1932H130.074C130.313 46.3807 130.713 45.767 131.276 45.3523C131.838 44.9318 132.486 44.7216 133.219 44.7216C133.401 44.7216 133.597 44.733 133.807 44.7557C134.017 44.7784 134.202 44.8097 134.361 44.8494V48.071C134.19 48.0199 133.955 47.9744 133.653 47.9347C133.352 47.8949 133.077 47.875 132.827 47.875C132.293 47.875 131.815 47.9915 131.395 48.2244C130.98 48.4517 130.651 48.7699 130.406 49.179C130.168 49.5881 130.048 50.0597 130.048 50.5938V58H126.418ZM141.594 58.2557C140.248 58.2557 139.089 57.983 138.117 57.4375C137.151 56.8864 136.407 56.108 135.884 55.1023C135.362 54.0909 135.1 52.8949 135.1 51.5142C135.1 50.1676 135.362 48.9858 135.884 47.9688C136.407 46.9517 137.143 46.1591 138.092 45.5909C139.046 45.0227 140.165 44.7386 141.45 44.7386C142.313 44.7386 143.117 44.8778 143.862 45.1562C144.612 45.429 145.265 45.8409 145.822 46.392C146.384 46.9432 146.822 47.6364 147.134 48.4716C147.447 49.3011 147.603 50.2727 147.603 51.3864V52.3835H136.549V50.1335H144.185C144.185 49.6108 144.072 49.1477 143.844 48.7443C143.617 48.3409 143.302 48.0256 142.898 47.7983C142.501 47.5653 142.038 47.4489 141.509 47.4489C140.958 47.4489 140.469 47.5767 140.043 47.8324C139.623 48.0824 139.293 48.4205 139.055 48.8466C138.816 49.267 138.694 49.7358 138.688 50.2528V52.392C138.688 53.0398 138.808 53.5994 139.046 54.071C139.29 54.5426 139.634 54.9062 140.077 55.1619C140.521 55.4176 141.046 55.5455 141.654 55.5455C142.058 55.5455 142.427 55.4886 142.762 55.375C143.097 55.2614 143.384 55.0909 143.623 54.8636C143.862 54.6364 144.043 54.358 144.168 54.0284L147.526 54.25C147.356 55.0568 147.006 55.7614 146.478 56.3636C145.955 56.9602 145.279 57.4261 144.45 57.7614C143.626 58.0909 142.674 58.2557 141.594 58.2557ZM155.938 58.2557C154.592 58.2557 153.433 57.983 152.461 57.4375C151.495 56.8864 150.751 56.108 150.228 55.1023C149.705 54.0909 149.444 52.8949 149.444 51.5142C149.444 50.1676 149.705 48.9858 150.228 47.9688C150.751 46.9517 151.487 46.1591 152.435 45.5909C153.39 45.0227 154.509 44.7386 155.793 44.7386C156.657 44.7386 157.461 44.8778 158.205 45.1562C158.955 45.429 159.609 45.8409 160.165 46.392C160.728 46.9432 161.165 47.6364 161.478 48.4716C161.79 49.3011 161.947 50.2727 161.947 51.3864V52.3835H150.893V50.1335H158.529C158.529 49.6108 158.415 49.1477 158.188 48.7443C157.961 48.3409 157.646 48.0256 157.242 47.7983C156.844 47.5653 156.381 47.4489 155.853 47.4489C155.302 47.4489 154.813 47.5767 154.387 47.8324C153.967 48.0824 153.637 48.4205 153.398 48.8466C153.16 49.267 153.038 49.7358 153.032 50.2528V52.392C153.032 53.0398 153.151 53.5994 153.39 54.071C153.634 54.5426 153.978 54.9062 154.421 55.1619C154.864 55.4176 155.39 55.5455 155.998 55.5455C156.401 55.5455 156.771 55.4886 157.106 55.375C157.441 55.2614 157.728 55.0909 157.967 54.8636C158.205 54.6364 158.387 54.358 158.512 54.0284L161.87 54.25C161.7 55.0568 161.35 55.7614 160.822 56.3636C160.299 56.9602 159.623 57.4261 158.793 57.7614C157.969 58.0909 157.018 58.2557 155.938 58.2557ZM164.316 58V44.9091H167.836V47.1932H167.972C168.211 46.3807 168.612 45.767 169.174 45.3523C169.737 44.9318 170.384 44.7216 171.117 44.7216C171.299 44.7216 171.495 44.733 171.705 44.7557C171.915 44.7784 172.1 44.8097 172.259 44.8494V48.071C172.089 48.0199 171.853 47.9744 171.552 47.9347C171.251 47.8949 170.975 47.875 170.725 47.875C170.191 47.875 169.714 47.9915 169.293 48.2244C168.879 48.4517 168.549 48.7699 168.305 49.179C168.066 49.5881 167.947 50.0597 167.947 50.5938V58H164.316ZM174.205 58V40.5455H185.761V43.5881H177.895V47.7472H184.994V50.7898H177.895V58H174.205ZM193.129 58.2557C191.805 58.2557 190.661 57.9744 189.695 57.4119C188.734 56.8437 187.993 56.054 187.47 55.0426C186.947 54.0256 186.686 52.8466 186.686 51.5057C186.686 50.1534 186.947 48.9716 187.47 47.9602C187.993 46.9432 188.734 46.1534 189.695 45.5909C190.661 45.0227 191.805 44.7386 193.129 44.7386C194.453 44.7386 195.595 45.0227 196.555 45.5909C197.521 46.1534 198.266 46.9432 198.788 47.9602C199.311 48.9716 199.572 50.1534 199.572 51.5057C199.572 52.8466 199.311 54.0256 198.788 55.0426C198.266 56.054 197.521 56.8437 196.555 57.4119C195.595 57.9744 194.453 58.2557 193.129 58.2557ZM193.146 55.4432C193.749 55.4432 194.251 55.2727 194.655 54.9318C195.058 54.5852 195.362 54.1136 195.567 53.517C195.777 52.9205 195.882 52.2415 195.882 51.4801C195.882 50.7188 195.777 50.0398 195.567 49.4432C195.362 48.8466 195.058 48.375 194.655 48.0284C194.251 47.6818 193.749 47.5085 193.146 47.5085C192.538 47.5085 192.027 47.6818 191.612 48.0284C191.203 48.375 190.893 48.8466 190.683 49.4432C190.479 50.0398 190.376 50.7188 190.376 51.4801C190.376 52.2415 190.479 52.9205 190.683 53.517C190.893 54.1136 191.203 54.5852 191.612 54.9318C192.027 55.2727 192.538 55.4432 193.146 55.4432ZM201.933 58V44.9091H205.453V47.1932H205.589C205.828 46.3807 206.229 45.767 206.791 45.3523C207.354 44.9318 208.001 44.7216 208.734 44.7216C208.916 44.7216 209.112 44.733 209.322 44.7557C209.533 44.7784 209.717 44.8097 209.876 44.8494V48.071C209.706 48.0199 209.47 47.9744 209.169 47.9347C208.868 47.8949 208.592 47.875 208.342 47.875C207.808 47.875 207.331 47.9915 206.911 48.2244C206.496 48.4517 206.166 48.7699 205.922 49.179C205.683 49.5881 205.564 50.0597 205.564 50.5938V58H201.933ZM217.042 63.1818C215.866 63.1818 214.857 63.0199 214.016 62.696C213.181 62.3778 212.516 61.9432 212.022 61.392C211.528 60.8409 211.207 60.2216 211.059 59.5341L214.417 59.0824C214.519 59.3438 214.681 59.5881 214.903 59.8153C215.124 60.0426 215.417 60.2244 215.781 60.3608C216.15 60.5028 216.599 60.5739 217.127 60.5739C217.917 60.5739 218.567 60.3807 219.079 59.9943C219.596 59.6136 219.854 58.9744 219.854 58.0767V55.6818H219.701C219.542 56.0455 219.303 56.3892 218.985 56.7131C218.667 57.0369 218.258 57.3011 217.758 57.5057C217.258 57.7102 216.661 57.8125 215.968 57.8125C214.985 57.8125 214.09 57.5852 213.283 57.1307C212.482 56.6705 211.843 55.9687 211.366 55.0256C210.894 54.0767 210.658 52.8778 210.658 51.429C210.658 49.946 210.9 48.7074 211.383 47.7131C211.866 46.7187 212.508 45.9744 213.309 45.4801C214.116 44.9858 214.999 44.7386 215.96 44.7386C216.692 44.7386 217.306 44.8636 217.8 45.1136C218.295 45.358 218.692 45.6648 218.994 46.0341C219.3 46.3977 219.536 46.7557 219.701 47.108H219.837V44.9091H223.442V58.1278C223.442 59.2415 223.17 60.1733 222.624 60.9233C222.079 61.6733 221.323 62.2358 220.357 62.6108C219.397 62.9915 218.292 63.1818 217.042 63.1818ZM217.119 55.0852C217.704 55.0852 218.198 54.9403 218.602 54.6506C219.011 54.3551 219.323 53.9347 219.539 53.3892C219.761 52.8381 219.871 52.179 219.871 51.4119C219.871 50.6449 219.763 49.9801 219.548 49.4176C219.332 48.8494 219.019 48.4091 218.61 48.0966C218.201 47.7841 217.704 47.6278 217.119 47.6278C216.522 47.6278 216.019 47.7898 215.61 48.1136C215.201 48.4318 214.891 48.875 214.681 49.4432C214.471 50.0114 214.366 50.6676 214.366 51.4119C214.366 52.1676 214.471 52.821 214.681 53.3722C214.897 53.9176 215.207 54.3409 215.61 54.642C216.019 54.9375 216.522 55.0852 217.119 55.0852ZM232.298 58.2557C230.951 58.2557 229.792 57.983 228.82 57.4375C227.854 56.8864 227.11 56.108 226.587 55.1023C226.065 54.0909 225.803 52.8949 225.803 51.5142C225.803 50.1676 226.065 48.9858 226.587 47.9688C227.11 46.9517 227.846 46.1591 228.795 45.5909C229.749 45.0227 230.869 44.7386 232.153 44.7386C233.016 44.7386 233.82 44.8778 234.565 45.1562C235.315 45.429 235.968 45.8409 236.525 46.392C237.087 46.9432 237.525 47.6364 237.837 48.4716C238.15 49.3011 238.306 50.2727 238.306 51.3864V52.3835H227.252V50.1335H234.888C234.888 49.6108 234.775 49.1477 234.548 48.7443C234.32 48.3409 234.005 48.0256 233.602 47.7983C233.204 47.5653 232.741 47.4489 232.212 47.4489C231.661 47.4489 231.173 47.5767 230.746 47.8324C230.326 48.0824 229.996 48.4205 229.758 48.8466C229.519 49.267 229.397 49.7358 229.391 50.2528V52.392C229.391 53.0398 229.511 53.5994 229.749 54.071C229.994 54.5426 230.337 54.9062 230.781 55.1619C231.224 55.4176 231.749 55.5455 232.357 55.5455C232.761 55.5455 233.13 55.4886 233.465 55.375C233.8 55.2614 234.087 55.0909 234.326 54.8636C234.565 54.6364 234.746 54.358 234.871 54.0284L238.229 54.25C238.059 55.0568 237.71 55.7614 237.181 56.3636C236.658 56.9602 235.982 57.4261 235.153 57.7614C234.329 58.0909 233.377 58.2557 232.298 58.2557Z" fill="#2C3E50"/>
<path d="M243.752 58H239.798L245.823 40.5455H250.579L256.596 58H252.641L248.269 44.5341H248.133L243.752 58ZM243.505 51.1392H252.846V54.0199H243.505V51.1392ZM262.387 40.5455V58H258.697V40.5455H262.387Z" fill="#3498DB"/>
<path d="M61.2305 22.7803C70.1321 19.1715 81.5488 14.5105 86.3061 12.5429C89.6769 11.1487 90.2949 10.7708 90.6829 9.86653C90.9546 9.23328 90.9247 8.27347 90.6104 7.5402C89.7544 5.54325 87.549 1.1191 87.247 0.792841C86.7449 0.250562 85.826 -0.0695099 85.0077 0.0128383C84.4767 0.0662698 81.0423 1.72745 68.5144 7.99039C59.8119 12.3409 52.6409 15.9486 52.5788 16.0075C52.5167 16.0663 52.6328 16.4877 52.8368 16.9439C53.0408 17.4001 53.8424 19.229 54.6181 21.0082C56.1063 24.4213 56.2521 24.7353 56.348 24.7353C56.381 24.7353 58.5781 23.8555 61.2305 22.7803Z" fill="#3498DB"/>
<path d="M54.9345 41.2442C57.9555 39.7265 60.5778 38.3499 60.7618 38.1852C61.1781 37.8126 61.4821 37.1185 61.4821 36.5407C61.4821 36.1601 60.978 34.9288 59.4701 31.627C58.6772 29.8906 56.6407 25.3078 56.2827 24.454C55.3186 22.155 53.0238 16.9454 52.6192 16.1373C52.3725 15.6447 51.9314 14.7037 51.6388 14.0462C51.3461 13.3887 50.9483 12.5026 50.7546 12.0772C50.3556 11.2005 48.7113 7.54455 47.9081 5.74811C47.1984 4.16083 47.051 3.95373 46.3916 3.61731C45.298 3.0594 45.0971 3.12143 39.8929 5.62412C32.4202 9.21776 30.6486 10.1334 30.3441 10.5594C30.1878 10.7781 30.0464 11.2574 30.0122 11.6846C29.9629 12.3 30.0301 12.5992 30.4004 13.4133C30.6467 13.9548 31.6393 16.17 32.6062 18.3359C33.5731 20.5019 34.4777 22.5272 34.6163 22.8366C34.7549 23.146 35.2308 24.222 35.6738 25.2276C36.1169 26.2332 37.0171 28.2585 37.6743 29.7283C38.3315 31.198 39.0907 32.9069 39.3615 33.5257C40.8295 36.8811 40.7855 36.8139 43.0146 39.1127C44.1604 40.2944 45.5314 41.7359 46.0613 42.3161C47.2836 43.6545 47.8369 44.0022 48.7461 44.0031C49.3703 44.0038 50.0062 43.7203 54.9345 41.2442Z" fill="#2C3E50"/>
<path d="M58.5859 56.3455C58.9496 53.4756 60.7157 51.5038 63.5724 50.7783C64.0859 50.6479 64.5151 50.4786 64.5262 50.4019C64.5374 50.3253 63.9778 50.1231 63.2828 49.9526C60.6196 49.2993 59.1482 47.7099 58.5562 44.8465C58.4281 44.2273 58.2628 43.7408 58.1888 43.7655C58.1148 43.7901 57.9396 44.3434 57.7994 44.9951C57.6592 45.6467 57.3742 46.5281 57.166 46.9536C56.4132 48.4922 54.7758 49.7238 52.9378 50.1337C52.377 50.2588 51.9182 50.4169 51.9182 50.485C51.9182 50.6098 51.9967 50.6345 53.2285 50.8971C54.8431 51.2413 56.5672 52.5816 57.3078 54.0683C57.5835 54.622 58.1066 56.5466 58.1066 57.0077C58.1066 57.0496 58.1934 57.0839 58.2994 57.0839C58.4264 57.0839 58.5242 56.8318 58.5859 56.3455Z" fill="black"/>
<path d="M57.9905 57.3245C57.9077 57.2247 57.736 56.6393 57.6089 56.0235C57.4818 55.4077 57.2255 54.5815 57.0392 54.1876C56.3709 52.7739 54.6736 51.4943 53.0433 51.1751C51.8806 50.9475 51.6103 50.8036 51.6624 50.4399C51.7001 50.1772 51.8853 50.0817 52.8324 49.8366C54.149 49.4958 54.7096 49.2224 55.575 48.4991C56.6782 47.5768 57.1453 46.5711 57.7484 43.8191C57.8206 43.4895 57.8979 43.4308 58.2115 43.4675C58.5279 43.5046 58.6045 43.6011 58.6927 44.0741C59.0925 46.2183 59.631 47.3597 60.6977 48.3235C61.5446 49.0888 62.472 49.525 63.7628 49.7652C65.4021 50.0703 65.4167 50.646 63.795 51.0358C60.9294 51.7247 59.2738 53.5185 58.8834 56.3571C58.7514 57.3165 58.3473 57.7543 57.9905 57.3245Z" fill="#3498DB"/>
<path d="M41.942 73.1721C44.5077 72.4104 46.6262 70.4249 48.2278 67.2807C48.4643 66.8166 49.1114 65.4944 49.6659 64.3426C50.477 62.6578 50.8152 62.1109 51.3958 61.5454C52.2288 60.734 52.5231 60.5926 54.2115 60.1921C55.5444 59.876 55.9969 59.6902 55.9969 59.4592C55.9969 59.2693 53.6615 56.7408 50.298 53.2891C43.7001 46.5181 39.1895 41.8055 37.0556 39.4534C36.3889 38.7185 36.1125 38.507 35.8653 38.5426C35.5712 38.5849 35.522 38.7199 35.2945 40.1079C34.8107 43.0603 34.0367 44.7744 32.0427 47.309C29.5592 50.4657 28.768 51.7082 28.1327 53.4489C27.3091 55.7057 27.1021 59.1925 27.653 61.5306C28.0957 63.4097 29.0611 65.3945 30.367 67.1102C31.1623 68.1552 33.3937 70.3864 33.9109 70.6538C34.5435 70.981 34.6177 70.7499 34.5908 68.5347C34.569 66.7335 34.5985 66.4822 34.9612 65.382C35.4573 63.8773 36.2212 62.3588 37.1193 61.0923C38.0566 59.7706 40.0831 57.5058 40.3286 57.5058C40.4955 57.5058 40.5259 58.7142 40.5259 65.3586C40.5259 69.6776 40.5681 73.2535 40.6196 73.3051C40.7668 73.4522 41.1168 73.417 41.942 73.1721Z" fill="black"/>
<path d="M40.3384 73.5864C40.2868 73.5348 40.2417 69.9747 40.2381 65.675L40.2317 57.8575L39.4522 58.7013C37.3735 60.9518 35.9973 63.1854 35.2495 65.5227C34.9023 66.608 34.8688 66.9006 34.8859 68.6984C34.9035 70.5345 34.8837 70.6978 34.6141 70.9418C34.33 71.1989 34.312 71.1988 33.829 70.9386C33.1187 70.5561 30.6723 68.0367 29.728 66.7153C27.4853 63.5769 26.6798 60.2805 27.1676 56.2363C27.5177 53.3339 28.5936 51.1637 31.4658 47.5668C33.8269 44.61 34.696 42.6509 35.1038 39.366C35.2176 38.4493 35.3656 38.2373 35.8918 38.2373C36.329 38.2373 36.7344 38.587 38.0482 40.0972C39.333 41.574 43.6341 46.0541 50.2381 52.7942C51.6782 54.264 53.1358 55.7822 53.4773 56.1681C53.8188 56.554 54.5887 57.3811 55.1882 58.0061C56.7888 59.6747 56.6974 59.9012 54.1724 60.5235C51.5995 61.1576 51.315 61.4725 49.1209 66.1168C47.1648 70.2575 45.1612 72.4043 42.3624 73.3584C41.4578 73.6668 40.524 73.772 40.3384 73.5864Z" fill="#3498DB"/>
<path d="M69.5049 99.1762C70.0379 98.5797 70.1057 97.9783 69.9591 95.1455C69.838 92.8041 69.8311 92.7669 69.4544 92.4429C69.2443 92.2622 68.8045 92.0488 68.477 91.9686C65.4688 91.2321 63.0768 89.9554 61.0979 88.0299C57.9799 84.9961 57.1602 81.7257 58.7319 78.5899C59.7673 76.5241 61.8629 74.5904 64.4541 73.3098C65.8266 72.6315 67.2908 72.1274 70.6987 71.16C74.1873 70.1696 75.5699 69.6762 77.2881 68.8083C78.414 68.2396 79.7729 67.4371 80.2361 67.0674C83.3054 64.6173 84.7615 62.2734 84.6603 59.9457L84.6184 58.9826H72.5228H60.4272L60.3302 59.6155C60.2768 59.9636 60.1342 60.9341 60.0132 61.7722C58.9507 69.1348 52.5808 75.3845 45.0062 76.4961C43.1108 76.7743 39.69 76.6099 37.9239 76.1558C34.0174 75.1513 31.1337 73.2843 28.2193 69.8726C26.3854 67.7259 25.0508 64.5299 24.4691 60.8919L24.1526 58.9123H12.4659C3.56381 58.9123 0.739023 58.9525 0.610461 59.0811C0.517635 59.1739 0.442305 59.5695 0.44306 59.9601C0.448025 62.5269 4.53717 66.6893 9.54288 69.2229C11.0194 69.9702 13.0765 70.8303 16.2644 72.033C19.8092 73.3705 20.9188 73.8809 22.4741 74.8891C25.4705 76.8317 26.9716 79.0966 27.1258 81.9079C27.1863 83.0122 27.1496 83.3034 26.8379 84.1901C25.6292 87.6286 21.4107 90.9304 17.1016 91.8107C16.3538 91.9635 15.6216 92.1974 15.4745 92.3305C14.9698 92.7872 14.8867 93.4672 14.9963 96.2433L15.0997 98.865L15.5342 99.2995L15.9687 99.7339L42.5388 99.6767L69.1088 99.6195L69.5049 99.1762Z" fill="black"/>
<path d="M15.4827 99.774C15.2848 99.6663 15.0504 99.4193 14.9618 99.2249C14.8701 99.0237 14.7588 97.6392 14.7033 96.0098C14.6148 93.4106 14.6294 93.0986 14.8619 92.6086C15.1498 92.0019 15.9436 91.5505 16.7319 91.5453C17.8304 91.538 20.2478 90.5164 22.1033 89.2753C24.6447 87.5754 26.4278 85.1869 26.7628 83.0338C27.1937 80.2646 25.5863 77.3948 22.4268 75.2924C20.8527 74.2449 19.66 73.6955 15.5612 72.1296C10.0836 70.037 7.19474 68.537 4.58812 66.432C2.97479 65.1291 2.03672 64.1351 1.20049 62.8424C0.177353 61.2608 -0.208224 59.9514 0.107158 59.1296C0.353655 58.4872 0.292493 58.4904 12.5034 58.4904C21.6607 58.4904 24.0671 58.5273 24.2637 58.6711C24.4354 58.7966 24.5509 59.173 24.6415 59.9018C25.2497 64.7945 26.7509 67.971 29.9591 71.154C32.7205 73.8938 35.1612 75.2341 38.8044 76.0113C41.3801 76.5607 45.1806 76.3677 47.6636 75.5613C48.9111 75.1561 50.9327 74.1528 52.2627 73.2787C53.6218 72.3856 56.0732 69.9213 56.9701 68.5465C58.7721 65.7846 59.6287 63.3295 59.9301 60.0633C59.9894 59.42 60.1129 58.8188 60.2045 58.7272C60.4335 58.4981 83.6661 58.4043 84.4412 58.6294C85.0702 58.812 85.1786 59.1082 85.0774 60.3684C84.8984 62.5983 83.1927 65.2321 80.7077 67.1156C78.2406 68.9856 75.9446 69.9949 70.7158 71.5081C65.1162 73.1286 63.1935 74.057 60.9722 76.213C57.3541 79.7247 57.3785 83.7283 61.0411 87.5078C62.9311 89.458 65.7395 91.0417 68.2111 91.551C70.1198 91.9443 70.1822 92.0773 70.233 95.8556C70.2773 99.153 70.22 99.3896 69.2816 99.7817C68.5731 100.078 16.0273 100.07 15.4827 99.774Z" fill="#2C3E50"/>
</svg>
