<svg width="201" height="61" viewBox="0 0 201 61" fill="none" xmlns="http://www.w3.org/2000/svg">
<path d="M67.6436 28.2768H64.444C64.3855 27.8628 64.2662 27.4951 64.086 27.1737C63.9058 26.8474 63.6745 26.5698 63.392 26.3409C63.1095 26.112 62.7832 25.9367 62.4131 25.8149C62.0479 25.6932 61.6509 25.6323 61.2224 25.6323C60.448 25.6323 59.7735 25.8247 59.1988 26.2094C58.6242 26.5893 58.1785 27.1445 57.862 27.875C57.5454 28.6007 57.3871 29.4821 57.3871 30.5195C57.3871 31.586 57.5454 32.4821 57.862 33.2078C58.1834 33.9334 58.6315 34.4813 59.2061 34.8515C59.7808 35.2216 60.4456 35.4067 61.2005 35.4067C61.6242 35.4067 62.0162 35.3506 62.3766 35.2386C62.7418 35.1266 63.0657 34.9635 63.3482 34.7492C63.6306 34.53 63.8644 34.2646 64.0495 33.9529C64.2394 33.6412 64.3709 33.2857 64.444 32.8864L67.6436 32.901C67.5608 33.5877 67.3539 34.25 67.0227 34.888C66.6964 35.5211 66.2556 36.0885 65.7005 36.5901C65.1501 37.0869 64.4927 37.4813 63.728 37.7735C62.9683 38.0609 62.1087 38.2045 61.1493 38.2045C59.8149 38.2045 58.6217 37.9026 57.5698 37.2987C56.5227 36.6948 55.6948 35.8206 55.086 34.6761C54.4821 33.5317 54.1802 32.1461 54.1802 30.5195C54.1802 28.888 54.487 27.5 55.1006 26.3555C55.7143 25.211 56.547 24.3393 57.599 23.7403C58.6509 23.1364 59.8344 22.8344 61.1493 22.8344C62.0162 22.8344 62.8198 22.9562 63.56 23.1997C64.3052 23.4432 64.9651 23.7987 65.5397 24.2662C66.1144 24.7289 66.5819 25.2963 66.9423 25.9683C67.3076 26.6404 67.5414 27.4099 67.6436 28.2768ZM73.0531 38.2119C72.3372 38.2119 71.6992 38.0877 71.1392 37.8393C70.5791 37.586 70.1359 37.2135 69.8096 36.7216C69.4882 36.2248 69.3275 35.6063 69.3275 34.8661C69.3275 34.2427 69.4419 33.7192 69.6708 33.2955C69.8997 32.8718 70.2114 32.5308 70.6059 32.2727C71.0004 32.0146 71.4484 31.8198 71.95 31.6883C72.4565 31.5568 72.9874 31.4643 73.5426 31.4107C74.1952 31.3425 74.7211 31.2792 75.1205 31.2208C75.5198 31.1575 75.8096 31.0649 75.9898 30.9432C76.17 30.8214 76.2601 30.6412 76.2601 30.4026V30.3588C76.2601 29.8961 76.114 29.5382 75.8218 29.2849C75.5345 29.0317 75.1254 28.905 74.5945 28.905C74.0345 28.905 73.5888 29.0292 73.2577 29.2776C72.9265 29.5211 72.7073 29.8279 72.6002 30.1981L69.722 29.9643C69.8681 29.2825 70.1554 28.6932 70.584 28.1964C71.0125 27.6948 71.5653 27.3101 72.2423 27.0422C72.9241 26.7695 73.713 26.6331 74.6091 26.6331C75.2325 26.6331 75.8291 26.7062 76.3989 26.8523C76.9736 26.9984 77.4825 27.2248 77.9257 27.5317C78.3737 27.8385 78.7268 28.233 78.9849 28.7151C79.2431 29.1924 79.3721 29.7646 79.3721 30.4318V38H76.4208V36.444H76.3332C76.153 36.7946 75.9119 37.1039 75.6099 37.3718C75.308 37.6347 74.9452 37.8417 74.5215 37.9927C74.0978 38.1388 73.6083 38.2119 73.0531 38.2119ZM73.9444 36.0641C74.4022 36.0641 74.8064 35.974 75.157 35.7938C75.5077 35.6088 75.7828 35.3604 75.9825 35.0487C76.1822 34.737 76.282 34.3839 76.282 33.9894V32.7987C76.1846 32.862 76.0507 32.9205 75.8802 32.974C75.7147 33.0227 75.5272 33.069 75.3177 33.1128C75.1083 33.1518 74.8989 33.1883 74.6895 33.2224C74.4801 33.2516 74.2901 33.2784 74.1197 33.3028C73.7544 33.3563 73.4354 33.4416 73.1627 33.5584C72.89 33.6753 72.6781 33.8336 72.5272 34.0333C72.3762 34.2281 72.3007 34.4716 72.3007 34.7638C72.3007 35.1875 72.4541 35.5114 72.7609 35.7354C73.0726 35.9545 73.4671 36.0641 73.9444 36.0641ZM81.7865 38V26.7792H84.8035V28.737H84.9204C85.125 28.0406 85.4683 27.5146 85.9504 27.1591C86.4326 26.7987 86.9878 26.6185 87.616 26.6185C87.7719 26.6185 87.9399 26.6282 88.1201 26.6477C88.3003 26.6672 88.4586 26.694 88.5949 26.7281V29.4894C88.4488 29.4456 88.2467 29.4067 87.9886 29.3726C87.7305 29.3385 87.4943 29.3214 87.28 29.3214C86.8222 29.3214 86.4131 29.4213 86.0527 29.6209C85.6972 29.8157 85.4147 30.0885 85.2053 30.4391C85.0008 30.7898 84.8985 31.194 84.8985 31.6518V38H81.7865ZM94.7952 38.2192C93.641 38.2192 92.6475 37.9854 91.8147 37.5179C90.9868 37.0455 90.3488 36.3782 89.9007 35.5162C89.4527 34.6494 89.2287 33.6242 89.2287 32.4407C89.2287 31.2865 89.4527 30.2735 89.9007 29.4018C90.3488 28.53 90.9795 27.8507 91.7928 27.3636C92.611 26.8766 93.5704 26.6331 94.671 26.6331C95.4113 26.6331 96.1004 26.7524 96.7384 26.9911C97.3813 27.2248 97.9413 27.5779 98.4186 28.0503C98.9007 28.5227 99.2757 29.1169 99.5436 29.8328C99.8114 30.5438 99.9454 31.3766 99.9454 32.3312V33.1859H90.4705V31.2573H97.016C97.016 30.8093 96.9186 30.4123 96.7238 30.0666C96.529 29.7208 96.2587 29.4505 95.9129 29.2557C95.572 29.056 95.1751 28.9562 94.7222 28.9562C94.2498 28.9562 93.8309 29.0657 93.4657 29.2849C93.1053 29.4992 92.8228 29.789 92.6183 30.1542C92.4137 30.5146 92.309 30.9164 92.3041 31.3596V33.1932C92.3041 33.7484 92.4064 34.2281 92.611 34.6323C92.8204 35.0365 93.115 35.3482 93.4949 35.5674C93.8748 35.7865 94.3252 35.8961 94.8463 35.8961C95.1921 35.8961 95.5087 35.8474 95.796 35.75C96.0834 35.6526 96.3293 35.5065 96.5338 35.3117C96.7384 35.1169 96.8942 34.8782 97.0014 34.5958L99.8796 34.7857C99.7335 35.4773 99.434 36.0812 98.9811 36.5974C98.533 37.1088 97.9535 37.5081 97.2425 37.7955C96.5363 38.0779 95.7205 38.2192 94.7952 38.2192ZM107.09 38.2192C105.936 38.2192 104.942 37.9854 104.109 37.5179C103.281 37.0455 102.643 36.3782 102.195 35.5162C101.747 34.6494 101.523 33.6242 101.523 32.4407C101.523 31.2865 101.747 30.2735 102.195 29.4018C102.643 28.53 103.274 27.8507 104.087 27.3636C104.906 26.8766 105.865 26.6331 106.966 26.6331C107.706 26.6331 108.395 26.7524 109.033 26.9911C109.676 27.2248 110.236 27.5779 110.713 28.0503C111.195 28.5227 111.57 29.1169 111.838 29.8328C112.106 30.5438 112.24 31.3766 112.24 32.3312V33.1859H102.765V31.2573H109.311C109.311 30.8093 109.213 30.4123 109.018 30.0666C108.824 29.7208 108.553 29.4505 108.208 29.2557C107.867 29.056 107.47 28.9562 107.017 28.9562C106.544 28.9562 106.126 29.0657 105.76 29.2849C105.4 29.4992 105.117 29.789 104.913 30.1542C104.708 30.5146 104.604 30.9164 104.599 31.3596V33.1932C104.599 33.7484 104.701 34.2281 104.906 34.6323C105.115 35.0365 105.41 35.3482 105.79 35.5674C106.169 35.7865 106.62 35.8961 107.141 35.8961C107.487 35.8961 107.803 35.8474 108.091 35.75C108.378 35.6526 108.624 35.5065 108.828 35.3117C109.033 35.1169 109.189 34.8782 109.296 34.5958L112.174 34.7857C112.028 35.4773 111.729 36.0812 111.276 36.5974C110.828 37.1088 110.248 37.5081 109.537 37.7955C108.831 38.0779 108.015 38.2192 107.09 38.2192ZM114.271 38V26.7792H117.288V28.737H117.405C117.609 28.0406 117.953 27.5146 118.435 27.1591C118.917 26.7987 119.472 26.6185 120.1 26.6185C120.256 26.6185 120.424 26.6282 120.604 26.6477C120.785 26.6672 120.943 26.694 121.079 26.7281V29.4894C120.933 29.4456 120.731 29.4067 120.473 29.3726C120.215 29.3385 119.979 29.3214 119.764 29.3214C119.307 29.3214 118.897 29.4213 118.537 29.6209C118.182 29.8157 117.899 30.0885 117.69 30.4391C117.485 30.7898 117.383 31.194 117.383 31.6518V38H114.271ZM122.747 38V23.039H132.653V25.6469H125.91V29.2119H131.995V31.8198H125.91V38H122.747ZM138.968 38.2192C137.833 38.2192 136.852 37.9781 136.024 37.4959C135.201 37.0089 134.565 36.332 134.117 35.4651C133.669 34.5933 133.445 33.5828 133.445 32.4334C133.445 31.2744 133.669 30.2614 134.117 29.3945C134.565 28.5227 135.201 27.8458 136.024 27.3636C136.852 26.8766 137.833 26.6331 138.968 26.6331C140.103 26.6331 141.082 26.8766 141.905 27.3636C142.733 27.8458 143.37 28.5227 143.819 29.3945C144.267 30.2614 144.491 31.2744 144.491 32.4334C144.491 33.5828 144.267 34.5933 143.819 35.4651C143.37 36.332 142.733 37.0089 141.905 37.4959C141.082 37.9781 140.103 38.2192 138.968 38.2192ZM138.983 35.8084C139.499 35.8084 139.93 35.6623 140.276 35.3701C140.621 35.0731 140.882 34.6688 141.057 34.1575C141.237 33.6461 141.327 33.0641 141.327 32.4115C141.327 31.7589 141.237 31.1769 141.057 30.6656C140.882 30.1542 140.621 29.75 140.276 29.4529C139.93 29.1558 139.499 29.0073 138.983 29.0073C138.461 29.0073 138.023 29.1558 137.668 29.4529C137.317 29.75 137.051 30.1542 136.871 30.6656C136.696 31.1769 136.608 31.7589 136.608 32.4115C136.608 33.0641 136.696 33.6461 136.871 34.1575C137.051 34.6688 137.317 35.0731 137.668 35.3701C138.023 35.6623 138.461 35.8084 138.983 35.8084ZM146.514 38V26.7792H149.531V28.737H149.648C149.853 28.0406 150.196 27.5146 150.678 27.1591C151.16 26.7987 151.715 26.6185 152.344 26.6185C152.5 26.6185 152.668 26.6282 152.848 26.6477C153.028 26.6672 153.186 26.694 153.323 26.7281V29.4894C153.176 29.4456 152.974 29.4067 152.716 29.3726C152.458 29.3385 152.222 29.3214 152.008 29.3214C151.55 29.3214 151.141 29.4213 150.78 29.6209C150.425 29.8157 150.142 30.0885 149.933 30.4391C149.728 30.7898 149.626 31.194 149.626 31.6518V38H146.514ZM159.464 42.4416C158.456 42.4416 157.592 42.3028 156.871 42.0252C156.155 41.7524 155.585 41.3799 155.162 40.9075C154.738 40.4351 154.463 39.9042 154.336 39.3149L157.214 38.9278C157.302 39.1518 157.441 39.3612 157.631 39.556C157.821 39.7508 158.072 39.9067 158.383 40.0235C158.7 40.1453 159.085 40.2062 159.537 40.2062C160.214 40.2062 160.772 40.0406 161.21 39.7094C161.654 39.3831 161.875 38.8352 161.875 38.0657V36.013H161.744C161.607 36.3247 161.403 36.6193 161.13 36.8969C160.857 37.1745 160.507 37.401 160.078 37.5763C159.65 37.7516 159.138 37.8393 158.544 37.8393C157.701 37.8393 156.934 37.6445 156.243 37.2549C155.556 36.8604 155.008 36.2589 154.599 35.4505C154.195 34.6372 153.993 33.6096 153.993 32.3677C153.993 31.0966 154.2 30.0349 154.614 29.1826C155.028 28.3304 155.578 27.6924 156.265 27.2687C156.956 26.845 157.714 26.6331 158.537 26.6331C159.165 26.6331 159.691 26.7403 160.115 26.9545C160.538 27.164 160.879 27.4269 161.137 27.7435C161.4 28.0552 161.602 28.362 161.744 28.664H161.861V26.7792H164.951V38.1096C164.951 39.0641 164.717 39.8628 164.249 40.5057C163.782 41.1485 163.134 41.6307 162.306 41.9521C161.483 42.2784 160.536 42.4416 159.464 42.4416ZM159.53 35.5016C160.032 35.5016 160.456 35.3774 160.801 35.1291C161.152 34.8758 161.42 34.5154 161.605 34.0479C161.795 33.5755 161.89 33.0106 161.89 32.3531C161.89 31.6956 161.797 31.1258 161.612 30.6437C161.427 30.1567 161.159 29.7792 160.809 29.5114C160.458 29.2435 160.032 29.1096 159.53 29.1096C159.019 29.1096 158.588 29.2484 158.237 29.526C157.887 29.7987 157.621 30.1786 157.441 30.6656C157.261 31.1526 157.171 31.7151 157.171 32.3531C157.171 33.0008 157.261 33.5609 157.441 34.0333C157.626 34.5008 157.891 34.8636 158.237 35.1218C158.588 35.375 159.019 35.5016 159.53 35.5016ZM172.541 38.2192C171.387 38.2192 170.393 37.9854 169.56 37.5179C168.732 37.0455 168.094 36.3782 167.646 35.5162C167.198 34.6494 166.974 33.6242 166.974 32.4407C166.974 31.2865 167.198 30.2735 167.646 29.4018C168.094 28.53 168.725 27.8507 169.538 27.3636C170.356 26.8766 171.316 26.6331 172.417 26.6331C173.157 26.6331 173.846 26.7524 174.484 26.9911C175.127 27.2248 175.687 27.5779 176.164 28.0503C176.646 28.5227 177.021 29.1169 177.289 29.8328C177.557 30.5438 177.691 31.3766 177.691 32.3312V33.1859H168.216V31.2573H174.762C174.762 30.8093 174.664 30.4123 174.469 30.0666C174.275 29.7208 174.004 29.4505 173.658 29.2557C173.318 29.056 172.921 28.9562 172.468 28.9562C171.995 28.9562 171.576 29.0657 171.211 29.2849C170.851 29.4992 170.568 29.789 170.364 30.1542C170.159 30.5146 170.055 30.9164 170.05 31.3596V33.1932C170.05 33.7484 170.152 34.2281 170.356 34.6323C170.566 35.0365 170.861 35.3482 171.24 35.5674C171.62 35.7865 172.071 35.8961 172.592 35.8961C172.938 35.8961 173.254 35.8474 173.542 35.75C173.829 35.6526 174.075 35.5065 174.279 35.3117C174.484 35.1169 174.64 34.8782 174.747 34.5958L177.625 34.7857C177.479 35.4773 177.18 36.0812 176.727 36.5974C176.279 37.1088 175.699 37.5081 174.988 37.7955C174.282 38.0779 173.466 38.2192 172.541 38.2192Z" fill="#2C3E50"/>
<path d="M182.359 38H178.969L184.134 23.039H188.21L193.368 38H189.978L186.231 26.4578H186.114L182.359 38ZM182.147 32.1193H190.154V34.5885H182.147V32.1193ZM198.332 23.039V38H195.169V23.039H198.332Z" fill="white"/>
<path d="M34.9889 13.8008C40.0755 11.6145 46.5993 8.79079 49.3178 7.59877C51.2439 6.75416 51.5971 6.52522 51.8188 5.97737C51.9741 5.59373 51.957 5.01226 51.7774 4.56802C51.2882 3.35822 50.028 0.677976 49.8554 0.480321C49.5685 0.151796 49.0434 -0.0421107 48.5758 0.00777776C48.2724 0.0401477 46.3099 1.04653 39.1511 4.84075C34.1782 7.47641 30.0805 9.66202 30.045 9.69767C30.0095 9.73333 30.0759 9.98862 30.1924 10.265C30.309 10.5414 30.7671 11.6494 31.2104 12.7272C32.0608 14.795 32.144 14.9852 32.1989 14.9852C32.2177 14.9852 33.4732 14.4522 34.9889 13.8008Z" fill="white"/>
<path d="M31.3912 24.9867C33.1175 24.0672 34.6159 23.2333 34.7211 23.1335C34.9589 22.9078 35.1326 22.4873 35.1326 22.1372C35.1326 21.9066 34.8446 21.1607 33.9829 19.1604C33.5298 18.1085 32.3661 15.3321 32.1616 14.8149C31.6106 13.4221 30.2993 10.2659 30.0681 9.77641C29.9272 9.47799 29.6751 8.90792 29.5079 8.50958C29.3407 8.11124 29.1133 7.57444 29.0027 7.31669C28.7746 6.78557 27.835 4.57072 27.3761 3.4824C26.9706 2.52079 26.8863 2.39532 26.5095 2.19151C25.8846 1.85351 25.7698 1.8911 22.796 3.40728C18.5258 5.58439 17.5135 6.13911 17.3395 6.39718C17.2502 6.52966 17.1694 6.82003 17.1498 7.07884C17.1217 7.45167 17.1601 7.63293 17.3717 8.12615C17.5124 8.4542 18.0796 9.7962 18.6321 11.1084C19.1847 12.4206 19.7015 13.6475 19.7807 13.835C19.86 14.0224 20.1319 14.6743 20.3851 15.2835C20.6382 15.8927 21.1526 17.1197 21.5282 18.0101C21.9037 18.9005 22.3376 19.9358 22.4923 20.3107C23.3311 22.3434 23.306 22.3027 24.5798 23.6954C25.2346 24.4113 26.018 25.2846 26.3207 25.6361C27.0192 26.4469 27.3354 26.6576 27.8549 26.6581C28.2116 26.6586 28.575 26.4868 31.3912 24.9867Z" fill="#2C3E50"/>
<path d="M33.4777 34.1353C33.6855 32.3966 34.6947 31.202 36.3271 30.7625C36.6205 30.6835 36.8658 30.5809 36.8722 30.5345C36.8785 30.4881 36.5588 30.3656 36.1616 30.2623C34.6398 29.8665 33.799 28.9036 33.4607 27.1689C33.3875 26.7937 33.2931 26.499 33.2508 26.514C33.2085 26.5289 33.1084 26.8641 33.0283 27.2589C32.9482 27.6537 32.7853 28.1876 32.6663 28.4454C32.2362 29.3775 31.3005 30.1237 30.2502 30.372C29.9297 30.4478 29.6675 30.5436 29.6675 30.5848C29.6675 30.6604 29.7124 30.6754 30.4163 30.8345C31.339 31.043 32.3242 31.855 32.7473 32.7557C32.9049 33.0911 33.2038 34.2571 33.2038 34.5364C33.2038 34.5618 33.2534 34.5826 33.314 34.5826C33.3866 34.5826 33.4424 34.4298 33.4777 34.1353Z" fill="black"/>
<path d="M33.1374 34.7285C33.0901 34.6681 32.992 34.3134 32.9194 33.9404C32.8468 33.5673 32.7003 33.0668 32.5939 32.8281C32.212 31.9717 31.2421 31.1965 30.3105 31.0031C29.6461 30.8652 29.4916 30.778 29.5214 30.5577C29.5429 30.3986 29.6488 30.3407 30.1899 30.1922C30.9423 29.9858 31.2627 29.8201 31.7571 29.3819C32.3876 28.8232 32.6545 28.2139 32.9991 26.5467C33.0404 26.347 33.0845 26.3115 33.2637 26.3337C33.4445 26.3561 33.4883 26.4146 33.5387 26.7012C33.7671 28.0002 34.0749 28.6916 34.6844 29.2755C35.1684 29.7392 35.6983 30.0034 36.4359 30.149C37.3726 30.3338 37.381 30.6826 36.4543 30.9187C34.8168 31.3361 33.8708 32.4228 33.6477 34.1425C33.5723 34.7237 33.3413 34.989 33.1374 34.7285Z" fill="white"/>
<path d="M23.9669 44.3292C25.433 43.8678 26.6435 42.6649 27.5588 40.7601C27.6939 40.479 28.0637 39.678 28.3806 38.9801C28.844 37.9594 29.0373 37.6281 29.3691 37.2855C29.8451 36.794 30.0132 36.7083 30.978 36.4657C31.7397 36.2742 31.9983 36.1616 31.9983 36.0217C31.9983 35.9066 30.6637 34.3748 28.7417 32.2837C24.9715 28.1817 22.3941 25.3267 21.1746 23.9017C20.7937 23.4565 20.6357 23.3284 20.4945 23.3499C20.3264 23.3756 20.2983 23.4573 20.1683 24.2982C19.8919 26.0869 19.4496 27.1253 18.3101 28.6608C16.891 30.5732 16.4389 31.3259 16.0759 32.3805C15.6052 33.7477 15.4869 35.8601 15.8017 37.2766C16.0547 38.415 16.6064 39.6174 17.3526 40.6568C17.807 41.2899 19.0821 42.6416 19.3777 42.8036C19.7392 43.0018 19.7815 42.8618 19.7662 41.5198C19.7537 40.4286 19.7706 40.2764 19.9779 39.6098C20.2613 38.6983 20.6979 37.7783 21.2111 37.011C21.7466 36.2103 22.9047 34.8383 23.0449 34.8383C23.1403 34.8383 23.1577 35.5703 23.1577 39.5956C23.1577 42.2122 23.1818 44.3786 23.2112 44.4098C23.2953 44.499 23.4953 44.4776 23.9669 44.3292Z" fill="black"/>
<path d="M23.0505 44.5803C23.021 44.549 22.9952 42.3922 22.9932 39.7874L22.9895 35.0513L22.5441 35.5626C21.3563 36.9259 20.5699 38.2791 20.1426 39.6951C19.9442 40.3526 19.925 40.5299 19.9348 41.619C19.9448 42.7314 19.9335 42.8303 19.7795 42.9781C19.6171 43.1339 19.6069 43.1338 19.3309 42.9762C18.925 42.7445 17.527 41.2182 16.9874 40.4176C15.7059 38.5163 15.2456 36.5193 15.5244 34.0692C15.7244 32.3109 16.3392 30.9961 17.9805 28.817C19.3296 27.0257 19.8263 25.8389 20.0593 23.8488C20.1244 23.2935 20.2089 23.165 20.5096 23.165C20.7594 23.165 20.9911 23.3769 21.7418 24.2918C22.476 25.1864 24.9338 27.9006 28.7075 31.9839C29.5304 32.8743 30.3633 33.7941 30.5585 34.0279C30.7536 34.2617 31.1936 34.7628 31.5361 35.1414C32.4507 36.1523 32.3985 36.2895 30.9557 36.6665C29.4854 37.0506 29.3229 37.2414 28.0691 40.055C26.9513 42.5636 25.8064 43.8641 24.2071 44.4422C23.6902 44.629 23.1566 44.6927 23.0505 44.5803Z" fill="white"/>
<path d="M39.7171 60.0832C40.0216 59.7218 40.0604 59.3575 39.9767 57.6413C39.9074 56.2229 39.9035 56.2003 39.6882 56.004C39.5682 55.8946 39.3169 55.7653 39.1297 55.7167C37.4107 55.2705 36.0439 54.497 34.9131 53.3305C33.1314 51.4926 32.663 49.5113 33.5611 47.6116C34.1527 46.3601 35.3502 45.1886 36.8309 44.4128C37.6152 44.0018 38.4519 43.6965 40.3993 43.1104C42.3927 42.5104 43.1828 42.2114 44.1646 41.6856C44.808 41.3411 45.5845 40.8549 45.8492 40.631C47.6031 39.1467 48.4352 37.7267 48.3773 36.3165L48.3533 35.733H41.4416H34.5298L34.4744 36.1165C34.4439 36.3273 34.3624 36.9153 34.2933 37.423C33.6861 41.8834 30.0462 45.6696 25.7179 46.3431C24.6347 46.5116 22.68 46.4121 21.6708 46.1369C19.4385 45.5284 17.7907 44.3973 16.1253 42.3305C15.0774 41.0299 14.3148 39.0937 13.9824 36.8897L13.8015 35.6904H7.12338C2.03646 35.6904 0.422299 35.7148 0.348835 35.7927C0.295791 35.8489 0.252745 36.0886 0.253177 36.3252C0.256014 37.8802 2.59267 40.4019 5.45307 41.9368C6.29682 42.3896 7.47231 42.9106 9.29392 43.6393C11.3196 44.4496 11.9536 44.7587 12.8423 45.3695C14.5546 46.5464 15.4123 47.9185 15.5004 49.6217C15.5351 50.2907 15.5141 50.4671 15.336 51.0043C14.6453 53.0874 12.2347 55.0877 9.77234 55.621C9.34501 55.7136 8.92662 55.8553 8.84258 55.9359C8.55417 56.2126 8.50668 56.6246 8.56929 58.3064L8.62842 59.8947L8.87669 60.1579L9.12496 60.4211L24.3079 60.3864L39.4908 60.3518L39.7171 60.0832Z" fill="black"/>
<path d="M8.84724 60.4454C8.73415 60.3801 8.60022 60.2305 8.54962 60.1127C8.49723 59.9908 8.43363 59.1521 8.40191 58.1649C8.35133 56.5903 8.35964 56.4012 8.49251 56.1044C8.65703 55.7368 9.11065 55.4634 9.56107 55.4602C10.1888 55.4558 11.5702 54.8369 12.6305 54.085C14.0827 53.0552 15.1016 51.6082 15.293 50.3038C15.5393 48.6261 14.6208 46.8875 12.8153 45.6138C11.9158 44.9793 11.2343 44.6464 8.8921 43.6978C5.76206 42.43 4.11128 41.5213 2.62178 40.246C1.69988 39.4567 1.16384 38.8545 0.685995 38.0714C0.101345 37.1132 -0.118985 36.32 0.061233 35.8221C0.202089 35.4329 0.167139 35.4348 7.14481 35.4348C12.3775 35.4348 13.7526 35.4572 13.865 35.5443C13.9631 35.6204 14.0291 35.8483 14.0808 36.2899C14.4284 39.254 15.2862 41.1784 17.1195 43.1067C18.6974 44.7666 20.0921 45.5785 22.1739 46.0494C23.6458 46.3823 25.8175 46.2653 27.2363 45.7768C27.9492 45.5313 29.1044 44.9235 29.8644 44.3939C30.641 43.8528 32.0418 42.3599 32.5543 41.5271C33.584 39.8538 34.0736 38.3664 34.2458 36.3878C34.2797 35.998 34.3502 35.6338 34.4025 35.5783C34.5334 35.4395 47.8092 35.3827 48.2521 35.519C48.6116 35.6297 48.6735 35.8091 48.6157 36.5726C48.5134 37.9235 47.5387 39.5191 46.1187 40.6602C44.7089 41.7931 43.3969 42.4045 40.409 43.3213C37.2092 44.303 36.1106 44.8655 34.8412 46.1716C32.7738 48.2991 32.7877 50.7245 34.8807 53.0142C35.9606 54.1957 37.5654 55.1551 38.9778 55.4637C40.0684 55.702 40.1041 55.7825 40.1331 58.0715C40.1585 60.0692 40.1257 60.2125 39.5895 60.45C39.1846 60.6294 9.15843 60.6248 8.84724 60.4454Z" fill="#2C3E50"/>
</svg>
